<svg width="54" height="36" viewBox="0 0 54 36" fill="none" xmlns="http://www.w3.org/2000/svg">
<path d="M5.07163 0.00765794C2.38175 0.00765794 0.201172 2.18823 0.201172 4.87811V31.1219C0.201172 33.8118 2.38175 35.9923 5.07163 35.9923H18.0901C18.0901 23.9949 18.0901 11.9974 18.0901 0L5.07163 0.00765794Z" fill="#ED5565"/>
<path d="M18.0747 0.00765991C18.0747 12.0051 18.0747 24.0026 18.0747 36H35.9713C35.9713 24.0026 35.9713 12.0051 35.9713 0.00765991H18.0747Z" fill="white"/>
<path d="M48.9284 0.00765991H35.9712C35.9712 12.0051 35.9712 24.0026 35.9712 36H48.9284C51.6183 36 53.7989 33.8194 53.7989 31.1296V4.87811C53.7989 2.18824 51.6183 0.00765991 48.9284 0.00765991Z" fill="#ED5565"/>
<path d="M27.4635 10.3229C27.4085 10.1099 27.2164 9.96106 26.9964 9.96106C26.7764 9.96106 26.5843 10.1099 26.5293 10.3229L26.1464 11.0887C25.9751 11.4583 25.7478 11.7993 25.4725 12.0996C25.1352 12.0838 24.8067 11.9866 24.5152 11.8162C24.2549 11.6784 24.117 12.0077 24.2166 12.582L24.5688 14.4659C24.6666 14.9046 24.6666 15.3596 24.5688 15.7983C24.4769 15.9898 23.8643 15.5073 23.4967 15.0862L23.1598 14.7033C22.7922 14.2897 22.4323 14.1672 22.394 14.4276C22.339 14.6382 22.2647 14.8433 22.1719 15.0402C21.7371 15.0814 21.2984 15.0425 20.8777 14.9253H20.7705C20.5507 14.8092 20.2808 14.8499 20.105 15.0257C19.9292 15.2015 19.8885 15.4713 20.0047 15.6911V15.8137C20.1502 16.3421 20.311 16.9241 20.3723 17.1002C20.2694 17.3845 20.0489 17.6105 19.7673 17.7205C19.5605 17.82 19.7673 18.1876 20.1732 18.5475L22.2408 20.2553C22.5535 20.4906 22.8503 20.7464 23.1291 21.0211C23.1591 21.3158 23.1252 21.6136 23.0296 21.8941C22.9453 22.1851 23.3282 22.3689 23.8873 22.3076L25.4725 22.1238C25.8577 22.0669 26.2472 22.0438 26.6365 22.0549C26.7554 22.4333 26.792 22.8328 26.7437 23.2266L26.6671 25.1181C26.5708 25.4726 26.67 25.8516 26.9275 26.1136C27.1904 25.8547 27.298 25.4766 27.2108 25.1181L27.1649 23.2342C27.1382 22.863 27.1588 22.4899 27.2261 22.1238C27.6263 22.0529 28.0359 22.0529 28.4361 22.1238L30.0213 22.3076C30.5803 22.3765 30.9709 22.1851 30.879 21.8941C30.8031 21.6579 30.7543 21.4138 30.7335 21.1666C31 20.7763 31.3285 20.4323 31.706 20.1481L33.7737 18.4403C34.2025 18.0881 34.3863 17.7128 34.1796 17.6133C33.9953 17.5307 33.8269 17.4167 33.6818 17.2763C33.6986 16.7413 33.7861 16.2108 33.9422 15.6988V15.5763C34.0583 15.3565 34.0176 15.0866 33.8418 14.9108C33.666 14.735 33.3962 14.6943 33.1764 14.8105H33.0691C32.6859 14.9078 32.2928 14.9618 31.8975 14.9713C31.7291 14.7853 31.6129 14.5581 31.5605 14.3127C31.484 14.0447 31.124 14.1749 30.7947 14.5884L30.4578 14.9713C30.1655 15.3268 29.8192 15.6343 29.4316 15.8826C29.2325 15.9668 29.3014 14.887 29.4316 14.351L29.7839 12.4671C29.8834 11.9311 29.7839 11.6018 29.4852 11.7013C29.2376 11.8303 28.9818 11.9429 28.7194 12.0383C28.3228 11.7777 28.0134 11.4043 27.8311 10.9662L27.4635 10.3229Z" fill="#ED5565"/>
</svg>
