<svg width="54" height="36" viewBox="0 0 54 36" fill="none" xmlns="http://www.w3.org/2000/svg">
<rect x="0.200195" width="53.6" height="36" rx="5" fill="#003399"/>
<path d="M26.8467 4.10636L27.2099 5.20177L28.3576 5.21075C28.5063 5.21189 28.5678 5.40263 28.4483 5.49149L27.525 6.17745L27.8711 7.27833C27.916 7.42077 27.7547 7.53884 27.6337 7.45183L26.7 6.78032L25.7663 7.45183C25.6455 7.53874 25.4841 7.42087 25.5289 7.27833L25.8751 6.17745L24.9517 5.49149C24.8322 5.40263 24.8938 5.21189 25.0424 5.21075L26.1901 5.20177L26.5533 4.10636C26.6002 3.96455 26.7997 3.96455 26.8467 4.10636Z" fill="#FFE15A"/>
<path d="M26.8467 27.6248L27.2099 28.7202L28.3576 28.7292C28.5063 28.7303 28.5678 28.9211 28.4483 29.0099L27.525 29.6959L27.8711 30.7968C27.916 30.9392 27.7547 31.0573 27.6337 30.9703L26.7 30.2988L25.7663 30.9703C25.6455 31.0572 25.4841 30.9393 25.5289 30.7968L25.8751 29.6959L24.9517 29.0099C24.8322 28.9211 24.8938 28.7303 25.0424 28.7292L26.1901 28.7202L26.5533 27.6248C26.6002 27.4829 26.7997 27.4829 26.8467 27.6248Z" fill="#FFE15A"/>
<path d="M38.5357 15.8655L38.8989 16.9609L40.0466 16.9699C40.1953 16.9711 40.2568 17.1618 40.1373 17.2507L39.214 17.9366L39.5601 19.0375C39.6049 19.1799 39.4437 19.298 39.3227 19.211L38.389 18.5395L37.4553 19.211C37.3344 19.2979 37.1731 19.18 37.2179 19.0375L37.5641 17.9366L36.6407 17.2507C36.5212 17.1618 36.5827 16.9711 36.7314 16.9699L37.8791 16.9609L38.2423 15.8655C38.2892 15.7238 38.4887 15.7238 38.5357 15.8655Z" fill="#FFE15A"/>
<path d="M15.1583 15.8655L15.5215 16.9609L16.6692 16.9699C16.8178 16.9711 16.8794 17.1618 16.7599 17.2507L15.8365 17.9366L16.1827 19.0375C16.2275 19.1799 16.0662 19.298 15.9453 19.211L15.0116 18.5395L14.0779 19.211C13.957 19.2979 13.7956 19.18 13.8405 19.0375L14.1866 17.9366L13.2633 17.2507C13.1437 17.1618 13.2053 16.9711 13.354 16.9699L14.5017 16.9609L14.8649 15.8655C14.9118 15.7238 15.1114 15.7238 15.1583 15.8655Z" fill="#FFE15A"/>
<path d="M16.9132 9.72477L17.2763 10.8202L18.4241 10.8292C18.5727 10.8303 18.6343 11.021 18.5147 11.1099L17.5914 11.7959L17.9376 12.8967C17.9824 13.0392 17.8211 13.1572 17.7002 13.0702L16.7664 12.3987L15.8327 13.0702C15.7119 13.1571 15.5505 13.0393 15.5953 12.8967L15.9415 11.7959L15.0182 11.1099C14.8986 11.021 14.9602 10.8303 15.1088 10.8292L16.2566 10.8202L16.6197 9.72477C16.6667 9.58295 16.8661 9.58295 16.9132 9.72477Z" fill="#FFE15A"/>
<path d="M37.1583 21.4839L37.5215 22.5793L38.6692 22.5882C38.8178 22.5894 38.8794 22.7801 38.7599 22.869L37.8365 23.5549L38.1827 24.6558C38.2275 24.7985 38.0662 24.9163 37.9453 24.8293L37.0116 24.1578L36.0779 24.8293C35.957 24.9162 35.7956 24.7984 35.8405 24.6558L36.1866 23.5549L35.2633 22.869C35.1437 22.7801 35.2053 22.5894 35.354 22.5882L36.5017 22.5793L36.8649 21.4839C36.9118 21.3422 37.1113 21.3422 37.1583 21.4839Z" fill="#FFE15A"/>
<path d="M32.8801 5.42057L33.2432 6.51597L34.391 6.52495C34.5396 6.52609 34.6012 6.71682 34.4816 6.80569L33.5583 7.49164L33.9045 8.59252C33.9493 8.73495 33.788 8.85303 33.6671 8.76602L32.7333 8.09451L31.7995 8.76602C31.6787 8.85292 31.5173 8.73505 31.5621 8.59252L31.9083 7.49164L30.9849 6.80569C30.8654 6.71682 30.927 6.52609 31.0756 6.52495L32.2234 6.51597L32.5865 5.42057C32.6335 5.27886 32.8329 5.27886 32.8801 5.42057Z" fill="#FFE15A"/>
<path d="M21.1915 25.7883L21.5547 26.8837L22.7024 26.8927C22.851 26.8938 22.9126 27.0846 22.7931 27.1734L21.8697 27.8594L22.2159 28.9603C22.2607 29.1027 22.0994 29.2208 21.9785 29.1338L21.0448 28.4623L20.1111 29.1338C19.9902 29.2207 19.8288 29.1028 19.8737 28.9603L20.2198 27.8594L19.2965 27.1734C19.177 27.0846 19.2385 26.8938 19.3872 26.8927L20.5349 26.8838L20.8981 25.7884C20.945 25.6464 21.1446 25.6464 21.1915 25.7883Z" fill="#FFE15A"/>
<path d="M36.8649 9.72477L36.5017 10.8202L35.354 10.8292C35.2053 10.8303 35.1437 11.021 35.2633 11.1099L36.1866 11.7959L35.8405 12.8967C35.7956 13.0392 35.9569 13.1572 36.0779 13.0702L37.0116 12.3987L37.9453 13.0702C38.0661 13.1571 38.2275 13.0393 38.1827 12.8967L37.8365 11.7959L38.7599 11.1099C38.8794 11.021 38.8178 10.8303 38.6692 10.8292L37.5215 10.8202L37.1583 9.72477C37.1113 9.58295 36.9118 9.58295 36.8649 9.72477Z" fill="#FFE15A"/>
<path d="M16.6197 21.4839L16.2566 22.5793L15.1088 22.5882C14.9602 22.5894 14.8986 22.7801 15.0182 22.869L15.9415 23.5549L15.5953 24.6558C15.5505 24.7985 15.7118 24.9163 15.8327 24.8293L16.7664 24.1578L17.7002 24.8293C17.821 24.9162 17.9824 24.7984 17.9376 24.6558L17.5914 23.5549L18.5147 22.869C18.6343 22.7801 18.5727 22.5894 18.4241 22.5882L17.2763 22.5793L16.9132 21.4839C16.8661 21.3422 16.6667 21.3422 16.6197 21.4839Z" fill="#FFE15A"/>
<path d="M20.8981 5.42057L20.5349 6.51597L19.3872 6.52495C19.2385 6.52609 19.177 6.71682 19.2965 6.80569L20.2198 7.49164L19.8737 8.59252C19.8288 8.73495 19.9901 8.85303 20.1111 8.76602L21.0448 8.09451L21.9785 8.76602C22.0993 8.85292 22.2607 8.73505 22.2159 8.59252L21.8697 7.49164L22.7931 6.80569C22.9126 6.71682 22.851 6.52609 22.7024 6.52495L21.5547 6.51597L21.1915 5.42057C21.1444 5.27886 20.945 5.27886 20.8981 5.42057Z" fill="#FFE15A"/>
<path d="M32.5865 25.7883L32.2234 26.8837L31.0756 26.8927C30.927 26.8938 30.8654 27.0846 30.9849 27.1734L31.9083 27.8594L31.5621 28.9603C31.5173 29.1027 31.6786 29.2208 31.7995 29.1338L32.7332 28.4623L33.6669 29.1338C33.7878 29.2207 33.9492 29.1028 33.9043 28.9603L33.5582 27.8594L34.4815 27.1734C34.6011 27.0846 34.5395 26.8938 34.3908 26.8927L33.2431 26.8838L32.88 25.7884C32.8329 25.6464 32.6335 25.6464 32.5865 25.7883Z" fill="#FFE15A"/>
</svg>
