<svg width="320" height="136" viewBox="0 0 320 136" fill="none" xmlns="http://www.w3.org/2000/svg">
<rect opacity="0.5" width="320" height="136" rx="12" fill="#E5DAE0"/>
<rect x="12" y="74" width="220" height="50" rx="12" fill="white"/>
<path d="M210 107.333C205.398 107.333 201.667 103.602 201.667 99C201.667 94.3975 205.398 90.6666 210 90.6666C214.603 90.6666 218.334 94.3975 218.334 99C218.334 103.602 214.603 107.333 210 107.333ZM209.169 102.333L215.061 96.4408L213.883 95.2625L209.169 99.9766L206.812 97.6191L205.634 98.7975L209.169 102.333Z" fill="#FCB49A"/>
<path opacity="0.5" d="M34.059 97.591C34.059 98.345 33.799 98.9733 33.279 99.476C32.7677 99.97 31.9833 100.217 30.926 100.217H29.184V104H28.001V94.939H30.926C31.9487 94.939 32.7243 95.186 33.253 95.68C33.7903 96.174 34.059 96.811 34.059 97.591ZM30.926 99.242C31.5847 99.242 32.07 99.099 32.382 98.813C32.694 98.527 32.85 98.1197 32.85 97.591C32.85 96.473 32.2087 95.914 30.926 95.914H29.184V99.242H30.926ZM35.0873 100.412C35.0873 99.684 35.2347 99.047 35.5293 98.501C35.824 97.9463 36.227 97.5173 36.7383 97.214C37.2583 96.9107 37.8347 96.759 38.4673 96.759C39.0913 96.759 39.633 96.8933 40.0923 97.162C40.5517 97.4307 40.894 97.7687 41.1193 98.176V96.876H42.3153V104H41.1193V102.674C40.8853 103.09 40.5343 103.437 40.0663 103.714C39.607 103.983 39.0697 104.117 38.4543 104.117C37.8217 104.117 37.2497 103.961 36.7383 103.649C36.227 103.337 35.824 102.899 35.5293 102.336C35.2347 101.773 35.0873 101.131 35.0873 100.412ZM41.1193 100.425C41.1193 99.8877 41.011 99.4197 40.7943 99.021C40.5777 98.6223 40.283 98.319 39.9103 98.111C39.5463 97.8943 39.1433 97.786 38.7013 97.786C38.2593 97.786 37.8563 97.89 37.4923 98.098C37.1283 98.306 36.838 98.6093 36.6213 99.008C36.4047 99.4067 36.2963 99.8747 36.2963 100.412C36.2963 100.958 36.4047 101.435 36.6213 101.842C36.838 102.241 37.1283 102.548 37.4923 102.765C37.8563 102.973 38.2593 103.077 38.7013 103.077C39.1433 103.077 39.5463 102.973 39.9103 102.765C40.283 102.548 40.5777 102.241 40.7943 101.842C41.011 101.435 41.1193 100.962 41.1193 100.425ZM46.8365 104.117C46.2905 104.117 45.8008 104.026 45.3675 103.844C44.9341 103.653 44.5918 103.393 44.3405 103.064C44.0891 102.726 43.9505 102.34 43.9245 101.907H45.1465C45.1811 102.262 45.3458 102.553 45.6405 102.778C45.9438 103.003 46.3381 103.116 46.8235 103.116C47.2741 103.116 47.6295 103.016 47.8895 102.817C48.1495 102.618 48.2795 102.366 48.2795 102.063C48.2795 101.751 48.1408 101.521 47.8635 101.374C47.5861 101.218 47.1571 101.066 46.5765 100.919C46.0478 100.78 45.6145 100.642 45.2765 100.503C44.9471 100.356 44.6611 100.143 44.4185 99.866C44.1845 99.58 44.0675 99.2073 44.0675 98.748C44.0675 98.384 44.1758 98.0503 44.3925 97.747C44.6091 97.4437 44.9168 97.2053 45.3155 97.032C45.7141 96.85 46.1691 96.759 46.6805 96.759C47.4691 96.759 48.1061 96.9583 48.5915 97.357C49.0768 97.7557 49.3368 98.3017 49.3715 98.995H48.1885C48.1625 98.6223 48.0108 98.3233 47.7335 98.098C47.4648 97.8727 47.1008 97.76 46.6415 97.76C46.2168 97.76 45.8788 97.851 45.6275 98.033C45.3761 98.215 45.2505 98.4533 45.2505 98.748C45.2505 98.982 45.3241 99.177 45.4715 99.333C45.6275 99.4803 45.8181 99.6017 46.0435 99.697C46.2775 99.7837 46.5981 99.8833 47.0055 99.996C47.5168 100.135 47.9328 100.273 48.2535 100.412C48.5741 100.542 48.8471 100.741 49.0725 101.01C49.3065 101.279 49.4278 101.63 49.4365 102.063C49.4365 102.453 49.3281 102.804 49.1115 103.116C48.8948 103.428 48.5871 103.675 48.1885 103.857C47.7985 104.03 47.3478 104.117 46.8365 104.117ZM53.6285 104.117C53.0825 104.117 52.5928 104.026 52.1595 103.844C51.7261 103.653 51.3838 103.393 51.1325 103.064C50.8811 102.726 50.7425 102.34 50.7165 101.907H51.9385C51.9731 102.262 52.1378 102.553 52.4325 102.778C52.7358 103.003 53.1301 103.116 53.6155 103.116C54.0661 103.116 54.4215 103.016 54.6815 102.817C54.9415 102.618 55.0715 102.366 55.0715 102.063C55.0715 101.751 54.9328 101.521 54.6555 101.374C54.3781 101.218 53.9491 101.066 53.3685 100.919C52.8398 100.78 52.4065 100.642 52.0685 100.503C51.7391 100.356 51.4531 100.143 51.2105 99.866C50.9765 99.58 50.8595 99.2073 50.8595 98.748C50.8595 98.384 50.9678 98.0503 51.1845 97.747C51.4011 97.4437 51.7088 97.2053 52.1075 97.032C52.5061 96.85 52.9611 96.759 53.4725 96.759C54.2611 96.759 54.8981 96.9583 55.3835 97.357C55.8688 97.7557 56.1288 98.3017 56.1635 98.995H54.9805C54.9545 98.6223 54.8028 98.3233 54.5255 98.098C54.2568 97.8727 53.8928 97.76 53.4335 97.76C53.0088 97.76 52.6708 97.851 52.4195 98.033C52.1681 98.215 52.0425 98.4533 52.0425 98.748C52.0425 98.982 52.1161 99.177 52.2635 99.333C52.4195 99.4803 52.6101 99.6017 52.8355 99.697C53.0695 99.7837 53.3901 99.8833 53.7975 99.996C54.3088 100.135 54.7248 100.273 55.0455 100.412C55.3661 100.542 55.6391 100.741 55.8645 101.01C56.0985 101.279 56.2198 101.63 56.2285 102.063C56.2285 102.453 56.1201 102.804 55.9035 103.116C55.6868 103.428 55.3791 103.675 54.9805 103.857C54.5905 104.03 54.1398 104.117 53.6285 104.117ZM67.3885 96.876L65.1655 104H63.9435L62.2275 98.345L60.5115 104H59.2895L57.0535 96.876H58.2625L59.9005 102.856L61.6685 96.876H62.8775L64.6065 102.869L66.2185 96.876H67.3885ZM71.6695 104.117C71.0022 104.117 70.3955 103.965 69.8495 103.662C69.3122 103.359 68.8875 102.93 68.5755 102.375C68.2722 101.812 68.1205 101.162 68.1205 100.425C68.1205 99.697 68.2765 99.0557 68.5885 98.501C68.9092 97.9377 69.3425 97.5087 69.8885 97.214C70.4345 96.9107 71.0455 96.759 71.7215 96.759C72.3975 96.759 73.0085 96.9107 73.5545 97.214C74.1005 97.5087 74.5295 97.9333 74.8415 98.488C75.1622 99.0427 75.3225 99.6883 75.3225 100.425C75.3225 101.162 75.1579 101.812 74.8285 102.375C74.5079 102.93 74.0702 103.359 73.5155 103.662C72.9609 103.965 72.3455 104.117 71.6695 104.117ZM71.6695 103.077C72.0942 103.077 72.4929 102.977 72.8655 102.778C73.2382 102.579 73.5372 102.28 73.7625 101.881C73.9965 101.482 74.1135 100.997 74.1135 100.425C74.1135 99.853 74.0009 99.3677 73.7755 98.969C73.5502 98.5703 73.2555 98.2757 72.8915 98.085C72.5275 97.8857 72.1332 97.786 71.7085 97.786C71.2752 97.786 70.8765 97.8857 70.5125 98.085C70.1572 98.2757 69.8712 98.5703 69.6545 98.969C69.4379 99.3677 69.3295 99.853 69.3295 100.425C69.3295 101.006 69.4335 101.495 69.6415 101.894C69.8582 102.293 70.1442 102.592 70.4995 102.791C70.8549 102.982 71.2449 103.077 71.6695 103.077ZM78.061 98.033C78.269 97.6257 78.5636 97.3093 78.945 97.084C79.335 96.8587 79.8073 96.746 80.362 96.746V97.968H80.05C78.724 97.968 78.061 98.6873 78.061 100.126V104H76.878V96.876H78.061V98.033ZM81.2856 100.412C81.2856 99.684 81.4329 99.047 81.7276 98.501C82.0222 97.9463 82.4252 97.5173 82.9366 97.214C83.4566 96.9107 84.0372 96.759 84.6786 96.759C85.2332 96.759 85.7489 96.889 86.2256 97.149C86.7022 97.4003 87.0662 97.734 87.3176 98.15V94.38H88.5136V104H87.3176V102.661C87.0836 103.086 86.7369 103.437 86.2776 103.714C85.8182 103.983 85.2809 104.117 84.6656 104.117C84.0329 104.117 83.4566 103.961 82.9366 103.649C82.4252 103.337 82.0222 102.899 81.7276 102.336C81.4329 101.773 81.2856 101.131 81.2856 100.412ZM87.3176 100.425C87.3176 99.8877 87.2092 99.4197 86.9926 99.021C86.7759 98.6223 86.4812 98.319 86.1086 98.111C85.7446 97.8943 85.3416 97.786 84.8996 97.786C84.4576 97.786 84.0546 97.89 83.6906 98.098C83.3266 98.306 83.0362 98.6093 82.8196 99.008C82.6029 99.4067 82.4946 99.8747 82.4946 100.412C82.4946 100.958 82.6029 101.435 82.8196 101.842C83.0362 102.241 83.3266 102.548 83.6906 102.765C84.0546 102.973 84.4576 103.077 84.8996 103.077C85.3416 103.077 85.7446 102.973 86.1086 102.765C86.4812 102.548 86.7759 102.241 86.9926 101.842C87.2092 101.435 87.3176 100.962 87.3176 100.425Z" fill="#412E46"/>
<rect x="308" y="42" width="60" height="60" rx="16" transform="rotate(90 308 42)" fill="#7B4865"/>
<g clip-path="url(#clip0)">
<path d="M278.001 84C274.801 84 271.801 82.8 269.501 80.5C264.801 75.8 264.801 68.2 269.501 63.5C271.801 61.2 274.801 60 278.001 60C281.201 60 284.201 61.2 286.501 63.5C291.201 68.2 291.201 75.8 286.501 80.5C284.201 82.8 281.201 84 278.001 84ZM278.001 62C275.301 62 272.801 63 270.901 64.9C267.001 68.8 267.001 75.2 270.901 79.1C272.801 81 275.301 82 278.001 82C280.701 82 283.201 81 285.101 79.1C289.001 75.2 289.001 68.9 285.101 65C283.201 63 280.701 62 278.001 62Z" fill="#F9F5F0"/>
<path d="M278.001 78C277.401 78 277.001 77.6 277.001 77V67C277.001 66.4 277.401 66 278.001 66C278.601 66 279.001 66.4 279.001 67V77C279.001 77.6 278.601 78 278.001 78Z" fill="#F9F5F0"/>
<path d="M283 73H273C272.4 73 272 72.6 272 72C272 71.4 272.4 71 273 71H283C283.6 71 284 71.4 284 72C284 72.6 283.6 73 283 73Z" fill="#F9F5F0"/>
</g>
<rect x="12" y="12" width="220" height="50" rx="12" fill="white"/>
<path opacity="0.5" d="M34.184 33.901V36.93H37.486V37.905H34.184V41.025H37.876V42H33.001V32.926H37.876V33.901H34.184ZM48.233 34.746C48.7877 34.746 49.2817 34.863 49.715 35.097C50.1484 35.3223 50.4907 35.6647 50.742 36.124C50.9934 36.5833 51.119 37.1423 51.119 37.801V42H49.949V37.97C49.949 37.2593 49.7714 36.7177 49.416 36.345C49.0694 35.9637 48.597 35.773 47.999 35.773C47.3837 35.773 46.894 35.9723 46.53 36.371C46.166 36.761 45.984 37.3287 45.984 38.074V42H44.814V37.97C44.814 37.2593 44.6364 36.7177 44.281 36.345C43.9344 35.9637 43.462 35.773 42.864 35.773C42.2487 35.773 41.759 35.9723 41.395 36.371C41.031 36.761 40.849 37.3287 40.849 38.074V42H39.666V34.876H40.849V35.903C41.083 35.5303 41.395 35.2443 41.785 35.045C42.1837 34.8457 42.6214 34.746 43.098 34.746C43.696 34.746 44.2247 34.8803 44.684 35.149C45.1434 35.4177 45.4857 35.812 45.711 36.332C45.9104 35.8293 46.2397 35.4393 46.699 35.162C47.1584 34.8847 47.6697 34.746 48.233 34.746ZM52.6176 38.412C52.6176 37.684 52.7649 37.047 53.0596 36.501C53.3543 35.9463 53.7573 35.5173 54.2686 35.214C54.7886 34.9107 55.3649 34.759 55.9976 34.759C56.6216 34.759 57.1633 34.8933 57.6226 35.162C58.0819 35.4307 58.4243 35.7687 58.6496 36.176V34.876H59.8456V42H58.6496V40.674C58.4156 41.09 58.0646 41.4367 57.5966 41.714C57.1373 41.9827 56.5999 42.117 55.9846 42.117C55.3519 42.117 54.7799 41.961 54.2686 41.649C53.7573 41.337 53.3543 40.8993 53.0596 40.336C52.7649 39.7727 52.6176 39.1313 52.6176 38.412ZM58.6496 38.425C58.6496 37.8877 58.5413 37.4197 58.3246 37.021C58.1079 36.6223 57.8133 36.319 57.4406 36.111C57.0766 35.8943 56.6736 35.786 56.2316 35.786C55.7896 35.786 55.3866 35.89 55.0226 36.098C54.6586 36.306 54.3683 36.6093 54.1516 37.008C53.9349 37.4067 53.8266 37.8747 53.8266 38.412C53.8266 38.958 53.9349 39.4347 54.1516 39.842C54.3683 40.2407 54.6586 40.5483 55.0226 40.765C55.3866 40.973 55.7896 41.077 56.2316 41.077C56.6736 41.077 57.0766 40.973 57.4406 40.765C57.8133 40.5483 58.1079 40.2407 58.3246 39.842C58.5413 39.4347 58.6496 38.9623 58.6496 38.425ZM62.4558 33.719C62.2304 33.719 62.0398 33.641 61.8838 33.485C61.7278 33.329 61.6498 33.1383 61.6498 32.913C61.6498 32.6877 61.7278 32.497 61.8838 32.341C62.0398 32.185 62.2304 32.107 62.4558 32.107C62.6724 32.107 62.8544 32.185 63.0018 32.341C63.1578 32.497 63.2358 32.6877 63.2358 32.913C63.2358 33.1383 63.1578 33.329 63.0018 33.485C62.8544 33.641 62.6724 33.719 62.4558 33.719ZM63.0278 34.876V42H61.8448V34.876H63.0278ZM66.227 32.38V42H65.044V32.38H66.227Z" fill="#412E46"/>
<path d="M210 45.3333C205.398 45.3333 201.667 41.6025 201.667 37C201.667 32.3975 205.398 28.6666 210 28.6666C214.603 28.6666 218.334 32.3975 218.334 37C218.334 41.6025 214.603 45.3333 210 45.3333ZM209.169 40.3333L215.061 34.4408L213.883 33.2625L209.169 37.9766L206.812 35.6191L205.634 36.7975L209.169 40.3333Z" fill="#FCB49A"/>
<defs>
<clipPath id="clip0">
<rect width="24" height="24" fill="white" transform="translate(266 60)"/>
</clipPath>
</defs>
</svg>
