<svg width="320" height="72" viewBox="0 0 320 72" fill="none" xmlns="http://www.w3.org/2000/svg">
<rect opacity="0.5" width="320" height="72" rx="12" fill="#E5DAE0"/>
<rect x="12.5" y="12.5" width="295" height="47" rx="11.5" stroke="#979592" stroke-dasharray="2 2"/>
<path d="M101.707 33.4067L102.65 34.35C103.084 34.7833 103.427 35.2978 103.662 35.864C103.896 36.4302 104.017 37.0371 104.017 37.65C104.017 38.2629 103.896 38.8697 103.662 39.436C103.427 40.0022 103.084 40.5166 102.65 40.95L102.414 41.1853C101.539 42.0605 100.352 42.5522 99.1142 42.5522C97.8764 42.5522 96.6894 42.0605 95.8142 41.1853C94.939 40.3101 94.4473 39.1231 94.4473 37.8853C94.4473 36.6476 94.939 35.4605 95.8142 34.5853L96.7575 35.5287C96.4458 35.8377 96.1981 36.2053 96.0288 36.6103C95.8595 37.0153 95.7718 37.4497 95.7709 37.8887C95.7699 38.3276 95.8556 38.7625 96.0232 39.1682C96.1907 39.574 96.4368 39.9426 96.7472 40.253C97.0576 40.5634 97.4262 40.8094 97.8319 40.977C98.2377 41.1445 98.6725 41.2303 99.1115 41.2293C99.5504 41.2283 99.9849 41.1407 100.39 40.9714C100.795 40.8021 101.162 40.5544 101.472 40.2427L101.708 40.0067C102.332 39.3816 102.683 38.5339 102.683 37.65C102.683 36.7661 102.332 35.9184 101.708 35.2933L100.764 34.35L101.708 33.4073L101.707 33.4067ZM106.186 37.414L105.243 36.4713C105.555 36.1623 105.802 35.7947 105.972 35.3897C106.141 34.9847 106.229 34.5503 106.229 34.1113C106.23 33.6723 106.145 33.2375 105.977 32.8318C105.81 32.426 105.564 32.0574 105.253 31.747C104.943 31.4366 104.574 31.1906 104.168 31.023C103.763 30.8555 103.328 30.7697 102.889 30.7707C102.45 30.7716 102.015 30.8593 101.61 31.0286C101.205 31.1979 100.838 31.4456 100.529 31.7573L100.293 31.9933C99.6679 32.6184 99.3169 33.4661 99.3169 34.35C99.3169 35.2339 99.6679 36.0816 100.293 36.7067L101.236 37.65L100.293 38.5927L99.3502 37.65C98.9168 37.2166 98.573 36.7022 98.3384 36.136C98.1039 35.5697 97.9832 34.9629 97.9832 34.35C97.9832 33.7371 98.1039 33.1302 98.3384 32.564C98.573 31.9978 98.9168 31.4833 99.3502 31.05L99.5862 30.8147C100.461 29.9394 101.648 29.4478 102.886 29.4478C104.124 29.4478 105.311 29.9394 106.186 30.8147C107.061 31.6899 107.553 32.8769 107.553 34.1147C107.553 35.3524 107.061 36.5394 106.186 37.4147L106.186 37.414Z" fill="#412E46"/>
<path d="M121.888 34.266L119.2 41H117.87L115.14 34.266H116.624L118.542 39.46L120.474 34.266H121.888ZM123.796 36.94H127.478C127.46 36.436 127.292 36.0253 126.974 35.708C126.657 35.3813 126.209 35.218 125.63 35.218C125.108 35.218 124.678 35.3907 124.342 35.736C124.006 36.072 123.824 36.4733 123.796 36.94ZM127.674 38.69L128.808 39.082C128.612 39.7073 128.248 40.2207 127.716 40.622C127.184 41.014 126.54 41.21 125.784 41.21C124.842 41.21 124.039 40.888 123.376 40.244C122.723 39.5907 122.396 38.7133 122.396 37.612C122.396 36.5853 122.714 35.736 123.348 35.064C123.983 34.392 124.739 34.056 125.616 34.056C126.634 34.056 127.427 34.378 127.996 35.022C128.566 35.6567 128.85 36.5107 128.85 37.584C128.85 37.752 128.841 37.892 128.822 38.004H123.754C123.764 38.6013 123.96 39.0913 124.342 39.474C124.734 39.8567 125.215 40.048 125.784 40.048C126.746 40.048 127.376 39.5953 127.674 38.69ZM131.846 41H130.53V30.864H131.846V41ZM139.853 34.266L137.165 41H135.835L133.105 34.266H134.589L136.507 39.46L138.439 34.266H139.853ZM141.761 36.94H145.443C145.424 36.436 145.256 36.0253 144.939 35.708C144.622 35.3813 144.174 35.218 143.595 35.218C143.072 35.218 142.643 35.3907 142.307 35.736C141.971 36.072 141.789 36.4733 141.761 36.94ZM145.639 38.69L146.773 39.082C146.577 39.7073 146.213 40.2207 145.681 40.622C145.149 41.014 144.505 41.21 143.749 41.21C142.806 41.21 142.004 40.888 141.341 40.244C140.688 39.5907 140.361 38.7133 140.361 37.612C140.361 36.5853 140.678 35.736 141.313 35.064C141.948 34.392 142.704 34.056 143.581 34.056C144.598 34.056 145.392 34.378 145.961 35.022C146.53 35.6567 146.815 36.5107 146.815 37.584C146.815 37.752 146.806 37.892 146.787 38.004H141.719C141.728 38.6013 141.924 39.0913 142.307 39.474C142.699 39.8567 143.18 40.048 143.749 40.048C144.71 40.048 145.34 39.5953 145.639 38.69ZM150.259 32.138V34.266H151.715V35.456H150.259V38.956C150.259 39.2733 150.329 39.5067 150.469 39.656C150.618 39.8053 150.861 39.88 151.197 39.88C151.393 39.88 151.566 39.8613 151.715 39.824V40.944C151.491 41.028 151.192 41.07 150.819 41.07C150.24 41.07 149.783 40.902 149.447 40.566C149.111 40.23 148.943 39.7587 148.943 39.152V35.456H147.655V34.266H148.019C148.364 34.266 148.621 34.1727 148.789 33.986C148.966 33.79 149.055 33.538 149.055 33.23V32.138H150.259ZM153.612 40.79C153.425 40.6033 153.332 40.3747 153.332 40.104C153.332 39.8333 153.425 39.6047 153.612 39.418C153.798 39.222 154.027 39.124 154.298 39.124C154.568 39.124 154.797 39.222 154.984 39.418C155.18 39.6047 155.278 39.8333 155.278 40.104C155.278 40.3747 155.18 40.6033 154.984 40.79C154.797 40.9767 154.568 41.07 154.298 41.07C154.027 41.07 153.798 40.9767 153.612 40.79ZM158.698 41H157.382V30.864H158.698V41ZM162.238 41H160.936V34.266H162.238V41ZM160.908 32.39C160.731 32.2033 160.642 31.9793 160.642 31.718C160.642 31.4567 160.731 31.2327 160.908 31.046C161.095 30.8593 161.319 30.766 161.58 30.766C161.842 30.766 162.066 30.8593 162.252 31.046C162.439 31.2233 162.532 31.4473 162.532 31.718C162.532 31.9793 162.439 32.2033 162.252 32.39C162.066 32.5673 161.842 32.656 161.58 32.656C161.319 32.656 161.095 32.5673 160.908 32.39ZM169.433 31.074L164.631 41H163.357L168.159 31.074H169.433ZM174.068 34.266H175.426L177.176 39.334L178.66 34.266H180.046L177.862 41H176.504L174.712 35.876L172.962 41H171.576L169.364 34.266H170.806L172.318 39.334L174.068 34.266ZM182.093 36.94H185.775C185.756 36.436 185.588 36.0253 185.271 35.708C184.954 35.3813 184.506 35.218 183.927 35.218C183.404 35.218 182.975 35.3907 182.639 35.736C182.303 36.072 182.121 36.4733 182.093 36.94ZM185.971 38.69L187.105 39.082C186.909 39.7073 186.545 40.2207 186.013 40.622C185.481 41.014 184.837 41.21 184.081 41.21C183.138 41.21 182.336 40.888 181.673 40.244C181.02 39.5907 180.693 38.7133 180.693 37.612C180.693 36.5853 181.01 35.736 181.645 35.064C182.28 34.392 183.036 34.056 183.913 34.056C184.93 34.056 185.724 34.378 186.293 35.022C186.862 35.6567 187.147 36.5107 187.147 37.584C187.147 37.752 187.138 37.892 187.119 38.004H182.051C182.06 38.6013 182.256 39.0913 182.639 39.474C183.031 39.8567 183.512 40.048 184.081 40.048C185.042 40.048 185.672 39.5953 185.971 38.69ZM190.143 41H188.827V30.864H190.143V41ZM195.21 35.274C194.64 35.274 194.155 35.4793 193.754 35.89C193.362 36.3007 193.166 36.8793 193.166 37.626C193.166 38.3633 193.362 38.942 193.754 39.362C194.155 39.782 194.645 39.992 195.224 39.992C195.784 39.992 196.208 39.852 196.498 39.572C196.796 39.292 196.997 38.97 197.1 38.606L198.262 39.11C198.075 39.67 197.72 40.16 197.198 40.58C196.684 41 196.026 41.21 195.224 41.21C194.244 41.21 193.432 40.8693 192.788 40.188C192.144 39.5067 191.822 38.6527 191.822 37.626C191.822 36.5807 192.144 35.7267 192.788 35.064C193.432 34.392 194.239 34.056 195.21 34.056C196.031 34.056 196.694 34.266 197.198 34.686C197.711 35.106 198.047 35.61 198.206 36.198L197.016 36.702C196.913 36.31 196.717 35.974 196.428 35.694C196.138 35.414 195.732 35.274 195.21 35.274ZM201.123 39.404C201.534 39.824 202.033 40.034 202.621 40.034C203.209 40.034 203.704 39.824 204.105 39.404C204.516 38.9747 204.721 38.382 204.721 37.626C204.721 36.8793 204.516 36.296 204.105 35.876C203.704 35.4467 203.209 35.232 202.621 35.232C202.033 35.232 201.534 35.4467 201.123 35.876C200.722 36.296 200.521 36.8793 200.521 37.626C200.521 38.382 200.722 38.9747 201.123 39.404ZM200.143 35.078C200.797 34.3967 201.623 34.056 202.621 34.056C203.62 34.056 204.441 34.3967 205.085 35.078C205.739 35.75 206.065 36.5993 206.065 37.626C206.065 38.662 205.743 39.5207 205.099 40.202C204.455 40.874 203.629 41.21 202.621 41.21C201.613 41.21 200.787 40.874 200.143 40.202C199.499 39.5207 199.177 38.662 199.177 37.626C199.177 36.5993 199.499 35.75 200.143 35.078ZM209.051 41H207.749V34.266H209.009V35.162C209.214 34.8073 209.504 34.5367 209.877 34.35C210.25 34.1633 210.642 34.07 211.053 34.07C211.492 34.07 211.893 34.1773 212.257 34.392C212.621 34.6067 212.892 34.924 213.069 35.344C213.536 34.4947 214.287 34.07 215.323 34.07C215.967 34.07 216.513 34.2893 216.961 34.728C217.418 35.1667 217.647 35.8013 217.647 36.632V41H216.345V36.772C216.345 36.3053 216.224 35.932 215.981 35.652C215.748 35.372 215.393 35.232 214.917 35.232C214.46 35.232 214.086 35.3953 213.797 35.722C213.508 36.0393 213.363 36.4407 213.363 36.926V41H212.047V36.772C212.047 36.3053 211.926 35.932 211.683 35.652C211.45 35.372 211.095 35.232 210.619 35.232C210.152 35.232 209.774 35.3907 209.485 35.708C209.196 36.0253 209.051 36.436 209.051 36.94V41ZM220.607 36.94H224.289C224.27 36.436 224.102 36.0253 223.785 35.708C223.467 35.3813 223.019 35.218 222.441 35.218C221.918 35.218 221.489 35.3907 221.153 35.736C220.817 36.072 220.635 36.4733 220.607 36.94ZM224.485 38.69L225.619 39.082C225.423 39.7073 225.059 40.2207 224.527 40.622C223.995 41.014 223.351 41.21 222.595 41.21C221.652 41.21 220.849 40.888 220.187 40.244C219.533 39.5907 219.207 38.7133 219.207 37.612C219.207 36.5853 219.524 35.736 220.159 35.064C220.793 34.392 221.549 34.056 222.427 34.056C223.444 34.056 224.237 34.378 224.807 35.022C225.376 35.6567 225.661 36.5107 225.661 37.584C225.661 37.752 225.651 37.892 225.633 38.004H220.565C220.574 38.6013 220.77 39.0913 221.153 39.474C221.545 39.8567 222.025 40.048 222.595 40.048C223.556 40.048 224.186 39.5953 224.485 38.69Z" fill="#412E46"/>
</svg>
