<svg width="320" height="72" viewBox="0 0 320 72" fill="none" xmlns="http://www.w3.org/2000/svg">
<rect opacity="0.5" width="320" height="72" rx="12" fill="#E5DAE0"/>
<circle cx="154" cy="36" r="24" fill="#7B4865"/>
<path d="M147.334 40.1667V44.3333H145.667V28.5H161.615C161.688 28.4999 161.76 28.519 161.823 28.5553C161.887 28.5917 161.939 28.6441 161.976 28.7072C162.013 28.7703 162.032 28.842 162.033 28.9151C162.033 28.9881 162.014 29.0599 161.978 29.1233L159 34.3333L161.978 39.5433C162.014 39.6068 162.033 39.6786 162.033 39.7516C162.032 39.8247 162.013 39.8963 161.976 39.9595C161.939 40.0226 161.887 40.075 161.823 40.1113C161.76 40.1477 161.688 40.1668 161.615 40.1667H147.334ZM147.334 30.1667V38.5H159.462L157.08 34.3333L159.462 30.1667H147.334Z" fill="white"/>
</svg>
