<svg width="400" height="480" viewBox="0 0 400 480" fill="none" xmlns="http://www.w3.org/2000/svg">
<mask id="mask0" mask-type="alpha" maskUnits="userSpaceOnUse" x="0" y="0" width="400" height="480">
<rect opacity="0.2" width="400" height="480" rx="36" fill="#FCB49A"/>
</mask>
<g mask="url(#mask0)">
<rect width="400" height="480" rx="36" fill="#7B4865"/>
<path fill-rule="evenodd" clip-rule="evenodd" d="M80.5716 107.883C78.4888 109.086 76.6266 110.67 74.8475 112.758C57.8205 132.873 84.2233 191.455 118.454 234.185C150.895 274.7 192.85 307.643 236.614 326.971L240.123 328.525L240.091 324.688C239.795 293.068 231.503 243.169 193.62 185.116C165.081 141.357 119.502 105.509 92.042 105.185C87.5608 105.129 83.8149 106.011 80.5716 107.883ZM-19.8656 281.29C-21.8551 282.438 -23.4128 284.191 -24.5918 286.648C-29.1164 295.993 -29.1079 321.445 -0.394756 357.49C25.8671 390.461 65.8161 417.706 84.5471 425.74L89.7507 427.885L89.2876 423.733C86.0895 394.766 72.2679 361.565 49.2776 327.751C21.6064 287.003 -4.05257 278.383 -14.8376 279.708C-16.8002 279.947 -18.446 280.47 -19.8656 281.29ZM199.618 452.68C173.806 467.583 147.536 471.57 116.949 465.231L114.672 464.756L114.053 466.986C108.442 487.133 96.9637 503.769 79.9176 516.433C78.0134 517.849 75.9858 519.171 73.8513 520.404C56.4534 530.448 31.5012 535.162 13.9479 536.25C9.83827 536.503 1.37888 537.022 -8.49928 536.64C-36.0906 519.912 -60.7343 499.099 -81.7866 474.768C-79.9882 470.178 -76.7781 466.094 -73.369 464.126C-62.804 458.591 -59.6069 463.147 -52.7097 474.902C-43.2313 491.032 -28.9256 515.403 22.198 511.606C37.0838 510.515 49.3274 505.016 56.985 500.595C59.8552 498.938 62.2097 497.344 63.96 496.045C75.5199 487.47 83.6478 474.627 87.4818 458.893L88.0004 456.776L85.9518 456.004C81.1214 454.194 76.2326 452.212 71.2767 450.089C49.6239 440.823 5.98923 411.286 -23.1808 374.666C-51.8879 338.632 -61.8311 302.242 -49.7828 277.332C-45.9936 269.513 -40.1271 263.138 -32.8012 258.909C-27.7342 255.983 -22.0901 254.129 -16.0216 253.393C12.9139 249.835 45.4048 271.197 73.1325 311.996C97.1401 347.357 112.658 385.195 116.838 418.566C117.563 424.44 117.955 430.216 117.995 435.742L118.005 437.649L119.848 438.114C145.692 444.588 166.185 442.298 186.298 430.686C193.468 426.546 200.768 421.147 208.62 414.191C222.541 401.858 232.38 382.74 237.079 358.934L237.475 356.915L233.145 355.23C182.104 335.216 133.293 298.342 95.7026 251.396C87.1151 240.686 12.9947 145.329 53.7174 97.2418C57.8046 92.4038 62.5052 88.437 67.6862 85.4457C75.7272 80.8033 84.8383 78.5169 94.7972 78.6324C136.793 79.1273 188.421 124.852 217.718 169.757C253.253 224.223 271.047 283.327 267.829 336.168L267.706 338.181L269.659 338.692C303.086 347.508 332.052 345.654 353.408 333.324C354.392 332.756 355.365 332.167 356.309 331.553C376.055 318.803 388.431 298.289 392.087 272.221C400.917 209.311 354.93 123.485 265.706 28.3396L267.477 27.1242C368.722 124.306 421.023 222.072 417.324 275.012C414.997 308.312 399.263 334.592 370.562 353.104C369.142 354.02 367.715 354.899 366.265 355.737C339.469 371.207 304.874 374.631 266.225 365.623L263.83 365.064L263.263 367.456C256.722 394.846 244.068 417.462 226.663 432.88C217.697 440.824 208.602 447.493 199.618 452.68Z" fill="white"/>
</g>
</svg>
