<svg width="673" height="611" viewBox="0 0 673 611" fill="none" xmlns="http://www.w3.org/2000/svg"><path fill-rule="evenodd" clip-rule="evenodd" d="M293.572 137.883c-2.083 1.203-3.945 2.787-5.725 4.875-17.027 20.115 9.376 78.697 43.607 121.427 32.441 40.515 74.396 73.458 118.16 92.786l3.509 1.554-.032-3.837c-.296-31.62-8.588-81.519-46.471-139.572-28.539-43.759-74.118-79.607-101.578-79.931-4.481-.056-8.227.826-11.47 2.698zM193.134 311.29c-1.989 1.148-3.547 2.901-4.726 5.358-4.524 9.345-4.516 34.797 24.197 70.842 26.262 32.971 66.211 60.216 84.942 68.25l5.204 2.145-.463-4.152c-3.198-28.967-17.02-62.168-40.01-95.982-27.672-40.748-53.331-49.368-64.116-48.043-1.962.239-3.608.762-5.028 1.582zm219.484 171.39c-25.812 14.903-52.082 18.89-82.669 12.551l-2.277-.475-.619 2.23c-5.611 20.147-17.089 36.783-34.135 49.447a62.846 62.846 0 01-6.067 3.971c-17.398 10.044-42.35 14.758-59.903 15.846-4.11.253-12.569.772-22.447.39a307.674 307.674 0 01-73.288-61.872c1.799-4.59 5.009-8.674 8.418-10.642 10.565-5.535 13.762-.979 20.659 10.776 9.479 16.13 23.784 40.501 74.908 36.704 14.886-1.091 27.129-6.59 34.787-11.011a73.364 73.364 0 006.975-4.55c11.56-8.575 19.688-21.418 23.522-37.152l.518-2.117-2.048-.772a342.599 342.599 0 01-14.675-5.915c-21.653-9.266-65.288-38.803-94.458-75.423-28.707-36.034-38.65-72.424-26.602-97.334 3.789-7.819 9.656-14.194 16.982-18.423 5.067-2.926 10.711-4.78 16.779-5.516 28.936-3.558 61.427 17.804 89.155 58.603 24.007 35.361 39.525 73.199 43.705 106.57.725 5.874 1.117 11.65 1.157 17.176l.01 1.907 1.843.465c25.844 6.474 46.337 4.184 66.45-7.428 7.17-4.14 14.47-9.539 22.322-16.495 13.921-12.333 23.76-31.451 28.459-55.257l.396-2.019-4.33-1.685c-51.041-20.014-99.852-56.888-137.442-103.834-8.588-10.71-82.708-106.067-41.986-154.154 4.088-4.838 8.788-8.805 13.969-11.796 8.041-4.643 17.152-6.929 27.111-6.814 41.996.495 93.624 46.22 122.921 91.125 35.535 54.466 53.329 113.57 50.111 166.411l-.123 2.013 1.953.511c33.427 8.816 62.393 6.962 83.749-5.368a64.079 64.079 0 002.901-1.771c19.746-12.75 32.122-33.264 35.778-59.332 8.83-62.91-37.157-148.736-126.381-243.881l1.771-1.216c101.245 97.182 153.546 194.948 149.847 247.888-2.327 33.3-18.061 59.58-46.762 78.092-1.42.916-2.847 1.795-4.297 2.633-26.796 15.47-61.391 18.894-100.04 9.886l-2.395-.559-.567 2.392c-6.541 27.39-19.195 50.006-36.6 65.424-8.966 7.944-18.061 14.613-27.045 19.8z" fill="#fff"/></svg>