<svg width="119" height="40" viewBox="0 0 119 40" fill="none" xmlns="http://www.w3.org/2000/svg"><g clip-path="url(#clip0)" fill="#38303A"><path fill-rule="evenodd" clip-rule="evenodd" d="M5.88 20.84a11.13 11.13 0 10-5.63-7.65c.14-.1.31-.17.45-.17.42.01.44.21.44.7 0 .66.01 1.66 1.65 2.45a2.93 2.93 0 001.55.27c.51-.06.99-.31 1.38-.73l.06-.05-.05-.07a10.7 10.7 0 01-.35-.44c-.5-.67-1.31-2.35-1.56-4-.24-1.62.1-2.91.91-3.47a1.51 1.51 0 011.46-.13c.95.4 1.57 1.64 1.7 3.38A9.02 9.02 0 017.34 15c-.08.2-.17.38-.27.55l-.03.06.05.05c.68.65 1.35.95 2.17.95a3.46 3.46 0 002.83-1.3l.04-.06-.1-.13a12.1 12.1 0 01-2.38-5.64c-.07-.48-.66-4.74 1.45-5.5a1.85 1.85 0 011.59.16c1.27.77 2.05 3.09 2.15 5a10 10 0 01-1.4 6l-.05.07.05.05c.87.86 1.8 1.32 2.67 1.32h.12a2.88 2.88 0 002.15-1.19c1.38-1.78 1.5-5.24.44-9.75h.08c1.38 4.78 1.25 8.72.2 10.29a3.43 3.43 0 01-2.81 1.57H16.1a4.8 4.8 0 01-3.24-1.47l-.07-.06-.06.06a4.43 4.43 0 01-3.47 1.5 3.93 3.93 0 01-2.75-1.09l-.06-.06-.06.06a3.21 3.21 0 01-2.18.93c-.71 0-1.56-.3-2.12-.57-.13-.07-.4-.2-.68-.38 1 1.81 2.5 3.37 4.46 4.43zm5.59-16c.09-.04.17-.06.26-.06a.8.8 0 01.4.12c.84.5 1.6 2.42 1.7 4.27a9.26 9.26 0 01-1.05 5.12l-.06.12-.08-.11c-1-1.37-1.7-3.13-1.98-4.96-.3-1.92-.07-4.2.8-4.5zM5.34 8.41a.42.42 0 01.24-.08.5.5 0 01.18.04c.35.15.99.87 1.12 2.61a7.88 7.88 0 01-.48 3.67l-.06.14-.12-.16a9.47 9.47 0 01-1.4-3.61c-.24-1.62.21-2.4.52-2.61zM43.04 4.67h-2.57c-.2 0-.39.11-.48.28l-5.09 9.68c-.19.35-.5.35-.68 0l-5.08-9.68a.54.54 0 00-.48-.28h-2.6c-.4 0-.66.4-.47.74l7.96 14.53c.09.17.27.28.48.28h1.16c.2 0 .39-.11.48-.28L43.52 5.4c.18-.33-.08-.73-.48-.73zM86.93 4.68h-2.56c-.2 0-.4.1-.49.28l-5.09 9.67c-.18.36-.5.36-.68 0l-5.08-9.67a.54.54 0 00-.48-.28h-2.59c-.4 0-.66.4-.48.73l7.96 14.54c.1.17.28.27.48.27h1.17c.2 0 .38-.1.47-.28l7.85-14.53c.18-.33-.07-.73-.48-.73zM57.73 17.15h-8.96c-.3 0-.54-.22-.54-.5v-2.29c0-.27.24-.5.54-.5h8.26c.3 0 .54-.23.54-.5v-2.03c0-.28-.24-.5-.54-.5h-8.24c-.3 0-.54-.23-.54-.51V8.28c0-.28.24-.5.54-.5h8.93c.3 0 .54-.23.54-.51V5.2c0-.29-.24-.51-.54-.51h-12.2c-.3 0-.54.22-.54.5v14.49c0 .28.24.5.53.5h12.22c.3 0 .54-.22.54-.5v-2.02c0-.28-.24-.5-.54-.5zM101.58 17.15h-8.96c-.3 0-.54-.22-.54-.5v-2.29c0-.27.24-.5.54-.5h8.26c.3 0 .54-.23.54-.5v-2.03c0-.28-.25-.5-.54-.5h-8.24c-.3 0-.54-.23-.54-.51V8.28c0-.28.24-.5.54-.5h8.93c.3 0 .54-.23.54-.51V5.2c0-.29-.24-.51-.54-.51H89.36c-.3 0-.54.22-.54.5v14.49c0 .28.24.5.54.5h12.22c.3 0 .54-.22.54-.5v-2.02c0-.28-.25-.5-.54-.5zM118.4 4.67h-13.95c-.3 0-.54.22-.54.5v2.06c0 .27.24.5.54.5h4.83c.3 0 .54.23.54.5v11.48c0 .28.24.5.54.5h2.17c.3 0 .54-.22.54-.5V8.2c0-.28.24-.5.54-.5h4.8c.3 0 .54-.23.54-.51V5.17c0-.27-.25-.5-.55-.5zM73.1 17.12h-8.56c-.3 0-.54-.22-.54-.5V5.16c0-.28-.24-.5-.53-.5h-2.23c-.3 0-.54.22-.54.5v14.52c0 .28.24.5.54.5H73.1c.3 0 .54-.22.54-.5v-2.05c0-.28-.25-.5-.54-.5z"/><path d="M1.32 26.04c0-.27.22-.49.49-.49H8c3.53 0 5.14 1.83 5.14 4.2 0 2.79-1.92 4.34-5.07 4.34H3.83a.48.48 0 00-.49.49v4.72c0 .26-.22.48-.48.48H1.8a.48.48 0 01-.48-.48V26.04zm2.02 5.87c0 .27.22.49.49.49h3.96c1.95 0 3.32-.58 3.32-2.63 0-1.61-1.09-2.53-3.32-2.53H3.83a.48.48 0 00-.49.48v4.2zM16.53 25.55h1.02c.27 0 .49.22.49.49v11.54c0 .27.22.49.48.49h7.52c.3 0 .53.27.47.57l-.13.74a.49.49 0 01-.47.4h-9.38a.48.48 0 01-.49-.48V26.04c0-.27.22-.49.49-.49zM31.75 35.76l-1.58 3.73a.48.48 0 01-.45.29h-1.04a.49.49 0 01-.45-.68l5.7-13.25c.08-.18.25-.3.45-.3h1.8c.2 0 .37.11.45.29l5.93 13.26c.14.32-.1.68-.45.68H41a.48.48 0 01-.45-.3l-1.66-3.73a.49.49 0 00-.44-.29h-6.25a.5.5 0 00-.44.3zm5.61-2c.35 0 .58-.36.44-.69A103.83 103.83 0 0135.22 27h-.02c-.27.87-1.14 3.05-2.41 6.08-.14.32.1.68.44.68h4.13zM46.26 27.26h-4.45a.48.48 0 01-.49-.49v-.73c0-.27.22-.49.49-.49h11.9c.26 0 .48.22.48.49v.73c0 .27-.22.49-.49.49h-4.44a.48.48 0 00-.49.48V39.3c0 .27-.22.49-.48.49h-1.06a.48.48 0 01-.48-.49V27.74a.49.49 0 00-.49-.48zM57.07 25.55h9.85c.27 0 .49.22.49.49v.72c0 .27-.22.49-.49.49h-7.84a.48.48 0 00-.49.48v3.66c0 .27.22.49.49.49h7.25c.26 0 .48.21.48.48v.74c0 .27-.22.49-.48.49h-7.25a.48.48 0 00-.49.48v5.22c0 .27-.21.49-.48.49h-1.04a.48.48 0 01-.49-.49V26.04c0-.27.22-.49.49-.49zM84.34 32.62c0 4.02-2.72 7.46-7.5 7.46-4.57 0-7.44-3.3-7.44-7.46a7.25 7.25 0 017.5-7.37 7.2 7.2 0 017.44 7.37zm-12.81-.06c0 3.06 1.87 5.83 5.39 5.83 3.48 0 5.29-2.64 5.29-5.73 0-2.95-1.86-5.72-5.42-5.72-3.32 0-5.26 2.62-5.26 5.62zM89.53 34.13v5.17c0 .26-.22.48-.48.48h-1.03a.48.48 0 01-.49-.48V26.04c0-.27.22-.49.49-.49h6.3c2.93 0 4.87 1.34 4.87 3.87 0 1.35-.53 2.4-1.61 3-.3.17-.34.61-.05.8.68.47 1.29 1.34 1.29 3.05v.62c0 .82 0 1.7.07 2.35.03.29-.19.54-.48.54h-1.1a.48.48 0 01-.48-.4c-.1-.64-.08-1.53-.08-2.5v-.47c0-2.1-.82-2.76-3.31-2.76h-3.42a.48.48 0 00-.49.48zm0-2.61c0 .27.22.48.49.48h3.8c2.22 0 3.31-.77 3.31-2.47 0-1.55-1.1-2.33-3.24-2.33h-3.87a.48.48 0 00-.49.49v3.83zM116.12 33.65c0-2.66 0-5.22.09-6.7h-.02c-.69 2.1-3.07 7.7-5.08 12.53a.48.48 0 01-.45.3h-1.09a.48.48 0 01-.45-.3c-1.54-4.02-4.13-10.32-4.9-12.51h-.01c.12 1.63.2 4.64.2 7.04v5.28c0 .27-.22.49-.49.49h-.89a.48.48 0 01-.48-.49V26.04c0-.27.22-.49.48-.49h2.08c.2 0 .37.12.44.3 1.94 4.6 4.27 10.22 4.68 11.5h.02c.66-1.72 3.01-7.19 4.8-11.5.08-.18.25-.3.45-.3h2.1c.27 0 .49.22.49.49V39.3c0 .26-.22.48-.48.48h-1a.48.48 0 01-.49-.48v-5.65z"/></g><defs><clipPath id="clip0"><path fill="#fff" d="M0 0h118.99v40H0z"/></clipPath></defs></svg>