<svg width="32" height="32" viewBox="0 0 32 32" fill="none" xmlns="http://www.w3.org/2000/svg">
<path fill-rule="evenodd" clip-rule="evenodd" d="M30.0693 23.6127C25.8646 31.3829 16.1576 34.2739 8.3868 30.0693C0.616631 25.8646 -2.2738 16.1576 1.93085 8.3868C6.13489 0.61663 15.8426 -2.2738 23.6127 1.93085C31.3829 6.13489 34.2739 15.8426 30.0693 23.6127Z" fill="#412E46"/>
<path fill-rule="evenodd" clip-rule="evenodd" d="M16.801 6.99524C16.6785 6.99524 16.556 7.01778 16.4244 7.06469C15.1614 7.51983 14.8342 10.7868 15.2558 13.5523C15.6549 16.1741 16.6663 18.7038 18.1042 20.6773L18.2194 20.8357L18.3156 20.6651C19.1077 19.2582 20.0125 16.8382 19.82 13.3013C19.6756 10.6357 18.5782 7.88479 17.3755 7.16888C17.1793 7.0519 16.9917 6.99524 16.801 6.99524ZM7.95664 12.1028C7.83966 12.1028 7.72633 12.1406 7.61179 12.2192C7.17433 12.5172 6.52666 13.6437 6.87517 15.9724C7.19382 18.1024 8.26189 20.3287 8.88336 21.1628L9.05822 21.3907L9.14352 21.1951C9.74001 19.8316 9.9758 18.0092 9.82287 15.9255C9.64009 13.4152 8.72799 12.3782 8.21863 12.1613C8.12602 12.1217 8.04011 12.1028 7.95664 12.1028ZM13.272 25.295C11.7543 25.295 10.4943 24.8003 9.30681 23.7383L9.21846 23.6591L9.13438 23.7419C8.374 24.4901 7.44424 24.9331 6.37007 25.058C6.25005 25.072 6.12697 25.0787 6.00146 25.0787C4.97848 25.0787 3.75809 24.6498 2.95627 24.2495C2.76861 24.1556 2.38233 23.9625 1.95644 23.6932C1.16559 22.248 0.60871 20.6974 0.299805 19.0828C0.495993 18.9256 0.741534 18.8269 0.941987 18.8269C1.54883 18.8518 1.57381 19.1352 1.57869 19.8316C1.586 20.7875 1.59635 22.2315 3.94757 23.3697C4.63179 23.7017 5.31175 23.7712 5.76201 23.7712C5.93078 23.7712 6.07518 23.7608 6.18546 23.748C6.91355 23.6639 7.599 23.3033 8.16867 22.7049L8.24544 22.6245L8.17477 22.538C8.00782 22.3345 7.84271 22.1219 7.6782 21.9013C6.95925 20.938 5.78699 18.5161 5.433 16.1503C5.08449 13.8222 5.57253 11.9578 6.73808 11.1633C7.10426 10.9141 7.52527 10.7819 7.95603 10.7819C8.25397 10.7819 8.55008 10.8441 8.83644 10.9665C10.2031 11.5484 11.092 13.3238 11.276 15.8377C11.4344 18.0159 11.1554 20.0869 10.49 21.6704C10.3724 21.9488 10.2427 22.2145 10.1038 22.46L10.0556 22.5447L10.1251 22.6123C11.0999 23.5592 12.062 23.9814 13.2446 23.9814C13.6662 23.9814 14.1256 23.929 14.649 23.8218C15.5769 23.6317 16.4975 23.037 17.3109 22.1036L17.3798 22.0244L17.2317 21.8392C15.4904 19.6494 14.2767 16.7705 13.8143 13.7327C13.7083 13.0393 12.8674 6.92578 15.8877 5.83821C16.1911 5.72854 16.4994 5.6731 16.804 5.6731C17.2768 5.6731 17.7368 5.8047 18.1731 6.06425C20.0125 7.15913 21.125 10.5016 21.2737 13.2373C21.4541 16.5555 20.7339 19.6256 19.2466 21.8818L19.19 21.9677L19.2631 22.0402C20.5127 23.2844 21.8373 23.9424 23.093 23.9424C23.1509 23.9424 23.2088 23.9412 23.2661 23.9381C24.4615 23.8784 25.5295 23.2868 26.3545 22.2267C28.3456 19.6683 28.5028 14.6953 26.9906 8.20527L27.0997 8.19674C29.0902 15.0841 28.9074 20.7467 27.3964 22.995C26.4459 24.4091 25.0829 25.1701 23.3459 25.256C23.26 25.2603 23.1747 25.2627 23.0894 25.2627C21.5138 25.2627 19.901 24.5303 18.4259 23.1442L18.3345 23.0583L18.2486 23.1497C17.2628 24.1946 16.1289 24.8722 14.9689 25.1098C14.3712 25.2322 13.8003 25.295 13.272 25.295Z" fill="#F9FAFA"/>
</svg>
