<svg width="128" height="40" viewBox="0 0 128 40" fill="none" xmlns="http://www.w3.org/2000/svg"><path fill-rule="evenodd" clip-rule="evenodd" d="M37.587 29.516c-5.256 9.713-17.39 13.326-27.104 8.07-9.712-5.255-13.325-17.389-8.07-27.102C7.67.77 19.804-2.843 29.517 2.413c9.713 5.255 13.326 17.39 8.07 27.102z" fill="#412E46"/><path fill-rule="evenodd" clip-rule="evenodd" d="M21.002 8.744c-.154 0-.307.028-.471.087-1.579.569-1.988 4.652-1.461 8.11.499 3.277 1.763 6.439 3.56 8.905l.145.198.12-.213c.99-1.758 2.12-4.783 1.88-9.204-.18-3.332-1.552-6.771-3.055-7.666a1.382 1.382 0 00-.718-.217zM9.946 15.129a.75.75 0 00-.431.145c-.547.372-1.356 1.78-.92 4.691.398 2.663 1.733 5.446 2.51 6.488l.218.285.107-.244c.745-1.705 1.04-3.982.849-6.587-.229-3.138-1.369-4.434-2.005-4.705a.825.825 0 00-.328-.073zm6.644 16.49c-1.897 0-3.472-.619-4.956-1.946l-.11-.1-.106.104a5.762 5.762 0 01-3.455 1.645c-.15.018-.304.026-.46.026-1.28 0-2.805-.536-3.807-1.036-.235-.117-.718-.359-1.25-.696a19.696 19.696 0 01-2.071-5.763c.245-.196.552-.32.803-.32.758.032.79.386.796 1.256.009 1.195.022 3 2.96 4.423a5.246 5.246 0 002.798.473c.91-.105 1.767-.556 2.48-1.304l.095-.1-.088-.109a21.79 21.79 0 01-.621-.795c-.899-1.204-2.364-4.232-2.807-7.19-.435-2.91.175-5.24 1.632-6.233a2.7 2.7 0 012.623-.246c1.708.727 2.82 2.947 3.05 6.09.197 2.722-.152 5.31-.983 7.29-.147.348-.31.68-.483.987l-.06.106.087.084c1.218 1.184 2.42 1.712 3.899 1.712.527 0 1.101-.066 1.755-.2 1.16-.238 2.311-.98 3.328-2.148l.086-.099-.185-.231c-2.177-2.737-3.694-6.336-4.272-10.133-.132-.867-1.183-8.509 2.592-9.868.38-.137.765-.207 1.145-.207.591 0 1.166.165 1.712.49 2.299 1.368 3.69 5.546 3.875 8.966.226 4.147-.674 7.985-2.534 10.805l-.07.108.091.09c1.562 1.555 3.218 2.378 4.787 2.378.073 0 .145-.002.217-.005 1.494-.075 2.83-.815 3.86-2.14 2.49-3.198 2.686-9.414.796-17.527l.136-.01c2.488 8.609 2.26 15.687.37 18.498-1.187 1.767-2.891 2.719-5.062 2.826a6.378 6.378 0 01-.321.008c-1.97 0-3.985-.915-5.83-2.648l-.114-.107-.107.114c-1.232 1.306-2.65 2.153-4.1 2.45-.747.153-1.46.232-2.12.232z" fill="#fff"/><path fill-rule="evenodd" clip-rule="evenodd" d="M62.996 13.347h-2.198a.464.464 0 00-.413.241l-4.358 8.285c-.16.308-.425.308-.587 0l-4.35-8.285a.464.464 0 00-.412-.241h-2.217c-.345 0-.567.342-.41.631l6.817 12.45c.08.144.237.235.41.235h.999a.466.466 0 00.41-.238l6.72-12.45c.155-.287-.067-.628-.41-.628zM100.587 13.351h-2.198a.464.464 0 00-.413.241l-4.358 8.286c-.16.308-.425.308-.588 0l-4.35-8.286a.464.464 0 00-.411-.24h-2.217c-.345 0-.567.342-.41.63l6.817 12.45c.08.144.237.235.41.235h.999a.466.466 0 00.41-.237l6.719-12.45c.156-.287-.066-.629-.41-.629zM75.577 24.036h-7.673c-.254 0-.46-.194-.46-.432v-1.955c0-.24.206-.433.46-.433h7.075c.254 0 .46-.194.46-.434v-1.73a.447.447 0 00-.46-.433h-7.056c-.254 0-.46-.194-.46-.433v-1.748c0-.239.207-.433.46-.433h7.645c.255 0 .461-.194.461-.434v-1.774c0-.24-.206-.434-.46-.434H65.112a.447.447 0 00-.46.434v12.404c0 .24.206.434.46.434h10.464c.253 0 .46-.194.46-.434v-1.732c0-.239-.207-.433-.46-.433zM113.127 24.036h-7.672c-.254 0-.46-.194-.46-.432v-1.955c0-.24.206-.433.46-.433h7.075c.254 0 .46-.194.46-.434v-1.73c0-.24-.206-.433-.46-.433h-7.056c-.254 0-.46-.194-.46-.433v-1.748c0-.239.206-.433.46-.433h7.645c.255 0 .461-.194.461-.434v-1.774c0-.24-.206-.434-.461-.434h-10.455c-.254 0-.46.194-.46.434v12.404c0 .24.206.434.46.434h10.463c.254 0 .461-.194.461-.434v-1.732c0-.239-.207-.433-.461-.433zM127.539 13.345h-11.952c-.253 0-.459.194-.459.432v1.757c0 .238.206.432.459.432h4.14c.255 0 .461.194.461.434v9.823c0 .24.206.433.46.433h1.858c.254 0 .461-.194.461-.433v-9.855c0-.239.206-.433.459-.433h4.113c.253 0 .461-.195.461-.434v-1.724c0-.238-.208-.432-.461-.432zM88.736 24.009H81.41c-.254 0-.46-.194-.46-.433v-9.809a.447.447 0 00-.46-.434h-1.906a.447.447 0 00-.46.434V26.2c0 .24.206.434.46.434h10.152c.254 0 .461-.194.461-.434v-1.758c0-.238-.207-.432-.46-.432z" fill="#412E46"/></svg>