<svg width="690" height="280" viewBox="0 0 690 280" fill="none" xmlns="http://www.w3.org/2000/svg">
<rect opacity="0.5" width="690" height="280" rx="20" fill="#E5DAE0"/>
<rect x="140" y="148" width="326" height="60" rx="12" fill="white"/>
<path d="M442 188C436.477 188 432 183.523 432 178C432 172.477 436.477 168 442 168C447.523 168 452 172.477 452 178C452 183.523 447.523 188 442 188ZM441.003 182L448.073 174.929L446.659 173.515L441.003 179.172L438.174 176.343L436.76 177.757L441.003 182Z" fill="#FCB49A"/>
<path opacity="0.5" d="M167.145 175.605C167.145 176.475 166.845 177.2 166.245 177.78C165.655 178.35 164.75 178.635 163.53 178.635H161.52V183H160.155V172.545H163.53C164.71 172.545 165.605 172.83 166.215 173.4C166.835 173.97 167.145 174.705 167.145 175.605ZM163.53 177.51C164.29 177.51 164.85 177.345 165.21 177.015C165.57 176.685 165.75 176.215 165.75 175.605C165.75 174.315 165.01 173.67 163.53 173.67H161.52V177.51H163.53ZM168.332 178.86C168.332 178.02 168.502 177.285 168.842 176.655C169.182 176.015 169.647 175.52 170.237 175.17C170.837 174.82 171.502 174.645 172.232 174.645C172.952 174.645 173.577 174.8 174.107 175.11C174.637 175.42 175.032 175.81 175.292 176.28V174.78H176.672V183H175.292V181.47C175.022 181.95 174.617 182.35 174.077 182.67C173.547 182.98 172.927 183.135 172.217 183.135C171.487 183.135 170.827 182.955 170.237 182.595C169.647 182.235 169.182 181.73 168.842 181.08C168.502 180.43 168.332 179.69 168.332 178.86ZM175.292 178.875C175.292 178.255 175.167 177.715 174.917 177.255C174.667 176.795 174.327 176.445 173.897 176.205C173.477 175.955 173.012 175.83 172.502 175.83C171.992 175.83 171.527 175.95 171.107 176.19C170.687 176.43 170.352 176.78 170.102 177.24C169.852 177.7 169.727 178.24 169.727 178.86C169.727 179.49 169.852 180.04 170.102 180.51C170.352 180.97 170.687 181.325 171.107 181.575C171.527 181.815 171.992 181.935 172.502 181.935C173.012 181.935 173.477 181.815 173.897 181.575C174.327 181.325 174.667 180.97 174.917 180.51C175.167 180.04 175.292 179.495 175.292 178.875ZM181.888 183.135C181.258 183.135 180.693 183.03 180.193 182.82C179.693 182.6 179.298 182.3 179.008 181.92C178.718 181.53 178.558 181.085 178.528 180.585H179.938C179.978 180.995 180.168 181.33 180.508 181.59C180.858 181.85 181.313 181.98 181.873 181.98C182.393 181.98 182.803 181.865 183.103 181.635C183.403 181.405 183.553 181.115 183.553 180.765C183.553 180.405 183.393 180.14 183.073 179.97C182.753 179.79 182.258 179.615 181.588 179.445C180.978 179.285 180.478 179.125 180.088 178.965C179.708 178.795 179.378 178.55 179.098 178.23C178.828 177.9 178.693 177.47 178.693 176.94C178.693 176.52 178.818 176.135 179.068 175.785C179.318 175.435 179.673 175.16 180.133 174.96C180.593 174.75 181.118 174.645 181.708 174.645C182.618 174.645 183.353 174.875 183.913 175.335C184.473 175.795 184.773 176.425 184.813 177.225H183.448C183.418 176.795 183.243 176.45 182.923 176.19C182.613 175.93 182.193 175.8 181.663 175.8C181.173 175.8 180.783 175.905 180.493 176.115C180.203 176.325 180.058 176.6 180.058 176.94C180.058 177.21 180.143 177.435 180.313 177.615C180.493 177.785 180.713 177.925 180.973 178.035C181.243 178.135 181.613 178.25 182.083 178.38C182.673 178.54 183.153 178.7 183.523 178.86C183.893 179.01 184.208 179.24 184.468 179.55C184.738 179.86 184.878 180.265 184.888 180.765C184.888 181.215 184.763 181.62 184.513 181.98C184.263 182.34 183.908 182.625 183.448 182.835C182.998 183.035 182.478 183.135 181.888 183.135ZM189.725 183.135C189.095 183.135 188.53 183.03 188.03 182.82C187.53 182.6 187.135 182.3 186.845 181.92C186.555 181.53 186.395 181.085 186.365 180.585H187.775C187.815 180.995 188.005 181.33 188.345 181.59C188.695 181.85 189.15 181.98 189.71 181.98C190.23 181.98 190.64 181.865 190.94 181.635C191.24 181.405 191.39 181.115 191.39 180.765C191.39 180.405 191.23 180.14 190.91 179.97C190.59 179.79 190.095 179.615 189.425 179.445C188.815 179.285 188.315 179.125 187.925 178.965C187.545 178.795 187.215 178.55 186.935 178.23C186.665 177.9 186.53 177.47 186.53 176.94C186.53 176.52 186.655 176.135 186.905 175.785C187.155 175.435 187.51 175.16 187.97 174.96C188.43 174.75 188.955 174.645 189.545 174.645C190.455 174.645 191.19 174.875 191.75 175.335C192.31 175.795 192.61 176.425 192.65 177.225H191.285C191.255 176.795 191.08 176.45 190.76 176.19C190.45 175.93 190.03 175.8 189.5 175.8C189.01 175.8 188.62 175.905 188.33 176.115C188.04 176.325 187.895 176.6 187.895 176.94C187.895 177.21 187.98 177.435 188.15 177.615C188.33 177.785 188.55 177.925 188.81 178.035C189.08 178.135 189.45 178.25 189.92 178.38C190.51 178.54 190.99 178.7 191.36 178.86C191.73 179.01 192.045 179.24 192.305 179.55C192.575 179.86 192.715 180.265 192.725 180.765C192.725 181.215 192.6 181.62 192.35 181.98C192.1 182.34 191.745 182.625 191.285 182.835C190.835 183.035 190.315 183.135 189.725 183.135ZM205.602 174.78L203.037 183H201.627L199.647 176.475L197.667 183H196.257L193.677 174.78H195.072L196.962 181.68L199.002 174.78H200.397L202.392 181.695L204.252 174.78H205.602ZM210.542 183.135C209.772 183.135 209.072 182.96 208.442 182.61C207.822 182.26 207.332 181.765 206.972 181.125C206.622 180.475 206.447 179.725 206.447 178.875C206.447 178.035 206.627 177.295 206.987 176.655C207.357 176.005 207.857 175.51 208.487 175.17C209.117 174.82 209.822 174.645 210.602 174.645C211.382 174.645 212.087 174.82 212.717 175.17C213.347 175.51 213.842 176 214.202 176.64C214.572 177.28 214.757 178.025 214.757 178.875C214.757 179.725 214.567 180.475 214.187 181.125C213.817 181.765 213.312 182.26 212.672 182.61C212.032 182.96 211.322 183.135 210.542 183.135ZM210.542 181.935C211.032 181.935 211.492 181.82 211.922 181.59C212.352 181.36 212.697 181.015 212.957 180.555C213.227 180.095 213.362 179.535 213.362 178.875C213.362 178.215 213.232 177.655 212.972 177.195C212.712 176.735 212.372 176.395 211.952 176.175C211.532 175.945 211.077 175.83 210.587 175.83C210.087 175.83 209.627 175.945 209.207 176.175C208.797 176.395 208.467 176.735 208.217 177.195C207.967 177.655 207.842 178.215 207.842 178.875C207.842 179.545 207.962 180.11 208.202 180.57C208.452 181.03 208.782 181.375 209.192 181.605C209.602 181.825 210.052 181.935 210.542 181.935ZM217.916 176.115C218.156 175.645 218.496 175.28 218.936 175.02C219.386 174.76 219.931 174.63 220.571 174.63V176.04H220.211C218.681 176.04 217.916 176.87 217.916 178.53V183H216.551V174.78H217.916V176.115ZM221.637 178.86C221.637 178.02 221.807 177.285 222.147 176.655C222.487 176.015 222.952 175.52 223.542 175.17C224.142 174.82 224.812 174.645 225.552 174.645C226.192 174.645 226.787 174.795 227.337 175.095C227.887 175.385 228.307 175.77 228.597 176.25V171.9H229.977V183H228.597V181.455C228.327 181.945 227.927 182.35 227.397 182.67C226.867 182.98 226.247 183.135 225.537 183.135C224.807 183.135 224.142 182.955 223.542 182.595C222.952 182.235 222.487 181.73 222.147 181.08C221.807 180.43 221.637 179.69 221.637 178.86ZM228.597 178.875C228.597 178.255 228.472 177.715 228.222 177.255C227.972 176.795 227.632 176.445 227.202 176.205C226.782 175.955 226.317 175.83 225.807 175.83C225.297 175.83 224.832 175.95 224.412 176.19C223.992 176.43 223.657 176.78 223.407 177.24C223.157 177.7 223.032 178.24 223.032 178.86C223.032 179.49 223.157 180.04 223.407 180.51C223.657 180.97 223.992 181.325 224.412 181.575C224.832 181.815 225.297 181.935 225.807 181.935C226.317 181.935 226.782 181.815 227.202 181.575C227.632 181.325 227.972 180.97 228.222 180.51C228.472 180.04 228.597 179.495 228.597 178.875Z" fill="#412E46"/>
<rect x="550.001" y="174" width="60" height="60" rx="16" transform="rotate(-180 550.001 174)" fill="#7B4865"/>
<g clip-path="url(#clip0)">
<path d="M505 144C505 140 506.5 136.25 509.375 133.375C515.25 127.5 524.75 127.5 530.625 133.375C533.5 136.25 535 140 535 144C535 148 533.5 151.75 530.625 154.625C524.75 160.5 515.25 160.5 509.375 154.625C506.5 151.75 505 148 505 144ZM532.5 144C532.5 140.625 531.25 137.5 528.875 135.125C524 130.25 516 130.25 511.125 135.125C508.75 137.5 507.5 140.625 507.5 144C507.5 147.375 508.75 150.5 511.125 152.875C516 157.75 523.875 157.75 528.75 152.875C531.25 150.5 532.5 147.375 532.5 144Z" fill="#F9F5F0"/>
<path d="M512.5 144C512.5 143.25 513 142.75 513.75 142.75L526.25 142.75C527 142.75 527.5 143.25 527.5 144C527.5 144.75 527 145.25 526.25 145.25L513.75 145.25C513 145.25 512.5 144.75 512.5 144Z" fill="#F9F5F0"/>
<path d="M518.75 150.25L518.75 137.75C518.75 137 519.25 136.5 520 136.5C520.75 136.5 521.25 137 521.25 137.75L521.25 150.25C521.25 151 520.75 151.5 520 151.5C519.25 151.5 518.75 151 518.75 150.25Z" fill="#F9F5F0"/>
</g>
<rect x="140" y="72" width="326" height="60" rx="12" fill="white"/>
<path opacity="0.5" d="M166.52 97.655V101.15H170.33V102.275H166.52V105.875H170.78V107H165.155V96.53H170.78V97.655H166.52ZM182.73 98.63C183.37 98.63 183.94 98.765 184.44 99.035C184.94 99.295 185.335 99.69 185.625 100.22C185.915 100.75 186.06 101.395 186.06 102.155V107H184.71V102.35C184.71 101.53 184.505 100.905 184.095 100.475C183.695 100.035 183.15 99.815 182.46 99.815C181.75 99.815 181.185 100.045 180.765 100.505C180.345 100.955 180.135 101.61 180.135 102.47V107H178.785V102.35C178.785 101.53 178.58 100.905 178.17 100.475C177.77 100.035 177.225 99.815 176.535 99.815C175.825 99.815 175.26 100.045 174.84 100.505C174.42 100.955 174.21 101.61 174.21 102.47V107H172.845V98.78H174.21V99.965C174.48 99.535 174.84 99.205 175.29 98.975C175.75 98.745 176.255 98.63 176.805 98.63C177.495 98.63 178.105 98.785 178.635 99.095C179.165 99.405 179.56 99.86 179.82 100.46C180.05 99.88 180.43 99.43 180.96 99.11C181.49 98.79 182.08 98.63 182.73 98.63ZM187.79 102.86C187.79 102.02 187.96 101.285 188.3 100.655C188.64 100.015 189.105 99.52 189.695 99.17C190.295 98.82 190.96 98.645 191.69 98.645C192.41 98.645 193.035 98.8 193.565 99.11C194.095 99.42 194.49 99.81 194.75 100.28V98.78H196.13V107H194.75V105.47C194.48 105.95 194.075 106.35 193.535 106.67C193.005 106.98 192.385 107.135 191.675 107.135C190.945 107.135 190.285 106.955 189.695 106.595C189.105 106.235 188.64 105.73 188.3 105.08C187.96 104.43 187.79 103.69 187.79 102.86ZM194.75 102.875C194.75 102.255 194.625 101.715 194.375 101.255C194.125 100.795 193.785 100.445 193.355 100.205C192.935 99.955 192.47 99.83 191.96 99.83C191.45 99.83 190.985 99.95 190.565 100.19C190.145 100.43 189.81 100.78 189.56 101.24C189.31 101.7 189.185 102.24 189.185 102.86C189.185 103.49 189.31 104.04 189.56 104.51C189.81 104.97 190.145 105.325 190.565 105.575C190.985 105.815 191.45 105.935 191.96 105.935C192.47 105.935 192.935 105.815 193.355 105.575C193.785 105.325 194.125 104.97 194.375 104.51C194.625 104.04 194.75 103.495 194.75 102.875ZM199.141 97.445C198.881 97.445 198.661 97.355 198.481 97.175C198.301 96.995 198.211 96.775 198.211 96.515C198.211 96.255 198.301 96.035 198.481 95.855C198.661 95.675 198.881 95.585 199.141 95.585C199.391 95.585 199.601 95.675 199.771 95.855C199.951 96.035 200.041 96.255 200.041 96.515C200.041 96.775 199.951 96.995 199.771 97.175C199.601 97.355 199.391 97.445 199.141 97.445ZM199.801 98.78V107H198.436V98.78H199.801ZM203.493 95.9V107H202.128V95.9H203.493Z" fill="#412E46"/>
<path d="M442 112C436.477 112 432 107.523 432 102C432 96.477 436.477 92 442 92C447.523 92 452 96.477 452 102C452 107.523 447.523 112 442 112ZM441.003 106L448.073 98.929L446.659 97.515L441.003 103.172L438.174 100.343L436.76 101.757L441.003 106Z" fill="#FCB49A"/>
<defs>
<clipPath id="clip0">
<rect width="30" height="30" fill="white" transform="translate(535 129) rotate(90)"/>
</clipPath>
</defs>
</svg>
