<svg width="480" height="280" viewBox="0 0 480 280" fill="none" xmlns="http://www.w3.org/2000/svg">
<rect opacity="0.5" width="480" height="280" rx="20" fill="#E5DAE0"/>
<rect x="40" y="148" width="326" height="60" rx="12" fill="white"/>
<path d="M342 188C336.477 188 332 183.523 332 178C332 172.477 336.477 168 342 168C347.523 168 352 172.477 352 178C352 183.523 347.523 188 342 188ZM341.003 182L348.073 174.929L346.659 173.515L341.003 179.172L338.174 176.343L336.76 177.757L341.003 182Z" fill="#FCB49A"/>
<path opacity="0.5" d="M67.145 175.605C67.145 176.475 66.845 177.2 66.245 177.78C65.655 178.35 64.75 178.635 63.53 178.635H61.52V183H60.155V172.545H63.53C64.71 172.545 65.605 172.83 66.215 173.4C66.835 173.97 67.145 174.705 67.145 175.605ZM63.53 177.51C64.29 177.51 64.85 177.345 65.21 177.015C65.57 176.685 65.75 176.215 65.75 175.605C65.75 174.315 65.01 173.67 63.53 173.67H61.52V177.51H63.53ZM68.3315 178.86C68.3315 178.02 68.5015 177.285 68.8415 176.655C69.1815 176.015 69.6465 175.52 70.2365 175.17C70.8365 174.82 71.5015 174.645 72.2315 174.645C72.9515 174.645 73.5765 174.8 74.1065 175.11C74.6365 175.42 75.0315 175.81 75.2915 176.28V174.78H76.6715V183H75.2915V181.47C75.0215 181.95 74.6165 182.35 74.0765 182.67C73.5465 182.98 72.9265 183.135 72.2165 183.135C71.4865 183.135 70.8265 182.955 70.2365 182.595C69.6465 182.235 69.1815 181.73 68.8415 181.08C68.5015 180.43 68.3315 179.69 68.3315 178.86ZM75.2915 178.875C75.2915 178.255 75.1665 177.715 74.9165 177.255C74.6665 176.795 74.3265 176.445 73.8965 176.205C73.4765 175.955 73.0115 175.83 72.5015 175.83C71.9915 175.83 71.5265 175.95 71.1065 176.19C70.6865 176.43 70.3515 176.78 70.1015 177.24C69.8515 177.7 69.7265 178.24 69.7265 178.86C69.7265 179.49 69.8515 180.04 70.1015 180.51C70.3515 180.97 70.6865 181.325 71.1065 181.575C71.5265 181.815 71.9915 181.935 72.5015 181.935C73.0115 181.935 73.4765 181.815 73.8965 181.575C74.3265 181.325 74.6665 180.97 74.9165 180.51C75.1665 180.04 75.2915 179.495 75.2915 178.875ZM81.8882 183.135C81.2582 183.135 80.6932 183.03 80.1932 182.82C79.6932 182.6 79.2982 182.3 79.0082 181.92C78.7182 181.53 78.5582 181.085 78.5282 180.585H79.9382C79.9782 180.995 80.1682 181.33 80.5082 181.59C80.8582 181.85 81.3132 181.98 81.8732 181.98C82.3932 181.98 82.8032 181.865 83.1032 181.635C83.4032 181.405 83.5532 181.115 83.5532 180.765C83.5532 180.405 83.3932 180.14 83.0732 179.97C82.7532 179.79 82.2582 179.615 81.5882 179.445C80.9782 179.285 80.4782 179.125 80.0882 178.965C79.7082 178.795 79.3782 178.55 79.0982 178.23C78.8282 177.9 78.6932 177.47 78.6932 176.94C78.6932 176.52 78.8182 176.135 79.0682 175.785C79.3182 175.435 79.6732 175.16 80.1332 174.96C80.5932 174.75 81.1182 174.645 81.7082 174.645C82.6182 174.645 83.3532 174.875 83.9132 175.335C84.4732 175.795 84.7732 176.425 84.8132 177.225H83.4482C83.4182 176.795 83.2432 176.45 82.9232 176.19C82.6132 175.93 82.1932 175.8 81.6632 175.8C81.1732 175.8 80.7832 175.905 80.4932 176.115C80.2032 176.325 80.0582 176.6 80.0582 176.94C80.0582 177.21 80.1432 177.435 80.3132 177.615C80.4932 177.785 80.7132 177.925 80.9732 178.035C81.2432 178.135 81.6132 178.25 82.0832 178.38C82.6732 178.54 83.1532 178.7 83.5232 178.86C83.8932 179.01 84.2082 179.24 84.4682 179.55C84.7382 179.86 84.8782 180.265 84.8882 180.765C84.8882 181.215 84.7632 181.62 84.5132 181.98C84.2632 182.34 83.9082 182.625 83.4482 182.835C82.9982 183.035 82.4782 183.135 81.8882 183.135ZM89.7252 183.135C89.0952 183.135 88.5302 183.03 88.0302 182.82C87.5302 182.6 87.1352 182.3 86.8452 181.92C86.5552 181.53 86.3952 181.085 86.3652 180.585H87.7752C87.8152 180.995 88.0052 181.33 88.3452 181.59C88.6952 181.85 89.1502 181.98 89.7102 181.98C90.2302 181.98 90.6402 181.865 90.9402 181.635C91.2402 181.405 91.3902 181.115 91.3902 180.765C91.3902 180.405 91.2302 180.14 90.9102 179.97C90.5902 179.79 90.0952 179.615 89.4252 179.445C88.8152 179.285 88.3152 179.125 87.9252 178.965C87.5452 178.795 87.2152 178.55 86.9352 178.23C86.6652 177.9 86.5302 177.47 86.5302 176.94C86.5302 176.52 86.6552 176.135 86.9052 175.785C87.1552 175.435 87.5102 175.16 87.9702 174.96C88.4302 174.75 88.9552 174.645 89.5452 174.645C90.4552 174.645 91.1902 174.875 91.7502 175.335C92.3102 175.795 92.6102 176.425 92.6502 177.225H91.2852C91.2552 176.795 91.0802 176.45 90.7602 176.19C90.4502 175.93 90.0302 175.8 89.5002 175.8C89.0102 175.8 88.6202 175.905 88.3302 176.115C88.0402 176.325 87.8952 176.6 87.8952 176.94C87.8952 177.21 87.9802 177.435 88.1502 177.615C88.3302 177.785 88.5502 177.925 88.8102 178.035C89.0802 178.135 89.4502 178.25 89.9202 178.38C90.5102 178.54 90.9902 178.7 91.3602 178.86C91.7302 179.01 92.0452 179.24 92.3052 179.55C92.5752 179.86 92.7152 180.265 92.7252 180.765C92.7252 181.215 92.6002 181.62 92.3502 181.98C92.1002 182.34 91.7452 182.625 91.2852 182.835C90.8352 183.035 90.3152 183.135 89.7252 183.135ZM105.602 174.78L103.037 183H101.627L99.6471 176.475L97.6671 183H96.2571L93.6771 174.78H95.0721L96.9621 181.68L99.0021 174.78H100.397L102.392 181.695L104.252 174.78H105.602ZM110.542 183.135C109.772 183.135 109.072 182.96 108.442 182.61C107.822 182.26 107.332 181.765 106.972 181.125C106.622 180.475 106.447 179.725 106.447 178.875C106.447 178.035 106.627 177.295 106.987 176.655C107.357 176.005 107.857 175.51 108.487 175.17C109.117 174.82 109.822 174.645 110.602 174.645C111.382 174.645 112.087 174.82 112.717 175.17C113.347 175.51 113.842 176 114.202 176.64C114.572 177.28 114.757 178.025 114.757 178.875C114.757 179.725 114.567 180.475 114.187 181.125C113.817 181.765 113.312 182.26 112.672 182.61C112.032 182.96 111.322 183.135 110.542 183.135ZM110.542 181.935C111.032 181.935 111.492 181.82 111.922 181.59C112.352 181.36 112.697 181.015 112.957 180.555C113.227 180.095 113.362 179.535 113.362 178.875C113.362 178.215 113.232 177.655 112.972 177.195C112.712 176.735 112.372 176.395 111.952 176.175C111.532 175.945 111.077 175.83 110.587 175.83C110.087 175.83 109.627 175.945 109.207 176.175C108.797 176.395 108.467 176.735 108.217 177.195C107.967 177.655 107.842 178.215 107.842 178.875C107.842 179.545 107.962 180.11 108.202 180.57C108.452 181.03 108.782 181.375 109.192 181.605C109.602 181.825 110.052 181.935 110.542 181.935ZM117.916 176.115C118.156 175.645 118.496 175.28 118.936 175.02C119.386 174.76 119.931 174.63 120.571 174.63V176.04H120.211C118.681 176.04 117.916 176.87 117.916 178.53V183H116.551V174.78H117.916V176.115ZM121.637 178.86C121.637 178.02 121.807 177.285 122.147 176.655C122.487 176.015 122.952 175.52 123.542 175.17C124.142 174.82 124.812 174.645 125.552 174.645C126.192 174.645 126.787 174.795 127.337 175.095C127.887 175.385 128.307 175.77 128.597 176.25V171.9H129.977V183H128.597V181.455C128.327 181.945 127.927 182.35 127.397 182.67C126.867 182.98 126.247 183.135 125.537 183.135C124.807 183.135 124.142 182.955 123.542 182.595C122.952 182.235 122.487 181.73 122.147 181.08C121.807 180.43 121.637 179.69 121.637 178.86ZM128.597 178.875C128.597 178.255 128.472 177.715 128.222 177.255C127.972 176.795 127.632 176.445 127.202 176.205C126.782 175.955 126.317 175.83 125.807 175.83C125.297 175.83 124.832 175.95 124.412 176.19C123.992 176.43 123.657 176.78 123.407 177.24C123.157 177.7 123.032 178.24 123.032 178.86C123.032 179.49 123.157 180.04 123.407 180.51C123.657 180.97 123.992 181.325 124.412 181.575C124.832 181.815 125.297 181.935 125.807 181.935C126.317 181.935 126.782 181.815 127.202 181.575C127.632 181.325 127.972 180.97 128.222 180.51C128.472 180.04 128.597 179.495 128.597 178.875Z" fill="#412E46"/>
<rect x="440.001" y="174" width="60" height="60" rx="16" transform="rotate(-180 440.001 174)" fill="#7B4865"/>
<g clip-path="url(#clip0)">
<path d="M395 144C395 140 396.5 136.25 399.375 133.375C405.25 127.5 414.75 127.5 420.625 133.375C423.5 136.25 425 140 425 144C425 148 423.5 151.75 420.625 154.625C414.75 160.5 405.25 160.5 399.375 154.625C396.5 151.75 395 148 395 144ZM422.5 144C422.5 140.625 421.25 137.5 418.875 135.125C414 130.25 406 130.25 401.125 135.125C398.75 137.5 397.5 140.625 397.5 144C397.5 147.375 398.75 150.5 401.125 152.875C406 157.75 413.875 157.75 418.75 152.875C421.25 150.5 422.5 147.375 422.5 144Z" fill="#F9F5F0"/>
<path d="M402.5 144C402.5 143.25 403 142.75 403.75 142.75L416.25 142.75C417 142.75 417.5 143.25 417.5 144C417.5 144.75 417 145.25 416.25 145.25L403.75 145.25C403 145.25 402.5 144.75 402.5 144Z" fill="#F9F5F0"/>
<path d="M408.75 150.25L408.75 137.75C408.75 137 409.25 136.5 410 136.5C410.75 136.5 411.25 137 411.25 137.75L411.25 150.25C411.25 151 410.75 151.5 410 151.5C409.25 151.5 408.75 151 408.75 150.25Z" fill="#F9F5F0"/>
</g>
<rect x="40" y="72" width="326" height="60" rx="12" fill="white"/>
<path opacity="0.5" d="M66.52 97.655V101.15H70.33V102.275H66.52V105.875H70.78V107H65.155V96.53H70.78V97.655H66.52ZM82.7304 98.63C83.3704 98.63 83.9404 98.765 84.4404 99.035C84.9404 99.295 85.3354 99.69 85.6254 100.22C85.9154 100.75 86.0604 101.395 86.0604 102.155V107H84.7104V102.35C84.7104 101.53 84.5054 100.905 84.0954 100.475C83.6954 100.035 83.1504 99.815 82.4604 99.815C81.7504 99.815 81.1854 100.045 80.7654 100.505C80.3454 100.955 80.1354 101.61 80.1354 102.47V107H78.7854V102.35C78.7854 101.53 78.5804 100.905 78.1704 100.475C77.7704 100.035 77.2254 99.815 76.5354 99.815C75.8254 99.815 75.2604 100.045 74.8404 100.505C74.4204 100.955 74.2104 101.61 74.2104 102.47V107H72.8454V98.78H74.2104V99.965C74.4804 99.535 74.8404 99.205 75.2904 98.975C75.7504 98.745 76.2554 98.63 76.8054 98.63C77.4954 98.63 78.1054 98.785 78.6354 99.095C79.1654 99.405 79.5604 99.86 79.8204 100.46C80.0504 99.88 80.4304 99.43 80.9604 99.11C81.4904 98.79 82.0804 98.63 82.7304 98.63ZM87.7895 102.86C87.7895 102.02 87.9595 101.285 88.2995 100.655C88.6395 100.015 89.1045 99.52 89.6945 99.17C90.2945 98.82 90.9595 98.645 91.6895 98.645C92.4095 98.645 93.0345 98.8 93.5645 99.11C94.0945 99.42 94.4895 99.81 94.7495 100.28V98.78H96.1295V107H94.7495V105.47C94.4795 105.95 94.0745 106.35 93.5345 106.67C93.0045 106.98 92.3845 107.135 91.6745 107.135C90.9445 107.135 90.2845 106.955 89.6945 106.595C89.1045 106.235 88.6395 105.73 88.2995 105.08C87.9595 104.43 87.7895 103.69 87.7895 102.86ZM94.7495 102.875C94.7495 102.255 94.6245 101.715 94.3745 101.255C94.1245 100.795 93.7845 100.445 93.3545 100.205C92.9345 99.955 92.4695 99.83 91.9595 99.83C91.4495 99.83 90.9845 99.95 90.5645 100.19C90.1445 100.43 89.8095 100.78 89.5595 101.24C89.3095 101.7 89.1845 102.24 89.1845 102.86C89.1845 103.49 89.3095 104.04 89.5595 104.51C89.8095 104.97 90.1445 105.325 90.5645 105.575C90.9845 105.815 91.4495 105.935 91.9595 105.935C92.4695 105.935 92.9345 105.815 93.3545 105.575C93.7845 105.325 94.1245 104.97 94.3745 104.51C94.6245 104.04 94.7495 103.495 94.7495 102.875ZM99.1413 97.445C98.8813 97.445 98.6613 97.355 98.4813 97.175C98.3013 96.995 98.2113 96.775 98.2113 96.515C98.2113 96.255 98.3013 96.035 98.4813 95.855C98.6613 95.675 98.8813 95.585 99.1413 95.585C99.3913 95.585 99.6013 95.675 99.7713 95.855C99.9513 96.035 100.041 96.255 100.041 96.515C100.041 96.775 99.9513 96.995 99.7713 97.175C99.6013 97.355 99.3913 97.445 99.1413 97.445ZM99.8013 98.78V107H98.4363V98.78H99.8013ZM103.493 95.9V107H102.128V95.9H103.493Z" fill="#412E46"/>
<path d="M342 112C336.477 112 332 107.523 332 102C332 96.477 336.477 92 342 92C347.523 92 352 96.477 352 102C352 107.523 347.523 112 342 112ZM341.003 106L348.073 98.929L346.659 97.515L341.003 103.172L338.174 100.343L336.76 101.757L341.003 106Z" fill="#FCB49A"/>
<defs>
<clipPath id="clip0">
<rect width="30" height="30" fill="white" transform="translate(425 129) rotate(90)"/>
</clipPath>
</defs>
</svg>
