<svg width="320" height="48" viewBox="0 0 320 48" fill="none" xmlns="http://www.w3.org/2000/svg">
<rect opacity="0.5" width="320" height="48" rx="12" fill="#E5DAE0"/>
<rect x="12" y="12" width="65" height="24" rx="8" fill="#3F2D44"/>
<path d="M26.516 22.084C26.516 22.78 26.276 23.36 25.796 23.824C25.324 24.28 24.6 24.508 23.624 24.508H22.016V28H20.924V19.636H23.624C24.568 19.636 25.284 19.864 25.772 20.32C26.268 20.776 26.516 21.364 26.516 22.084ZM23.624 23.608C24.232 23.608 24.68 23.476 24.968 23.212C25.256 22.948 25.4 22.572 25.4 22.084C25.4 21.052 24.808 20.536 23.624 20.536H22.016V23.608H23.624ZM30.7412 28.108C30.1252 28.108 29.5652 27.968 29.0612 27.688C28.5652 27.408 28.1732 27.012 27.8852 26.5C27.6052 25.98 27.4652 25.38 27.4652 24.7C27.4652 24.028 27.6092 23.436 27.8972 22.924C28.1932 22.404 28.5932 22.008 29.0972 21.736C29.6012 21.456 30.1652 21.316 30.7892 21.316C31.4132 21.316 31.9772 21.456 32.4812 21.736C32.9852 22.008 33.3812 22.4 33.6692 22.912C33.9652 23.424 34.1132 24.02 34.1132 24.7C34.1132 25.38 33.9612 25.98 33.6572 26.5C33.3612 27.012 32.9572 27.408 32.4452 27.688C31.9332 27.968 31.3652 28.108 30.7412 28.108ZM30.7412 27.148C31.1332 27.148 31.5012 27.056 31.8452 26.872C32.1892 26.688 32.4652 26.412 32.6732 26.044C32.8892 25.676 32.9972 25.228 32.9972 24.7C32.9972 24.172 32.8932 23.724 32.6852 23.356C32.4772 22.988 32.2052 22.716 31.8692 22.54C31.5332 22.356 31.1692 22.264 30.7772 22.264C30.3772 22.264 30.0092 22.356 29.6732 22.54C29.3452 22.716 29.0812 22.988 28.8812 23.356C28.6812 23.724 28.5812 24.172 28.5812 24.7C28.5812 25.236 28.6772 25.688 28.8692 26.056C29.0692 26.424 29.3332 26.7 29.6612 26.884C29.9892 27.06 30.3492 27.148 30.7412 27.148ZM35.141 24.688C35.141 24.016 35.277 23.428 35.549 22.924C35.821 22.412 36.193 22.016 36.665 21.736C37.145 21.456 37.681 21.316 38.273 21.316C38.785 21.316 39.261 21.436 39.701 21.676C40.141 21.908 40.477 22.216 40.709 22.6V19.12H41.813V28H40.709V26.764C40.493 27.156 40.173 27.48 39.749 27.736C39.325 27.984 38.829 28.108 38.261 28.108C37.677 28.108 37.145 27.964 36.665 27.676C36.193 27.388 35.821 26.984 35.549 26.464C35.277 25.944 35.141 25.352 35.141 24.688ZM40.709 24.7C40.709 24.204 40.609 23.772 40.409 23.404C40.209 23.036 39.937 22.756 39.593 22.564C39.257 22.364 38.885 22.264 38.477 22.264C38.069 22.264 37.697 22.36 37.361 22.552C37.025 22.744 36.757 23.024 36.557 23.392C36.357 23.76 36.257 24.192 36.257 24.688C36.257 25.192 36.357 25.632 36.557 26.008C36.757 26.376 37.025 26.66 37.361 26.86C37.697 27.052 38.069 27.148 38.477 27.148C38.885 27.148 39.257 27.052 39.593 26.86C39.937 26.66 40.209 26.376 40.409 26.008C40.609 25.632 40.709 25.196 40.709 24.7ZM43.2504 24.7C43.2504 24.02 43.3864 23.428 43.6584 22.924C43.9304 22.412 44.3064 22.016 44.7864 21.736C45.2744 21.456 45.8304 21.316 46.4544 21.316C47.2624 21.316 47.9264 21.512 48.4464 21.904C48.9744 22.296 49.3224 22.84 49.4904 23.536H48.3144C48.2024 23.136 47.9824 22.82 47.6544 22.588C47.3344 22.356 46.9344 22.24 46.4544 22.24C45.8304 22.24 45.3264 22.456 44.9424 22.888C44.5584 23.312 44.3664 23.916 44.3664 24.7C44.3664 25.492 44.5584 26.104 44.9424 26.536C45.3264 26.968 45.8304 27.184 46.4544 27.184C46.9344 27.184 47.3344 27.072 47.6544 26.848C47.9744 26.624 48.1944 26.304 48.3144 25.888H49.4904C49.3144 26.56 48.9624 27.1 48.4344 27.508C47.9064 27.908 47.2464 28.108 46.4544 28.108C45.8304 28.108 45.2744 27.968 44.7864 27.688C44.3064 27.408 43.9304 27.012 43.6584 26.5C43.3864 25.988 43.2504 25.388 43.2504 24.7ZM50.5394 24.688C50.5394 24.016 50.6754 23.428 50.9474 22.924C51.2194 22.412 51.5914 22.016 52.0634 21.736C52.5434 21.456 53.0754 21.316 53.6594 21.316C54.2354 21.316 54.7354 21.44 55.1594 21.688C55.5834 21.936 55.8994 22.248 56.1074 22.624V21.424H57.2114V28H56.1074V26.776C55.8914 27.16 55.5674 27.48 55.1354 27.736C54.7114 27.984 54.2154 28.108 53.6474 28.108C53.0634 28.108 52.5354 27.964 52.0634 27.676C51.5914 27.388 51.2194 26.984 50.9474 26.464C50.6754 25.944 50.5394 25.352 50.5394 24.688ZM56.1074 24.7C56.1074 24.204 56.0074 23.772 55.8074 23.404C55.6074 23.036 55.3354 22.756 54.9914 22.564C54.6554 22.364 54.2834 22.264 53.8754 22.264C53.4674 22.264 53.0954 22.36 52.7594 22.552C52.4234 22.744 52.1554 23.024 51.9554 23.392C51.7554 23.76 51.6554 24.192 51.6554 24.688C51.6554 25.192 51.7554 25.632 51.9554 26.008C52.1554 26.376 52.4234 26.66 52.7594 26.86C53.0954 27.052 53.4674 27.148 53.8754 27.148C54.2834 27.148 54.6554 27.052 54.9914 26.86C55.3354 26.66 55.6074 26.376 55.8074 26.008C56.0074 25.632 56.1074 25.196 56.1074 24.7ZM61.3848 28.108C60.8808 28.108 60.4288 28.024 60.0288 27.856C59.6288 27.68 59.3128 27.44 59.0808 27.136C58.8488 26.824 58.7208 26.468 58.6968 26.068H59.8248C59.8568 26.396 60.0088 26.664 60.2808 26.872C60.5608 27.08 60.9248 27.184 61.3728 27.184C61.7888 27.184 62.1168 27.092 62.3568 26.908C62.5968 26.724 62.7168 26.492 62.7168 26.212C62.7168 25.924 62.5888 25.712 62.3328 25.576C62.0768 25.432 61.6808 25.292 61.1448 25.156C60.6568 25.028 60.2568 24.9 59.9448 24.772C59.6408 24.636 59.3768 24.44 59.1528 24.184C58.9368 23.92 58.8288 23.576 58.8288 23.152C58.8288 22.816 58.9288 22.508 59.1288 22.228C59.3288 21.948 59.6128 21.728 59.9808 21.568C60.3488 21.4 60.7688 21.316 61.2408 21.316C61.9688 21.316 62.5568 21.5 63.0048 21.868C63.4528 22.236 63.6928 22.74 63.7248 23.38H62.6328C62.6088 23.036 62.4688 22.76 62.2128 22.552C61.9648 22.344 61.6288 22.24 61.2048 22.24C60.8128 22.24 60.5008 22.324 60.2688 22.492C60.0368 22.66 59.9208 22.88 59.9208 23.152C59.9208 23.368 59.9888 23.548 60.1248 23.692C60.2688 23.828 60.4448 23.94 60.6528 24.028C60.8688 24.108 61.1648 24.2 61.5408 24.304C62.0128 24.432 62.3968 24.56 62.6928 24.688C62.9888 24.808 63.2408 24.992 63.4488 25.24C63.6648 25.488 63.7768 25.812 63.7848 26.212C63.7848 26.572 63.6848 26.896 63.4848 27.184C63.2848 27.472 63.0008 27.7 62.6328 27.868C62.2728 28.028 61.8568 28.108 61.3848 28.108ZM66.6583 22.324V26.2C66.6583 26.52 66.7263 26.748 66.8623 26.884C66.9983 27.012 67.2343 27.076 67.5703 27.076H68.3743V28H67.3903C66.7823 28 66.3263 27.86 66.0223 27.58C65.7183 27.3 65.5663 26.84 65.5663 26.2V22.324H64.7143V21.424H65.5663V19.768H66.6583V21.424H68.3743V22.324H66.6583Z" fill="#FAF7F3"/>
<path d="M103.78 19.636L101.056 24.844V28H99.964V24.844L97.228 19.636H98.44L100.504 23.872L102.568 19.636H103.78ZM107.8 28.108C107.184 28.108 106.624 27.968 106.12 27.688C105.624 27.408 105.232 27.012 104.944 26.5C104.664 25.98 104.524 25.38 104.524 24.7C104.524 24.028 104.668 23.436 104.956 22.924C105.252 22.404 105.652 22.008 106.156 21.736C106.66 21.456 107.224 21.316 107.848 21.316C108.472 21.316 109.036 21.456 109.54 21.736C110.044 22.008 110.44 22.4 110.728 22.912C111.024 23.424 111.172 24.02 111.172 24.7C111.172 25.38 111.02 25.98 110.716 26.5C110.42 27.012 110.016 27.408 109.504 27.688C108.992 27.968 108.424 28.108 107.8 28.108ZM107.8 27.148C108.192 27.148 108.56 27.056 108.904 26.872C109.248 26.688 109.524 26.412 109.732 26.044C109.948 25.676 110.056 25.228 110.056 24.7C110.056 24.172 109.952 23.724 109.744 23.356C109.536 22.988 109.264 22.716 108.928 22.54C108.592 22.356 108.228 22.264 107.836 22.264C107.436 22.264 107.068 22.356 106.732 22.54C106.404 22.716 106.14 22.988 105.94 23.356C105.74 23.724 105.64 24.172 105.64 24.7C105.64 25.236 105.736 25.688 105.928 26.056C106.128 26.424 106.392 26.7 106.72 26.884C107.048 27.06 107.408 27.148 107.8 27.148ZM118.44 21.424V28H117.348V27.028C117.14 27.364 116.848 27.628 116.472 27.82C116.104 28.004 115.696 28.096 115.248 28.096C114.736 28.096 114.276 27.992 113.868 27.784C113.46 27.568 113.136 27.248 112.896 26.824C112.664 26.4 112.548 25.884 112.548 25.276V21.424H113.628V25.132C113.628 25.78 113.792 26.28 114.12 26.632C114.448 26.976 114.896 27.148 115.464 27.148C116.048 27.148 116.508 26.968 116.844 26.608C117.18 26.248 117.348 25.724 117.348 25.036V21.424H118.44ZM125.431 19.636V20.524H123.151V28H122.059V20.524H119.767V19.636H125.431ZM132.608 21.424V28H131.516V27.028C131.308 27.364 131.016 27.628 130.64 27.82C130.272 28.004 129.864 28.096 129.416 28.096C128.904 28.096 128.444 27.992 128.036 27.784C127.628 27.568 127.304 27.248 127.064 26.824C126.832 26.4 126.716 25.884 126.716 25.276V21.424H127.796V25.132C127.796 25.78 127.96 26.28 128.288 26.632C128.616 26.976 129.064 27.148 129.632 27.148C130.216 27.148 130.676 26.968 131.012 26.608C131.348 26.248 131.516 25.724 131.516 25.036V21.424H132.608ZM135.543 22.648C135.767 22.256 136.095 21.936 136.527 21.688C136.959 21.44 137.451 21.316 138.003 21.316C138.595 21.316 139.127 21.456 139.599 21.736C140.071 22.016 140.443 22.412 140.715 22.924C140.987 23.428 141.123 24.016 141.123 24.688C141.123 25.352 140.987 25.944 140.715 26.464C140.443 26.984 140.067 27.388 139.587 27.676C139.115 27.964 138.587 28.108 138.003 28.108C137.435 28.108 136.935 27.984 136.503 27.736C136.079 27.488 135.759 27.172 135.543 26.788V28H134.451V19.12H135.543V22.648ZM140.007 24.688C140.007 24.192 139.907 23.76 139.707 23.392C139.507 23.024 139.235 22.744 138.891 22.552C138.555 22.36 138.183 22.264 137.775 22.264C137.375 22.264 137.003 22.364 136.659 22.564C136.323 22.756 136.051 23.04 135.843 23.416C135.643 23.784 135.543 24.212 135.543 24.7C135.543 25.196 135.643 25.632 135.843 26.008C136.051 26.376 136.323 26.66 136.659 26.86C137.003 27.052 137.375 27.148 137.775 27.148C138.183 27.148 138.555 27.052 138.891 26.86C139.235 26.66 139.507 26.376 139.707 26.008C139.907 25.632 140.007 25.192 140.007 24.688ZM148.561 24.46C148.561 24.668 148.549 24.888 148.525 25.12H143.269C143.309 25.768 143.529 26.276 143.929 26.644C144.337 27.004 144.829 27.184 145.405 27.184C145.877 27.184 146.269 27.076 146.581 26.86C146.901 26.636 147.125 26.34 147.253 25.972H148.429C148.253 26.604 147.901 27.12 147.373 27.52C146.845 27.912 146.189 28.108 145.405 28.108C144.781 28.108 144.221 27.968 143.725 27.688C143.237 27.408 142.853 27.012 142.573 26.5C142.293 25.98 142.153 25.38 142.153 24.7C142.153 24.02 142.289 23.424 142.561 22.912C142.833 22.4 143.213 22.008 143.701 21.736C144.197 21.456 144.765 21.316 145.405 21.316C146.029 21.316 146.581 21.452 147.061 21.724C147.541 21.996 147.909 22.372 148.165 22.852C148.429 23.324 148.561 23.86 148.561 24.46ZM147.433 24.232C147.433 23.816 147.341 23.46 147.157 23.164C146.973 22.86 146.721 22.632 146.401 22.48C146.089 22.32 145.741 22.24 145.357 22.24C144.805 22.24 144.333 22.416 143.941 22.768C143.557 23.12 143.337 23.608 143.281 24.232H147.433Z" fill="#412E46"/>
<rect x="89.5" y="12.5" width="68" height="23" rx="7.5" stroke="black"/>
<path d="M184.516 22.084C184.516 22.78 184.276 23.36 183.796 23.824C183.324 24.28 182.6 24.508 181.624 24.508H180.016V28H178.924V19.636H181.624C182.568 19.636 183.284 19.864 183.772 20.32C184.268 20.776 184.516 21.364 184.516 22.084ZM181.624 23.608C182.232 23.608 182.68 23.476 182.968 23.212C183.256 22.948 183.4 22.572 183.4 22.084C183.4 21.052 182.808 20.536 181.624 20.536H180.016V23.608H181.624ZM186.965 22.492C187.157 22.116 187.429 21.824 187.781 21.616C188.141 21.408 188.577 21.304 189.089 21.304V22.432H188.801C187.577 22.432 186.965 23.096 186.965 24.424V28H185.873V21.424H186.965V22.492ZM193.218 28.108C192.602 28.108 192.042 27.968 191.538 27.688C191.042 27.408 190.65 27.012 190.362 26.5C190.082 25.98 189.942 25.38 189.942 24.7C189.942 24.028 190.086 23.436 190.374 22.924C190.67 22.404 191.07 22.008 191.574 21.736C192.078 21.456 192.642 21.316 193.266 21.316C193.89 21.316 194.454 21.456 194.958 21.736C195.462 22.008 195.858 22.4 196.146 22.912C196.442 23.424 196.59 24.02 196.59 24.7C196.59 25.38 196.438 25.98 196.134 26.5C195.838 27.012 195.434 27.408 194.922 27.688C194.41 27.968 193.842 28.108 193.218 28.108ZM193.218 27.148C193.61 27.148 193.978 27.056 194.322 26.872C194.666 26.688 194.942 26.412 195.15 26.044C195.366 25.676 195.474 25.228 195.474 24.7C195.474 24.172 195.37 23.724 195.162 23.356C194.954 22.988 194.682 22.716 194.346 22.54C194.01 22.356 193.646 22.264 193.254 22.264C192.854 22.264 192.486 22.356 192.15 22.54C191.822 22.716 191.558 22.988 191.358 23.356C191.158 23.724 191.058 24.172 191.058 24.7C191.058 25.236 191.154 25.688 191.346 26.056C191.546 26.424 191.81 26.7 192.138 26.884C192.466 27.06 192.826 27.148 193.218 27.148ZM198.614 20.356C198.406 20.356 198.23 20.284 198.086 20.14C197.95 19.996 197.882 19.82 197.882 19.612C197.882 19.404 197.95 19.228 198.086 19.084C198.23 18.94 198.406 18.868 198.614 18.868C198.822 18.868 198.994 18.94 199.13 19.084C199.274 19.228 199.346 19.404 199.346 19.612C199.346 19.82 199.274 19.996 199.13 20.14C198.994 20.284 198.822 20.356 198.614 20.356ZM199.154 29.428C199.154 30.012 199.006 30.44 198.71 30.712C198.414 30.984 197.982 31.12 197.414 31.12H196.778V30.196H197.234C197.538 30.196 197.75 30.136 197.87 30.016C197.998 29.896 198.062 29.692 198.062 29.404V21.424H199.154V29.428ZM207.002 24.46C207.002 24.668 206.99 24.888 206.966 25.12H201.71C201.75 25.768 201.97 26.276 202.37 26.644C202.778 27.004 203.27 27.184 203.846 27.184C204.318 27.184 204.71 27.076 205.022 26.86C205.342 26.636 205.566 26.34 205.694 25.972H206.87C206.694 26.604 206.342 27.12 205.814 27.52C205.286 27.912 204.63 28.108 203.846 28.108C203.222 28.108 202.662 27.968 202.166 27.688C201.678 27.408 201.294 27.012 201.014 26.5C200.734 25.98 200.594 25.38 200.594 24.7C200.594 24.02 200.73 23.424 201.002 22.912C201.274 22.4 201.654 22.008 202.142 21.736C202.638 21.456 203.206 21.316 203.846 21.316C204.47 21.316 205.022 21.452 205.502 21.724C205.982 21.996 206.35 22.372 206.606 22.852C206.87 23.324 207.002 23.86 207.002 24.46ZM205.874 24.232C205.874 23.816 205.782 23.46 205.598 23.164C205.414 22.86 205.162 22.632 204.842 22.48C204.53 22.32 204.182 22.24 203.798 22.24C203.246 22.24 202.774 22.416 202.382 22.768C201.998 23.12 201.778 23.608 201.722 24.232H205.874ZM208.036 24.7C208.036 24.02 208.172 23.428 208.444 22.924C208.716 22.412 209.092 22.016 209.572 21.736C210.06 21.456 210.616 21.316 211.24 21.316C212.048 21.316 212.712 21.512 213.232 21.904C213.76 22.296 214.108 22.84 214.276 23.536H213.1C212.988 23.136 212.768 22.82 212.44 22.588C212.12 22.356 211.72 22.24 211.24 22.24C210.616 22.24 210.112 22.456 209.728 22.888C209.344 23.312 209.152 23.916 209.152 24.7C209.152 25.492 209.344 26.104 209.728 26.536C210.112 26.968 210.616 27.184 211.24 27.184C211.72 27.184 212.12 27.072 212.44 26.848C212.76 26.624 212.98 26.304 213.1 25.888H214.276C214.1 26.56 213.748 27.1 213.22 27.508C212.692 27.908 212.032 28.108 211.24 28.108C210.616 28.108 210.06 27.968 209.572 27.688C209.092 27.408 208.716 27.012 208.444 26.5C208.172 25.988 208.036 25.388 208.036 24.7ZM217.065 22.324V26.2C217.065 26.52 217.133 26.748 217.269 26.884C217.405 27.012 217.641 27.076 217.977 27.076H218.781V28H217.797C217.189 28 216.733 27.86 216.429 27.58C216.125 27.3 215.973 26.84 215.973 26.2V22.324H215.121V21.424H215.973V19.768H217.065V21.424H218.781V22.324H217.065Z" fill="#412E46"/>
<rect x="170.5" y="12.5" width="57" height="23" rx="7.5" stroke="black"/>
<path d="M250.016 20.524V23.32H253.064V24.22H250.016V27.1H253.424V28H248.924V19.624H253.424V20.524H250.016ZM257.524 26.992L259.564 21.424H260.728L258.148 28H256.876L254.296 21.424H255.472L257.524 26.992ZM267.803 24.46C267.803 24.668 267.791 24.888 267.767 25.12H262.511C262.551 25.768 262.771 26.276 263.171 26.644C263.579 27.004 264.071 27.184 264.647 27.184C265.119 27.184 265.511 27.076 265.823 26.86C266.143 26.636 266.367 26.34 266.495 25.972H267.671C267.495 26.604 267.143 27.12 266.615 27.52C266.087 27.912 265.431 28.108 264.647 28.108C264.023 28.108 263.463 27.968 262.967 27.688C262.479 27.408 262.095 27.012 261.815 26.5C261.535 25.98 261.395 25.38 261.395 24.7C261.395 24.02 261.531 23.424 261.803 22.912C262.075 22.4 262.455 22.008 262.943 21.736C263.439 21.456 264.007 21.316 264.647 21.316C265.271 21.316 265.823 21.452 266.303 21.724C266.783 21.996 267.151 22.372 267.407 22.852C267.671 23.324 267.803 23.86 267.803 24.46ZM266.675 24.232C266.675 23.816 266.583 23.46 266.399 23.164C266.215 22.86 265.963 22.632 265.643 22.48C265.331 22.32 264.983 22.24 264.599 22.24C264.047 22.24 263.575 22.416 263.183 22.768C262.799 23.12 262.579 23.608 262.523 24.232H266.675ZM272.448 21.304C273.248 21.304 273.896 21.548 274.392 22.036C274.888 22.516 275.136 23.212 275.136 24.124V28H274.056V24.28C274.056 23.624 273.892 23.124 273.564 22.78C273.236 22.428 272.788 22.252 272.22 22.252C271.644 22.252 271.184 22.432 270.84 22.792C270.504 23.152 270.336 23.676 270.336 24.364V28H269.244V21.424H270.336V22.36C270.552 22.024 270.844 21.764 271.212 21.58C271.588 21.396 272 21.304 272.448 21.304ZM278.252 22.324V26.2C278.252 26.52 278.32 26.748 278.456 26.884C278.592 27.012 278.828 27.076 279.164 27.076H279.968V28H278.984C278.376 28 277.92 27.86 277.616 27.58C277.312 27.3 277.16 26.84 277.16 26.2V22.324H276.308V21.424H277.16V19.768H278.252V21.424H279.968V22.324H278.252Z" fill="#412E46"/>
<rect x="240.5" y="12.5" width="48" height="23" rx="7.5" stroke="black"/>
</svg>
