<svg width="690" height="172" viewBox="0 0 690 172" fill="none" xmlns="http://www.w3.org/2000/svg">
<rect opacity="0.5" width="690" height="172" rx="20" fill="#E5DAE0"/>
<rect x="175" y="72" width="81" height="28" rx="12" fill="#3F2D44"/>
<path d="M194.602 84.098C194.602 84.91 194.322 85.5867 193.762 86.128C193.211 86.66 192.367 86.926 191.228 86.926H189.352V91H188.078V81.242H191.228C192.329 81.242 193.165 81.508 193.734 82.04C194.313 82.572 194.602 83.258 194.602 84.098ZM191.228 85.876C191.937 85.876 192.46 85.722 192.796 85.414C193.132 85.106 193.3 84.6673 193.3 84.098C193.3 82.894 192.609 82.292 191.228 82.292H189.352V85.876H191.228ZM199.531 91.126C198.813 91.126 198.159 90.9627 197.571 90.636C196.993 90.3093 196.535 89.8473 196.199 89.25C195.873 88.6433 195.709 87.9433 195.709 87.15C195.709 86.366 195.877 85.6753 196.213 85.078C196.559 84.4713 197.025 84.0093 197.613 83.692C198.201 83.3653 198.859 83.202 199.587 83.202C200.315 83.202 200.973 83.3653 201.561 83.692C202.149 84.0093 202.611 84.4667 202.947 85.064C203.293 85.6613 203.465 86.3567 203.465 87.15C203.465 87.9433 203.288 88.6433 202.933 89.25C202.588 89.8473 202.117 90.3093 201.519 90.636C200.922 90.9627 200.259 91.126 199.531 91.126ZM199.531 90.006C199.989 90.006 200.418 89.8987 200.819 89.684C201.221 89.4693 201.543 89.1473 201.785 88.718C202.037 88.2887 202.163 87.766 202.163 87.15C202.163 86.534 202.042 86.0113 201.799 85.582C201.557 85.1527 201.239 84.8353 200.847 84.63C200.455 84.4153 200.031 84.308 199.573 84.308C199.107 84.308 198.677 84.4153 198.285 84.63C197.903 84.8353 197.595 85.1527 197.361 85.582C197.128 86.0113 197.011 86.534 197.011 87.15C197.011 87.7753 197.123 88.3027 197.347 88.732C197.581 89.1613 197.889 89.4833 198.271 89.698C198.654 89.9033 199.074 90.006 199.531 90.006ZM204.665 87.136C204.665 86.352 204.823 85.666 205.141 85.078C205.458 84.4807 205.892 84.0187 206.443 83.692C207.003 83.3653 207.628 83.202 208.319 83.202C208.916 83.202 209.471 83.342 209.985 83.622C210.498 83.8927 210.89 84.252 211.161 84.7V80.64H212.449V91H211.161V89.558C210.909 90.0153 210.535 90.3933 210.041 90.692C209.546 90.9813 208.967 91.126 208.305 91.126C207.623 91.126 207.003 90.958 206.443 90.622C205.892 90.286 205.458 89.8147 205.141 89.208C204.823 88.6013 204.665 87.9107 204.665 87.136ZM211.161 87.15C211.161 86.5713 211.044 86.0673 210.811 85.638C210.577 85.2087 210.26 84.882 209.859 84.658C209.467 84.4247 209.033 84.308 208.557 84.308C208.081 84.308 207.647 84.42 207.255 84.644C206.863 84.868 206.55 85.1947 206.317 85.624C206.083 86.0533 205.967 86.5573 205.967 87.136C205.967 87.724 206.083 88.2373 206.317 88.676C206.55 89.1053 206.863 89.4367 207.255 89.67C207.647 89.894 208.081 90.006 208.557 90.006C209.033 90.006 209.467 89.894 209.859 89.67C210.26 89.4367 210.577 89.1053 210.811 88.676C211.044 88.2373 211.161 87.7287 211.161 87.15ZM214.125 87.15C214.125 86.3567 214.284 85.666 214.601 85.078C214.919 84.4807 215.357 84.0187 215.917 83.692C216.487 83.3653 217.135 83.202 217.863 83.202C218.806 83.202 219.581 83.4307 220.187 83.888C220.803 84.3453 221.209 84.98 221.405 85.792H220.033C219.903 85.3253 219.646 84.9567 219.263 84.686C218.89 84.4153 218.423 84.28 217.863 84.28C217.135 84.28 216.547 84.532 216.099 85.036C215.651 85.5307 215.427 86.2353 215.427 87.15C215.427 88.074 215.651 88.788 216.099 89.292C216.547 89.796 217.135 90.048 217.863 90.048C218.423 90.048 218.89 89.9173 219.263 89.656C219.637 89.3947 219.893 89.0213 220.033 88.536H221.405C221.2 89.32 220.789 89.95 220.173 90.426C219.557 90.8927 218.787 91.126 217.863 91.126C217.135 91.126 216.487 90.9627 215.917 90.636C215.357 90.3093 214.919 89.8473 214.601 89.25C214.284 88.6527 214.125 87.9527 214.125 87.15ZM222.629 87.136C222.629 86.352 222.788 85.666 223.105 85.078C223.423 84.4807 223.857 84.0187 224.407 83.692C224.967 83.3653 225.588 83.202 226.269 83.202C226.941 83.202 227.525 83.3467 228.019 83.636C228.514 83.9253 228.883 84.2893 229.125 84.728V83.328H230.413V91H229.125V89.572C228.873 90.02 228.495 90.3933 227.991 90.692C227.497 90.9813 226.918 91.126 226.255 91.126C225.574 91.126 224.958 90.958 224.407 90.622C223.857 90.286 223.423 89.8147 223.105 89.208C222.788 88.6013 222.629 87.9107 222.629 87.136ZM229.125 87.15C229.125 86.5713 229.009 86.0673 228.775 85.638C228.542 85.2087 228.225 84.882 227.823 84.658C227.431 84.4247 226.997 84.308 226.521 84.308C226.045 84.308 225.611 84.42 225.219 84.644C224.827 84.868 224.515 85.1947 224.281 85.624C224.048 86.0533 223.931 86.5573 223.931 87.136C223.931 87.724 224.048 88.2373 224.281 88.676C224.515 89.1053 224.827 89.4367 225.219 89.67C225.611 89.894 226.045 90.006 226.521 90.006C226.997 90.006 227.431 89.894 227.823 89.67C228.225 89.4367 228.542 89.1053 228.775 88.676C229.009 88.2373 229.125 87.7287 229.125 87.15ZM235.282 91.126C234.694 91.126 234.167 91.028 233.7 90.832C233.234 90.6267 232.865 90.3467 232.594 89.992C232.324 89.628 232.174 89.2127 232.146 88.746H233.462C233.5 89.1287 233.677 89.4413 233.994 89.684C234.321 89.9267 234.746 90.048 235.268 90.048C235.754 90.048 236.136 89.9407 236.416 89.726C236.696 89.5113 236.836 89.2407 236.836 88.914C236.836 88.578 236.687 88.3307 236.388 88.172C236.09 88.004 235.628 87.8407 235.002 87.682C234.433 87.5327 233.966 87.3833 233.602 87.234C233.248 87.0753 232.94 86.8467 232.678 86.548C232.426 86.24 232.3 85.8387 232.3 85.344C232.3 84.952 232.417 84.5927 232.65 84.266C232.884 83.9393 233.215 83.6827 233.644 83.496C234.074 83.3 234.564 83.202 235.114 83.202C235.964 83.202 236.65 83.4167 237.172 83.846C237.695 84.2753 237.975 84.8633 238.012 85.61H236.738C236.71 85.2087 236.547 84.8867 236.248 84.644C235.959 84.4013 235.567 84.28 235.072 84.28C234.615 84.28 234.251 84.378 233.98 84.574C233.71 84.77 233.574 85.0267 233.574 85.344C233.574 85.596 233.654 85.806 233.812 85.974C233.98 86.1327 234.186 86.2633 234.428 86.366C234.68 86.4593 235.026 86.5667 235.464 86.688C236.015 86.8373 236.463 86.9867 236.808 87.136C237.154 87.276 237.448 87.4907 237.69 87.78C237.942 88.0693 238.073 88.4473 238.082 88.914C238.082 89.334 237.966 89.712 237.732 90.048C237.499 90.384 237.168 90.65 236.738 90.846C236.318 91.0327 235.833 91.126 235.282 91.126ZM241.435 84.378V88.9C241.435 89.2733 241.514 89.5393 241.673 89.698C241.831 89.8473 242.107 89.922 242.499 89.922H243.437V91H242.289C241.579 91 241.047 90.8367 240.693 90.51C240.338 90.1833 240.161 89.6467 240.161 88.9V84.378H239.167V83.328H240.161V81.396H241.435V83.328H243.437V84.378H241.435Z" fill="#FAF7F3"/>
<path d="M287.91 81.242L284.732 87.318V91H283.458V87.318L280.266 81.242H281.68L284.088 86.184L286.496 81.242H287.91ZM292.6 91.126C291.881 91.126 291.228 90.9627 290.64 90.636C290.061 90.3093 289.604 89.8473 289.268 89.25C288.941 88.6433 288.778 87.9433 288.778 87.15C288.778 86.366 288.946 85.6753 289.282 85.078C289.627 84.4713 290.094 84.0093 290.682 83.692C291.27 83.3653 291.928 83.202 292.656 83.202C293.384 83.202 294.042 83.3653 294.63 83.692C295.218 84.0093 295.68 84.4667 296.016 85.064C296.361 85.6613 296.534 86.3567 296.534 87.15C296.534 87.9433 296.356 88.6433 296.002 89.25C295.656 89.8473 295.185 90.3093 294.588 90.636C293.99 90.9627 293.328 91.126 292.6 91.126ZM292.6 90.006C293.057 90.006 293.486 89.8987 293.888 89.684C294.289 89.4693 294.611 89.1473 294.854 88.718C295.106 88.2887 295.232 87.766 295.232 87.15C295.232 86.534 295.11 86.0113 294.868 85.582C294.625 85.1527 294.308 84.8353 293.916 84.63C293.524 84.4153 293.099 84.308 292.642 84.308C292.175 84.308 291.746 84.4153 291.354 84.63C290.971 84.8353 290.663 85.1527 290.43 85.582C290.196 86.0113 290.08 86.534 290.08 87.15C290.08 87.7753 290.192 88.3027 290.416 88.732C290.649 89.1613 290.957 89.4833 291.34 89.698C291.722 89.9033 292.142 90.006 292.6 90.006ZM305.013 83.328V91H303.739V89.866C303.496 90.258 303.156 90.566 302.717 90.79C302.288 91.0047 301.812 91.112 301.289 91.112C300.692 91.112 300.155 90.9907 299.679 90.748C299.203 90.496 298.825 90.1227 298.545 89.628C298.274 89.1333 298.139 88.5313 298.139 87.822V83.328H299.399V87.654C299.399 88.41 299.59 88.9933 299.973 89.404C300.356 89.8053 300.878 90.006 301.541 90.006C302.222 90.006 302.759 89.796 303.151 89.376C303.543 88.956 303.739 88.3447 303.739 87.542V83.328H305.013ZM313.17 81.242V82.278H310.51V91H309.236V82.278H306.562V81.242H313.17ZM321.542 83.328V91H320.268V89.866C320.025 90.258 319.685 90.566 319.246 90.79C318.817 91.0047 318.341 91.112 317.818 91.112C317.221 91.112 316.684 90.9907 316.208 90.748C315.732 90.496 315.354 90.1227 315.074 89.628C314.803 89.1333 314.668 88.5313 314.668 87.822V83.328H315.928V87.654C315.928 88.41 316.119 88.9933 316.502 89.404C316.885 89.8053 317.407 90.006 318.07 90.006C318.751 90.006 319.288 89.796 319.68 89.376C320.072 88.956 320.268 88.3447 320.268 87.542V83.328H321.542ZM324.967 84.756C325.229 84.2987 325.611 83.9253 326.115 83.636C326.619 83.3467 327.193 83.202 327.837 83.202C328.528 83.202 329.149 83.3653 329.699 83.692C330.25 84.0187 330.684 84.4807 331.001 85.078C331.319 85.666 331.477 86.352 331.477 87.136C331.477 87.9107 331.319 88.6013 331.001 89.208C330.684 89.8147 330.245 90.286 329.685 90.622C329.135 90.958 328.519 91.126 327.837 91.126C327.175 91.126 326.591 90.9813 326.087 90.692C325.593 90.4027 325.219 90.034 324.967 89.586V91H323.693V80.64H324.967V84.756ZM330.175 87.136C330.175 86.5573 330.059 86.0533 329.825 85.624C329.592 85.1947 329.275 84.868 328.873 84.644C328.481 84.42 328.047 84.308 327.571 84.308C327.105 84.308 326.671 84.4247 326.269 84.658C325.877 84.882 325.56 85.2133 325.317 85.652C325.084 86.0813 324.967 86.5807 324.967 87.15C324.967 87.7287 325.084 88.2373 325.317 88.676C325.56 89.1053 325.877 89.4367 326.269 89.67C326.671 89.894 327.105 90.006 327.571 90.006C328.047 90.006 328.481 89.894 328.873 89.67C329.275 89.4367 329.592 89.1053 329.825 88.676C330.059 88.2373 330.175 87.724 330.175 87.136ZM340.154 86.87C340.154 87.1127 340.14 87.3693 340.112 87.64H333.98C334.027 88.396 334.284 88.9887 334.75 89.418C335.226 89.838 335.8 90.048 336.472 90.048C337.023 90.048 337.48 89.922 337.844 89.67C338.218 89.4087 338.479 89.0633 338.628 88.634H340C339.795 89.3713 339.384 89.9733 338.768 90.44C338.152 90.8973 337.387 91.126 336.472 91.126C335.744 91.126 335.091 90.9627 334.512 90.636C333.943 90.3093 333.495 89.8473 333.168 89.25C332.842 88.6433 332.678 87.9433 332.678 87.15C332.678 86.3567 332.837 85.6613 333.154 85.064C333.472 84.4667 333.915 84.0093 334.484 83.692C335.063 83.3653 335.726 83.202 336.472 83.202C337.2 83.202 337.844 83.3607 338.404 83.678C338.964 83.9953 339.394 84.434 339.692 84.994C340 85.5447 340.154 86.17 340.154 86.87ZM338.838 86.604C338.838 86.1187 338.731 85.7033 338.516 85.358C338.302 85.0033 338.008 84.7373 337.634 84.56C337.27 84.3733 336.864 84.28 336.416 84.28C335.772 84.28 335.222 84.4853 334.764 84.896C334.316 85.3067 334.06 85.876 333.994 86.604H338.838Z" fill="#412E46"/>
<rect x="268.5" y="72.5" width="84" height="27" rx="11.5" stroke="black"/>
<path d="M384.602 84.098C384.602 84.91 384.322 85.5867 383.762 86.128C383.211 86.66 382.367 86.926 381.228 86.926H379.352V91H378.078V81.242H381.228C382.329 81.242 383.165 81.508 383.734 82.04C384.313 82.572 384.602 83.258 384.602 84.098ZM381.228 85.876C381.937 85.876 382.46 85.722 382.796 85.414C383.132 85.106 383.3 84.6673 383.3 84.098C383.3 82.894 382.609 82.292 381.228 82.292H379.352V85.876H381.228ZM387.459 84.574C387.683 84.1353 388.001 83.7947 388.411 83.552C388.831 83.3093 389.34 83.188 389.937 83.188V84.504H389.601C388.173 84.504 387.459 85.2787 387.459 86.828V91H386.185V83.328H387.459V84.574ZM394.754 91.126C394.035 91.126 393.382 90.9627 392.794 90.636C392.215 90.3093 391.758 89.8473 391.422 89.25C391.095 88.6433 390.932 87.9433 390.932 87.15C390.932 86.366 391.1 85.6753 391.436 85.078C391.781 84.4713 392.248 84.0093 392.836 83.692C393.424 83.3653 394.082 83.202 394.81 83.202C395.538 83.202 396.196 83.3653 396.784 83.692C397.372 84.0093 397.834 84.4667 398.17 85.064C398.515 85.6613 398.688 86.3567 398.688 87.15C398.688 87.9433 398.511 88.6433 398.156 89.25C397.811 89.8473 397.339 90.3093 396.742 90.636C396.145 90.9627 395.482 91.126 394.754 91.126ZM394.754 90.006C395.211 90.006 395.641 89.8987 396.042 89.684C396.443 89.4693 396.765 89.1473 397.008 88.718C397.26 88.2887 397.386 87.766 397.386 87.15C397.386 86.534 397.265 86.0113 397.022 85.582C396.779 85.1527 396.462 84.8353 396.07 84.63C395.678 84.4153 395.253 84.308 394.796 84.308C394.329 84.308 393.9 84.4153 393.508 84.63C393.125 84.8353 392.817 85.1527 392.584 85.582C392.351 86.0113 392.234 86.534 392.234 87.15C392.234 87.7753 392.346 88.3027 392.57 88.732C392.803 89.1613 393.111 89.4833 393.494 89.698C393.877 89.9033 394.297 90.006 394.754 90.006ZM401.049 82.082C400.806 82.082 400.601 81.998 400.433 81.83C400.274 81.662 400.195 81.4567 400.195 81.214C400.195 80.9713 400.274 80.766 400.433 80.598C400.601 80.43 400.806 80.346 401.049 80.346C401.292 80.346 401.492 80.43 401.651 80.598C401.819 80.766 401.903 80.9713 401.903 81.214C401.903 81.4567 401.819 81.662 401.651 81.83C401.492 81.998 401.292 82.082 401.049 82.082ZM401.679 92.666C401.679 93.3473 401.506 93.8467 401.161 94.164C400.816 94.4813 400.312 94.64 399.649 94.64H398.907V93.562H399.439C399.794 93.562 400.041 93.492 400.181 93.352C400.33 93.212 400.405 92.974 400.405 92.638V83.328H401.679V92.666ZM410.836 86.87C410.836 87.1127 410.822 87.3693 410.794 87.64H404.662C404.708 88.396 404.965 88.9887 405.432 89.418C405.908 89.838 406.482 90.048 407.154 90.048C407.704 90.048 408.162 89.922 408.526 89.67C408.899 89.4087 409.16 89.0633 409.31 88.634H410.682C410.476 89.3713 410.066 89.9733 409.45 90.44C408.834 90.8973 408.068 91.126 407.154 91.126C406.426 91.126 405.772 90.9627 405.194 90.636C404.624 90.3093 404.176 89.8473 403.85 89.25C403.523 88.6433 403.36 87.9433 403.36 87.15C403.36 86.3567 403.518 85.6613 403.836 85.064C404.153 84.4667 404.596 84.0093 405.166 83.692C405.744 83.3653 406.407 83.202 407.154 83.202C407.882 83.202 408.526 83.3607 409.086 83.678C409.646 83.9953 410.075 84.434 410.374 84.994C410.682 85.5447 410.836 86.17 410.836 86.87ZM409.52 86.604C409.52 86.1187 409.412 85.7033 409.198 85.358C408.983 85.0033 408.689 84.7373 408.316 84.56C407.952 84.3733 407.546 84.28 407.098 84.28C406.454 84.28 405.903 84.4853 405.446 84.896C404.998 85.3067 404.741 85.876 404.676 86.604H409.52ZM412.041 87.15C412.041 86.3567 412.2 85.666 412.517 85.078C412.835 84.4807 413.273 84.0187 413.833 83.692C414.403 83.3653 415.051 83.202 415.779 83.202C416.722 83.202 417.497 83.4307 418.103 83.888C418.719 84.3453 419.125 84.98 419.321 85.792H417.949C417.819 85.3253 417.562 84.9567 417.179 84.686C416.806 84.4153 416.339 84.28 415.779 84.28C415.051 84.28 414.463 84.532 414.015 85.036C413.567 85.5307 413.343 86.2353 413.343 87.15C413.343 88.074 413.567 88.788 414.015 89.292C414.463 89.796 415.051 90.048 415.779 90.048C416.339 90.048 416.806 89.9173 417.179 89.656C417.553 89.3947 417.809 89.0213 417.949 88.536H419.321C419.116 89.32 418.705 89.95 418.089 90.426C417.473 90.8927 416.703 91.126 415.779 91.126C415.051 91.126 414.403 90.9627 413.833 90.636C413.273 90.3093 412.835 89.8473 412.517 89.25C412.2 88.6527 412.041 87.9527 412.041 87.15ZM422.575 84.378V88.9C422.575 89.2733 422.655 89.5393 422.813 89.698C422.972 89.8473 423.247 89.922 423.639 89.922H424.577V91H423.429C422.72 91 422.188 90.8367 421.833 90.51C421.479 90.1833 421.301 89.6467 421.301 88.9V84.378H420.307V83.328H421.301V81.396H422.575V83.328H424.577V84.378H422.575Z" fill="#412E46"/>
<rect x="365.5" y="72.5" width="72" height="27" rx="11.5" stroke="black"/>
<path d="M464.352 82.278V85.54H467.908V86.59H464.352V89.95H468.328V91H463.078V81.228H468.328V82.278H464.352ZM473.112 89.824L475.492 83.328H476.85L473.84 91H472.356L469.346 83.328H470.718L473.112 89.824ZM485.103 86.87C485.103 87.1127 485.089 87.3693 485.061 87.64H478.929C478.976 88.396 479.233 88.9887 479.699 89.418C480.175 89.838 480.749 90.048 481.421 90.048C481.972 90.048 482.429 89.922 482.793 89.67C483.167 89.4087 483.428 89.0633 483.577 88.634H484.949C484.744 89.3713 484.333 89.9733 483.717 90.44C483.101 90.8973 482.336 91.126 481.421 91.126C480.693 91.126 480.04 90.9627 479.461 90.636C478.892 90.3093 478.444 89.8473 478.117 89.25C477.791 88.6433 477.627 87.9433 477.627 87.15C477.627 86.3567 477.786 85.6613 478.103 85.064C478.421 84.4667 478.864 84.0093 479.433 83.692C480.012 83.3653 480.675 83.202 481.421 83.202C482.149 83.202 482.793 83.3607 483.353 83.678C483.913 83.9953 484.343 84.434 484.641 84.994C484.949 85.5447 485.103 86.17 485.103 86.87ZM483.787 86.604C483.787 86.1187 483.68 85.7033 483.465 85.358C483.251 85.0033 482.957 84.7373 482.583 84.56C482.219 84.3733 481.813 84.28 481.365 84.28C480.721 84.28 480.171 84.4853 479.713 84.896C479.265 85.3067 479.009 85.876 478.943 86.604H483.787ZM490.523 83.188C491.456 83.188 492.212 83.4727 492.791 84.042C493.37 84.602 493.659 85.414 493.659 86.478V91H492.399V86.66C492.399 85.8947 492.208 85.3113 491.825 84.91C491.442 84.4993 490.92 84.294 490.257 84.294C489.585 84.294 489.048 84.504 488.647 84.924C488.255 85.344 488.059 85.9553 488.059 86.758V91H486.785V83.328H488.059V84.42C488.311 84.028 488.652 83.7247 489.081 83.51C489.52 83.2953 490 83.188 490.523 83.188ZM497.294 84.378V88.9C497.294 89.2733 497.373 89.5393 497.532 89.698C497.691 89.8473 497.966 89.922 498.358 89.922H499.296V91H498.148C497.439 91 496.907 90.8367 496.552 90.51C496.197 90.1833 496.02 89.6467 496.02 88.9V84.378H495.026V83.328H496.02V81.396H497.294V83.328H499.296V84.378H497.294Z" fill="#412E46"/>
<rect x="450.5" y="72.5" width="61" height="27" rx="11.5" stroke="black"/>
</svg>
