<svg width="480" height="172" viewBox="0 0 480 172" fill="none" xmlns="http://www.w3.org/2000/svg">
<rect opacity="0.5" width="480" height="172" rx="20" fill="#E5DAE0"/>
<rect x="72" y="72" width="81" height="28" rx="12" fill="#3F2D44"/>
<path d="M91.602 84.098C91.602 84.91 91.322 85.5867 90.762 86.128C90.2113 86.66 89.3667 86.926 88.228 86.926H86.352V91H85.078V81.242H88.228C89.3293 81.242 90.1647 81.508 90.734 82.04C91.3127 82.572 91.602 83.258 91.602 84.098ZM88.228 85.876C88.9373 85.876 89.46 85.722 89.796 85.414C90.132 85.106 90.3 84.6673 90.3 84.098C90.3 82.894 89.6093 82.292 88.228 82.292H86.352V85.876H88.228ZM96.5314 91.126C95.8128 91.126 95.1594 90.9627 94.5714 90.636C93.9928 90.3093 93.5354 89.8473 93.1994 89.25C92.8728 88.6433 92.7094 87.9433 92.7094 87.15C92.7094 86.366 92.8774 85.6753 93.2134 85.078C93.5588 84.4713 94.0254 84.0093 94.6134 83.692C95.2014 83.3653 95.8594 83.202 96.5874 83.202C97.3154 83.202 97.9734 83.3653 98.5614 83.692C99.1494 84.0093 99.6114 84.4667 99.9474 85.064C100.293 85.6613 100.465 86.3567 100.465 87.15C100.465 87.9433 100.288 88.6433 99.9334 89.25C99.5881 89.8473 99.1168 90.3093 98.5194 90.636C97.9221 90.9627 97.2594 91.126 96.5314 91.126ZM96.5314 90.006C96.9888 90.006 97.4181 89.8987 97.8194 89.684C98.2208 89.4693 98.5428 89.1473 98.7854 88.718C99.0374 88.2887 99.1634 87.766 99.1634 87.15C99.1634 86.534 99.0421 86.0113 98.7994 85.582C98.5568 85.1527 98.2394 84.8353 97.8474 84.63C97.4554 84.4153 97.0308 84.308 96.5734 84.308C96.1068 84.308 95.6774 84.4153 95.2854 84.63C94.9028 84.8353 94.5948 85.1527 94.3614 85.582C94.1281 86.0113 94.0114 86.534 94.0114 87.15C94.0114 87.7753 94.1234 88.3027 94.3474 88.732C94.5808 89.1613 94.8888 89.4833 95.2714 89.698C95.6541 89.9033 96.0741 90.006 96.5314 90.006ZM101.665 87.136C101.665 86.352 101.823 85.666 102.141 85.078C102.458 84.4807 102.892 84.0187 103.443 83.692C104.003 83.3653 104.628 83.202 105.319 83.202C105.916 83.202 106.471 83.342 106.985 83.622C107.498 83.8927 107.89 84.252 108.161 84.7V80.64H109.449V91H108.161V89.558C107.909 90.0153 107.535 90.3933 107.041 90.692C106.546 90.9813 105.967 91.126 105.305 91.126C104.623 91.126 104.003 90.958 103.443 90.622C102.892 90.286 102.458 89.8147 102.141 89.208C101.823 88.6013 101.665 87.9107 101.665 87.136ZM108.161 87.15C108.161 86.5713 108.044 86.0673 107.811 85.638C107.577 85.2087 107.26 84.882 106.859 84.658C106.467 84.4247 106.033 84.308 105.557 84.308C105.081 84.308 104.647 84.42 104.255 84.644C103.863 84.868 103.55 85.1947 103.317 85.624C103.083 86.0533 102.967 86.5573 102.967 87.136C102.967 87.724 103.083 88.2373 103.317 88.676C103.55 89.1053 103.863 89.4367 104.255 89.67C104.647 89.894 105.081 90.006 105.557 90.006C106.033 90.006 106.467 89.894 106.859 89.67C107.26 89.4367 107.577 89.1053 107.811 88.676C108.044 88.2373 108.161 87.7287 108.161 87.15ZM111.125 87.15C111.125 86.3567 111.284 85.666 111.601 85.078C111.919 84.4807 112.357 84.0187 112.917 83.692C113.487 83.3653 114.135 83.202 114.863 83.202C115.806 83.202 116.581 83.4307 117.187 83.888C117.803 84.3453 118.209 84.98 118.405 85.792H117.033C116.903 85.3253 116.646 84.9567 116.263 84.686C115.89 84.4153 115.423 84.28 114.863 84.28C114.135 84.28 113.547 84.532 113.099 85.036C112.651 85.5307 112.427 86.2353 112.427 87.15C112.427 88.074 112.651 88.788 113.099 89.292C113.547 89.796 114.135 90.048 114.863 90.048C115.423 90.048 115.89 89.9173 116.263 89.656C116.637 89.3947 116.893 89.0213 117.033 88.536H118.405C118.2 89.32 117.789 89.95 117.173 90.426C116.557 90.8927 115.787 91.126 114.863 91.126C114.135 91.126 113.487 90.9627 112.917 90.636C112.357 90.3093 111.919 89.8473 111.601 89.25C111.284 88.6527 111.125 87.9527 111.125 87.15ZM119.629 87.136C119.629 86.352 119.788 85.666 120.105 85.078C120.423 84.4807 120.857 84.0187 121.407 83.692C121.967 83.3653 122.588 83.202 123.269 83.202C123.941 83.202 124.525 83.3467 125.019 83.636C125.514 83.9253 125.883 84.2893 126.125 84.728V83.328H127.413V91H126.125V89.572C125.873 90.02 125.495 90.3933 124.991 90.692C124.497 90.9813 123.918 91.126 123.255 91.126C122.574 91.126 121.958 90.958 121.407 90.622C120.857 90.286 120.423 89.8147 120.105 89.208C119.788 88.6013 119.629 87.9107 119.629 87.136ZM126.125 87.15C126.125 86.5713 126.009 86.0673 125.775 85.638C125.542 85.2087 125.225 84.882 124.823 84.658C124.431 84.4247 123.997 84.308 123.521 84.308C123.045 84.308 122.611 84.42 122.219 84.644C121.827 84.868 121.515 85.1947 121.281 85.624C121.048 86.0533 120.931 86.5573 120.931 87.136C120.931 87.724 121.048 88.2373 121.281 88.676C121.515 89.1053 121.827 89.4367 122.219 89.67C122.611 89.894 123.045 90.006 123.521 90.006C123.997 90.006 124.431 89.894 124.823 89.67C125.225 89.4367 125.542 89.1053 125.775 88.676C126.009 88.2373 126.125 87.7287 126.125 87.15ZM132.282 91.126C131.694 91.126 131.167 91.028 130.7 90.832C130.234 90.6267 129.865 90.3467 129.594 89.992C129.324 89.628 129.174 89.2127 129.146 88.746H130.462C130.5 89.1287 130.677 89.4413 130.994 89.684C131.321 89.9267 131.746 90.048 132.268 90.048C132.754 90.048 133.136 89.9407 133.416 89.726C133.696 89.5113 133.836 89.2407 133.836 88.914C133.836 88.578 133.687 88.3307 133.388 88.172C133.09 88.004 132.628 87.8407 132.002 87.682C131.433 87.5327 130.966 87.3833 130.602 87.234C130.248 87.0753 129.94 86.8467 129.678 86.548C129.426 86.24 129.3 85.8387 129.3 85.344C129.3 84.952 129.417 84.5927 129.65 84.266C129.884 83.9393 130.215 83.6827 130.644 83.496C131.074 83.3 131.564 83.202 132.114 83.202C132.964 83.202 133.65 83.4167 134.172 83.846C134.695 84.2753 134.975 84.8633 135.012 85.61H133.738C133.71 85.2087 133.547 84.8867 133.248 84.644C132.959 84.4013 132.567 84.28 132.072 84.28C131.615 84.28 131.251 84.378 130.98 84.574C130.71 84.77 130.574 85.0267 130.574 85.344C130.574 85.596 130.654 85.806 130.812 85.974C130.98 86.1327 131.186 86.2633 131.428 86.366C131.68 86.4593 132.026 86.5667 132.464 86.688C133.015 86.8373 133.463 86.9867 133.808 87.136C134.154 87.276 134.448 87.4907 134.69 87.78C134.942 88.0693 135.073 88.4473 135.082 88.914C135.082 89.334 134.966 89.712 134.732 90.048C134.499 90.384 134.168 90.65 133.738 90.846C133.318 91.0327 132.833 91.126 132.282 91.126ZM138.435 84.378V88.9C138.435 89.2733 138.514 89.5393 138.673 89.698C138.831 89.8473 139.107 89.922 139.499 89.922H140.437V91H139.289C138.579 91 138.047 90.8367 137.693 90.51C137.338 90.1833 137.161 89.6467 137.161 88.9V84.378H136.167V83.328H137.161V81.396H138.435V83.328H140.437V84.378H138.435Z" fill="#FAF7F3"/>
<path d="M184.91 81.242L181.732 87.318V91H180.458V87.318L177.266 81.242H178.68L181.088 86.184L183.496 81.242H184.91ZM189.6 91.126C188.881 91.126 188.228 90.9627 187.64 90.636C187.061 90.3093 186.604 89.8473 186.268 89.25C185.941 88.6433 185.778 87.9433 185.778 87.15C185.778 86.366 185.946 85.6753 186.282 85.078C186.627 84.4713 187.094 84.0093 187.682 83.692C188.27 83.3653 188.928 83.202 189.656 83.202C190.384 83.202 191.042 83.3653 191.63 83.692C192.218 84.0093 192.68 84.4667 193.016 85.064C193.361 85.6613 193.534 86.3567 193.534 87.15C193.534 87.9433 193.356 88.6433 193.002 89.25C192.656 89.8473 192.185 90.3093 191.588 90.636C190.99 90.9627 190.328 91.126 189.6 91.126ZM189.6 90.006C190.057 90.006 190.486 89.8987 190.888 89.684C191.289 89.4693 191.611 89.1473 191.854 88.718C192.106 88.2887 192.232 87.766 192.232 87.15C192.232 86.534 192.11 86.0113 191.868 85.582C191.625 85.1527 191.308 84.8353 190.916 84.63C190.524 84.4153 190.099 84.308 189.642 84.308C189.175 84.308 188.746 84.4153 188.354 84.63C187.971 84.8353 187.663 85.1527 187.43 85.582C187.196 86.0113 187.08 86.534 187.08 87.15C187.08 87.7753 187.192 88.3027 187.416 88.732C187.649 89.1613 187.957 89.4833 188.34 89.698C188.722 89.9033 189.142 90.006 189.6 90.006ZM202.013 83.328V91H200.739V89.866C200.496 90.258 200.156 90.566 199.717 90.79C199.288 91.0047 198.812 91.112 198.289 91.112C197.692 91.112 197.155 90.9907 196.679 90.748C196.203 90.496 195.825 90.1227 195.545 89.628C195.274 89.1333 195.139 88.5313 195.139 87.822V83.328H196.399V87.654C196.399 88.41 196.59 88.9933 196.973 89.404C197.356 89.8053 197.878 90.006 198.541 90.006C199.222 90.006 199.759 89.796 200.151 89.376C200.543 88.956 200.739 88.3447 200.739 87.542V83.328H202.013ZM210.17 81.242V82.278H207.51V91H206.236V82.278H203.562V81.242H210.17ZM218.542 83.328V91H217.268V89.866C217.025 90.258 216.685 90.566 216.246 90.79C215.817 91.0047 215.341 91.112 214.818 91.112C214.221 91.112 213.684 90.9907 213.208 90.748C212.732 90.496 212.354 90.1227 212.074 89.628C211.803 89.1333 211.668 88.5313 211.668 87.822V83.328H212.928V87.654C212.928 88.41 213.119 88.9933 213.502 89.404C213.885 89.8053 214.407 90.006 215.07 90.006C215.751 90.006 216.288 89.796 216.68 89.376C217.072 88.956 217.268 88.3447 217.268 87.542V83.328H218.542ZM221.967 84.756C222.229 84.2987 222.611 83.9253 223.115 83.636C223.619 83.3467 224.193 83.202 224.837 83.202C225.528 83.202 226.149 83.3653 226.699 83.692C227.25 84.0187 227.684 84.4807 228.001 85.078C228.319 85.666 228.477 86.352 228.477 87.136C228.477 87.9107 228.319 88.6013 228.001 89.208C227.684 89.8147 227.245 90.286 226.685 90.622C226.135 90.958 225.519 91.126 224.837 91.126C224.175 91.126 223.591 90.9813 223.087 90.692C222.593 90.4027 222.219 90.034 221.967 89.586V91H220.693V80.64H221.967V84.756ZM227.175 87.136C227.175 86.5573 227.059 86.0533 226.825 85.624C226.592 85.1947 226.275 84.868 225.873 84.644C225.481 84.42 225.047 84.308 224.571 84.308C224.105 84.308 223.671 84.4247 223.269 84.658C222.877 84.882 222.56 85.2133 222.317 85.652C222.084 86.0813 221.967 86.5807 221.967 87.15C221.967 87.7287 222.084 88.2373 222.317 88.676C222.56 89.1053 222.877 89.4367 223.269 89.67C223.671 89.894 224.105 90.006 224.571 90.006C225.047 90.006 225.481 89.894 225.873 89.67C226.275 89.4367 226.592 89.1053 226.825 88.676C227.059 88.2373 227.175 87.724 227.175 87.136ZM237.154 86.87C237.154 87.1127 237.14 87.3693 237.112 87.64H230.98C231.027 88.396 231.284 88.9887 231.75 89.418C232.226 89.838 232.8 90.048 233.472 90.048C234.023 90.048 234.48 89.922 234.844 89.67C235.218 89.4087 235.479 89.0633 235.628 88.634H237C236.795 89.3713 236.384 89.9733 235.768 90.44C235.152 90.8973 234.387 91.126 233.472 91.126C232.744 91.126 232.091 90.9627 231.512 90.636C230.943 90.3093 230.495 89.8473 230.168 89.25C229.842 88.6433 229.678 87.9433 229.678 87.15C229.678 86.3567 229.837 85.6613 230.154 85.064C230.472 84.4667 230.915 84.0093 231.484 83.692C232.063 83.3653 232.726 83.202 233.472 83.202C234.2 83.202 234.844 83.3607 235.404 83.678C235.964 83.9953 236.394 84.434 236.692 84.994C237 85.5447 237.154 86.17 237.154 86.87ZM235.838 86.604C235.838 86.1187 235.731 85.7033 235.516 85.358C235.302 85.0033 235.008 84.7373 234.634 84.56C234.27 84.3733 233.864 84.28 233.416 84.28C232.772 84.28 232.222 84.4853 231.764 84.896C231.316 85.3067 231.06 85.876 230.994 86.604H235.838Z" fill="#412E46"/>
<rect x="165.5" y="72.5" width="84" height="27" rx="11.5" stroke="black"/>
<path d="M281.602 84.098C281.602 84.91 281.322 85.5867 280.762 86.128C280.211 86.66 279.367 86.926 278.228 86.926H276.352V91H275.078V81.242H278.228C279.329 81.242 280.165 81.508 280.734 82.04C281.313 82.572 281.602 83.258 281.602 84.098ZM278.228 85.876C278.937 85.876 279.46 85.722 279.796 85.414C280.132 85.106 280.3 84.6673 280.3 84.098C280.3 82.894 279.609 82.292 278.228 82.292H276.352V85.876H278.228ZM284.459 84.574C284.683 84.1353 285.001 83.7947 285.411 83.552C285.831 83.3093 286.34 83.188 286.937 83.188V84.504H286.601C285.173 84.504 284.459 85.2787 284.459 86.828V91H283.185V83.328H284.459V84.574ZM291.754 91.126C291.035 91.126 290.382 90.9627 289.794 90.636C289.215 90.3093 288.758 89.8473 288.422 89.25C288.095 88.6433 287.932 87.9433 287.932 87.15C287.932 86.366 288.1 85.6753 288.436 85.078C288.781 84.4713 289.248 84.0093 289.836 83.692C290.424 83.3653 291.082 83.202 291.81 83.202C292.538 83.202 293.196 83.3653 293.784 83.692C294.372 84.0093 294.834 84.4667 295.17 85.064C295.515 85.6613 295.688 86.3567 295.688 87.15C295.688 87.9433 295.511 88.6433 295.156 89.25C294.811 89.8473 294.339 90.3093 293.742 90.636C293.145 90.9627 292.482 91.126 291.754 91.126ZM291.754 90.006C292.211 90.006 292.641 89.8987 293.042 89.684C293.443 89.4693 293.765 89.1473 294.008 88.718C294.26 88.2887 294.386 87.766 294.386 87.15C294.386 86.534 294.265 86.0113 294.022 85.582C293.779 85.1527 293.462 84.8353 293.07 84.63C292.678 84.4153 292.253 84.308 291.796 84.308C291.329 84.308 290.9 84.4153 290.508 84.63C290.125 84.8353 289.817 85.1527 289.584 85.582C289.351 86.0113 289.234 86.534 289.234 87.15C289.234 87.7753 289.346 88.3027 289.57 88.732C289.803 89.1613 290.111 89.4833 290.494 89.698C290.877 89.9033 291.297 90.006 291.754 90.006ZM298.049 82.082C297.806 82.082 297.601 81.998 297.433 81.83C297.274 81.662 297.195 81.4567 297.195 81.214C297.195 80.9713 297.274 80.766 297.433 80.598C297.601 80.43 297.806 80.346 298.049 80.346C298.292 80.346 298.492 80.43 298.651 80.598C298.819 80.766 298.903 80.9713 298.903 81.214C298.903 81.4567 298.819 81.662 298.651 81.83C298.492 81.998 298.292 82.082 298.049 82.082ZM298.679 92.666C298.679 93.3473 298.506 93.8467 298.161 94.164C297.816 94.4813 297.312 94.64 296.649 94.64H295.907V93.562H296.439C296.794 93.562 297.041 93.492 297.181 93.352C297.33 93.212 297.405 92.974 297.405 92.638V83.328H298.679V92.666ZM307.836 86.87C307.836 87.1127 307.822 87.3693 307.794 87.64H301.662C301.708 88.396 301.965 88.9887 302.432 89.418C302.908 89.838 303.482 90.048 304.154 90.048C304.704 90.048 305.162 89.922 305.526 89.67C305.899 89.4087 306.16 89.0633 306.31 88.634H307.682C307.476 89.3713 307.066 89.9733 306.45 90.44C305.834 90.8973 305.068 91.126 304.154 91.126C303.426 91.126 302.772 90.9627 302.194 90.636C301.624 90.3093 301.176 89.8473 300.85 89.25C300.523 88.6433 300.36 87.9433 300.36 87.15C300.36 86.3567 300.518 85.6613 300.836 85.064C301.153 84.4667 301.596 84.0093 302.166 83.692C302.744 83.3653 303.407 83.202 304.154 83.202C304.882 83.202 305.526 83.3607 306.086 83.678C306.646 83.9953 307.075 84.434 307.374 84.994C307.682 85.5447 307.836 86.17 307.836 86.87ZM306.52 86.604C306.52 86.1187 306.412 85.7033 306.198 85.358C305.983 85.0033 305.689 84.7373 305.316 84.56C304.952 84.3733 304.546 84.28 304.098 84.28C303.454 84.28 302.903 84.4853 302.446 84.896C301.998 85.3067 301.741 85.876 301.676 86.604H306.52ZM309.041 87.15C309.041 86.3567 309.2 85.666 309.517 85.078C309.835 84.4807 310.273 84.0187 310.833 83.692C311.403 83.3653 312.051 83.202 312.779 83.202C313.722 83.202 314.497 83.4307 315.103 83.888C315.719 84.3453 316.125 84.98 316.321 85.792H314.949C314.819 85.3253 314.562 84.9567 314.179 84.686C313.806 84.4153 313.339 84.28 312.779 84.28C312.051 84.28 311.463 84.532 311.015 85.036C310.567 85.5307 310.343 86.2353 310.343 87.15C310.343 88.074 310.567 88.788 311.015 89.292C311.463 89.796 312.051 90.048 312.779 90.048C313.339 90.048 313.806 89.9173 314.179 89.656C314.553 89.3947 314.809 89.0213 314.949 88.536H316.321C316.116 89.32 315.705 89.95 315.089 90.426C314.473 90.8927 313.703 91.126 312.779 91.126C312.051 91.126 311.403 90.9627 310.833 90.636C310.273 90.3093 309.835 89.8473 309.517 89.25C309.2 88.6527 309.041 87.9527 309.041 87.15ZM319.575 84.378V88.9C319.575 89.2733 319.655 89.5393 319.813 89.698C319.972 89.8473 320.247 89.922 320.639 89.922H321.577V91H320.429C319.72 91 319.188 90.8367 318.833 90.51C318.479 90.1833 318.301 89.6467 318.301 88.9V84.378H317.307V83.328H318.301V81.396H319.575V83.328H321.577V84.378H319.575Z" fill="#412E46"/>
<rect x="262.5" y="72.5" width="72" height="27" rx="11.5" stroke="black"/>
<path d="M361.352 82.278V85.54H364.908V86.59H361.352V89.95H365.328V91H360.078V81.228H365.328V82.278H361.352ZM370.112 89.824L372.492 83.328H373.85L370.84 91H369.356L366.346 83.328H367.718L370.112 89.824ZM382.103 86.87C382.103 87.1127 382.089 87.3693 382.061 87.64H375.929C375.976 88.396 376.233 88.9887 376.699 89.418C377.175 89.838 377.749 90.048 378.421 90.048C378.972 90.048 379.429 89.922 379.793 89.67C380.167 89.4087 380.428 89.0633 380.577 88.634H381.949C381.744 89.3713 381.333 89.9733 380.717 90.44C380.101 90.8973 379.336 91.126 378.421 91.126C377.693 91.126 377.04 90.9627 376.461 90.636C375.892 90.3093 375.444 89.8473 375.117 89.25C374.791 88.6433 374.627 87.9433 374.627 87.15C374.627 86.3567 374.786 85.6613 375.103 85.064C375.421 84.4667 375.864 84.0093 376.433 83.692C377.012 83.3653 377.675 83.202 378.421 83.202C379.149 83.202 379.793 83.3607 380.353 83.678C380.913 83.9953 381.343 84.434 381.641 84.994C381.949 85.5447 382.103 86.17 382.103 86.87ZM380.787 86.604C380.787 86.1187 380.68 85.7033 380.465 85.358C380.251 85.0033 379.957 84.7373 379.583 84.56C379.219 84.3733 378.813 84.28 378.365 84.28C377.721 84.28 377.171 84.4853 376.713 84.896C376.265 85.3067 376.009 85.876 375.943 86.604H380.787ZM387.523 83.188C388.456 83.188 389.212 83.4727 389.791 84.042C390.37 84.602 390.659 85.414 390.659 86.478V91H389.399V86.66C389.399 85.8947 389.208 85.3113 388.825 84.91C388.442 84.4993 387.92 84.294 387.257 84.294C386.585 84.294 386.048 84.504 385.647 84.924C385.255 85.344 385.059 85.9553 385.059 86.758V91H383.785V83.328H385.059V84.42C385.311 84.028 385.652 83.7247 386.081 83.51C386.52 83.2953 387 83.188 387.523 83.188ZM394.294 84.378V88.9C394.294 89.2733 394.373 89.5393 394.532 89.698C394.691 89.8473 394.966 89.922 395.358 89.922H396.296V91H395.148C394.439 91 393.907 90.8367 393.552 90.51C393.197 90.1833 393.02 89.6467 393.02 88.9V84.378H392.026V83.328H393.02V81.396H394.294V83.328H396.296V84.378H394.294Z" fill="#412E46"/>
<rect x="347.5" y="72.5" width="61" height="27" rx="11.5" stroke="black"/>
</svg>
