<svg width="320" height="72" viewBox="0 0 320 72" fill="none" xmlns="http://www.w3.org/2000/svg">
<rect opacity="0.5" width="320" height="72" rx="12" fill="#E5DAE0"/>
<circle cx="154" cy="36" r="24" fill="#7B4865"/>
<path d="M146.5 31.125V29.9948C146.501 29.7978 146.58 29.6093 146.719 29.4699C146.859 29.3306 147.047 29.2516 147.244 29.25H160.756C161.167 29.25 161.5 29.5838 161.5 29.9948V42.0052C161.499 42.2022 161.42 42.3907 161.281 42.5301C161.141 42.6694 160.953 42.7484 160.756 42.75H147.244C147.047 42.7498 146.857 42.6712 146.718 42.5316C146.578 42.392 146.5 42.2026 146.5 42.0052V41.25H160V32.475L154 37.875L146.5 31.125ZM145 34.5H148.75V36H145V34.5ZM145 38.25H151V39.75H145V38.25Z" fill="white"/>
</svg>
