<svg width="690" height="244" viewBox="0 0 690 244" fill="none" xmlns="http://www.w3.org/2000/svg">
<rect width="690" height="244" rx="20" fill="#F2ECEF"/>
<circle cx="345" cy="122" r="50" fill="#7B4865"/>
<g clip-path="url(#clip0)">
<path d="M329.375 111.844V109.489C329.378 109.079 329.542 108.686 329.832 108.396C330.122 108.105 330.515 107.941 330.925 107.938H359.075C359.931 107.938 360.625 108.633 360.625 109.489V134.511C360.622 134.921 360.458 135.314 360.168 135.604C359.878 135.895 359.485 136.059 359.075 136.062H330.925C330.514 136.062 330.12 135.898 329.829 135.608C329.538 135.317 329.375 134.922 329.375 134.511V132.938H357.5V114.656L345 125.906L329.375 111.844ZM326.25 118.875H334.062V122H326.25V118.875ZM326.25 126.688H338.75V129.812H326.25V126.688Z" fill="white"/>
</g>
<defs>
<clipPath id="clip0">
<rect width="37.5" height="37.5" fill="white" transform="translate(326.25 103.25)"/>
</clipPath>
</defs>
</svg>
