<svg width="480" height="244" viewBox="0 0 480 244" fill="none" xmlns="http://www.w3.org/2000/svg">
<rect width="480" height="244" rx="20" fill="#F2ECEF"/>
<circle cx="240" cy="122" r="50" fill="#7B4865"/>
<g clip-path="url(#clip0)">
<path d="M224.375 111.844V109.489C224.378 109.079 224.542 108.686 224.832 108.396C225.122 108.105 225.515 107.941 225.925 107.938H254.075C254.931 107.938 255.625 108.633 255.625 109.489V134.511C255.622 134.921 255.458 135.314 255.168 135.604C254.878 135.895 254.485 136.059 254.075 136.062H225.925C225.514 136.062 225.12 135.898 224.829 135.608C224.538 135.317 224.375 134.922 224.375 134.511V132.938H252.5V114.656L240 125.906L224.375 111.844ZM221.25 118.875H229.062V122H221.25V118.875ZM221.25 126.688H233.75V129.812H221.25V126.688Z" fill="white"/>
</g>
<defs>
<clipPath id="clip0">
<rect width="37.5" height="37.5" fill="white" transform="translate(221.25 103.25)"/>
</clipPath>
</defs>
</svg>
