<svg width="690" height="204" viewBox="0 0 690 204" fill="none" xmlns="http://www.w3.org/2000/svg">
<rect width="690" height="204" rx="20" fill="#F2ECEF"/>
<rect x="140.5" y="72.5" width="409" height="59" rx="11.5" stroke="#979592" stroke-dasharray="2 2"/>
<path d="M275.883 97.7582L277.062 98.9374C277.604 99.4791 278.034 100.122 278.327 100.83C278.62 101.538 278.771 102.296 278.771 103.062C278.771 103.828 278.62 104.587 278.327 105.295C278.034 106.003 277.604 106.646 277.062 107.187L276.767 107.482C275.673 108.576 274.189 109.19 272.642 109.19C271.095 109.19 269.611 108.576 268.517 107.482C267.423 106.388 266.809 104.904 266.809 103.357C266.809 101.809 267.423 100.326 268.517 99.2315L269.696 100.411C269.307 100.797 268.997 101.256 268.785 101.763C268.574 102.269 268.464 102.812 268.463 103.361C268.462 103.909 268.569 104.453 268.778 104.96C268.988 105.467 269.295 105.928 269.683 106.316C270.071 106.704 270.532 107.012 271.039 107.221C271.547 107.431 272.09 107.538 272.639 107.537C273.188 107.535 273.731 107.426 274.237 107.214C274.743 107.002 275.203 106.693 275.589 106.303L275.884 106.008C276.665 105.227 277.104 104.167 277.104 103.062C277.104 101.958 276.665 100.898 275.884 100.117L274.705 98.9374L275.884 97.759L275.883 97.7582ZM281.481 102.767L280.303 101.589C280.693 101.203 281.002 100.743 281.214 100.237C281.426 99.7308 281.535 99.1877 281.536 98.639C281.538 98.0903 281.43 97.5468 281.221 97.0396C281.012 96.5324 280.704 96.0716 280.316 95.6836C279.928 95.2956 279.467 94.9881 278.96 94.7786C278.453 94.5692 277.909 94.462 277.361 94.4632C276.812 94.4644 276.269 94.574 275.763 94.7856C275.256 94.9973 274.797 95.3068 274.411 95.6965L274.116 95.9915C273.334 96.7729 272.896 97.8325 272.896 98.9374C272.896 100.042 273.334 101.102 274.116 101.883L275.295 103.062L274.116 104.241L272.937 103.062C272.395 102.521 271.966 101.878 271.673 101.17C271.379 100.462 271.228 99.7035 271.228 98.9374C271.228 98.1713 271.379 97.4127 271.673 96.7049C271.966 95.9971 272.395 95.3541 272.937 94.8124L273.232 94.5182C274.326 93.4242 275.81 92.8096 277.357 92.8096C278.904 92.8096 280.388 93.4242 281.482 94.5182C282.576 95.6122 283.191 97.096 283.191 98.6432C283.191 100.19 282.576 101.674 281.482 102.768L281.481 102.767Z" fill="#412E46"/>
<path d="M299.364 98.823L296.1 107H294.485L291.17 98.823H292.972L295.301 105.13L297.647 98.823H299.364ZM301.681 102.07H306.152C306.13 101.458 305.926 100.959 305.54 100.574C305.155 100.177 304.611 99.979 303.908 99.979C303.274 99.979 302.752 100.189 302.344 100.608C301.936 101.016 301.715 101.503 301.681 102.07ZM306.39 104.195L307.767 104.671C307.529 105.43 307.087 106.054 306.441 106.541C305.795 107.017 305.013 107.255 304.095 107.255C302.951 107.255 301.976 106.864 301.171 106.082C300.378 105.289 299.981 104.223 299.981 102.886C299.981 101.639 300.367 100.608 301.137 99.792C301.908 98.976 302.826 98.568 303.891 98.568C305.127 98.568 306.09 98.959 306.781 99.741C307.473 100.512 307.818 101.549 307.818 102.852C307.818 103.056 307.807 103.226 307.784 103.362H301.63C301.642 104.087 301.88 104.682 302.344 105.147C302.82 105.612 303.404 105.844 304.095 105.844C305.263 105.844 306.028 105.294 306.39 104.195ZM311.456 107H309.858V94.692H311.456V107ZM321.178 98.823L317.914 107H316.299L312.984 98.823H314.786L317.115 105.13L319.461 98.823H321.178ZM323.496 102.07H327.967C327.944 101.458 327.74 100.959 327.355 100.574C326.969 100.177 326.425 99.979 325.723 99.979C325.088 99.979 324.567 100.189 324.159 100.608C323.751 101.016 323.53 101.503 323.496 102.07ZM328.205 104.195L329.582 104.671C329.344 105.43 328.902 106.054 328.256 106.541C327.61 107.017 326.828 107.255 325.91 107.255C324.765 107.255 323.79 106.864 322.986 106.082C322.192 105.289 321.796 104.223 321.796 102.886C321.796 101.639 322.181 100.608 322.952 99.792C323.722 98.976 324.64 98.568 325.706 98.568C326.941 98.568 327.904 98.959 328.596 99.741C329.287 100.512 329.633 101.549 329.633 102.852C329.633 103.056 329.621 103.226 329.599 103.362H323.445C323.456 104.087 323.694 104.682 324.159 105.147C324.635 105.612 325.218 105.844 325.91 105.844C327.077 105.844 327.842 105.294 328.205 104.195ZM333.815 96.239V98.823H335.583V100.268H333.815V104.518C333.815 104.903 333.9 105.187 334.07 105.368C334.251 105.549 334.546 105.64 334.954 105.64C335.192 105.64 335.401 105.617 335.583 105.572V106.932C335.311 107.034 334.948 107.085 334.495 107.085C333.792 107.085 333.237 106.881 332.829 106.473C332.421 106.065 332.217 105.493 332.217 104.756V100.268H330.653V98.823H331.095C331.514 98.823 331.826 98.7097 332.03 98.483C332.245 98.245 332.353 97.939 332.353 97.565V96.239H333.815ZM337.885 106.745C337.659 106.518 337.545 106.241 337.545 105.912C337.545 105.583 337.659 105.306 337.885 105.079C338.112 104.841 338.39 104.722 338.718 104.722C339.047 104.722 339.325 104.841 339.551 105.079C339.789 105.306 339.908 105.583 339.908 105.912C339.908 106.241 339.789 106.518 339.551 106.745C339.325 106.972 339.047 107.085 338.718 107.085C338.39 107.085 338.112 106.972 337.885 106.745ZM344.062 107H342.464V94.692H344.062V107ZM348.361 107H346.78V98.823H348.361V107ZM346.746 96.545C346.531 96.3183 346.423 96.0463 346.423 95.729C346.423 95.4117 346.531 95.1397 346.746 94.913C346.973 94.6863 347.245 94.573 347.562 94.573C347.879 94.573 348.151 94.6863 348.378 94.913C348.605 95.1283 348.718 95.4003 348.718 95.729C348.718 96.0463 348.605 96.3183 348.378 96.545C348.151 96.7603 347.879 96.868 347.562 96.868C347.245 96.868 346.973 96.7603 346.746 96.545ZM357.098 94.947L351.267 107H349.72L355.551 94.947H357.098ZM362.726 98.823H364.375L366.5 104.977L368.302 98.823H369.985L367.333 107H365.684L363.508 100.778L361.383 107H359.7L357.014 98.823H358.765L360.601 104.977L362.726 98.823ZM372.47 102.07H376.941C376.919 101.458 376.715 100.959 376.329 100.574C375.944 100.177 375.4 99.979 374.697 99.979C374.063 99.979 373.541 100.189 373.133 100.608C372.725 101.016 372.504 101.503 372.47 102.07ZM377.179 104.195L378.556 104.671C378.318 105.43 377.876 106.054 377.23 106.541C376.584 107.017 375.802 107.255 374.884 107.255C373.74 107.255 372.765 106.864 371.96 106.082C371.167 105.289 370.77 104.223 370.77 102.886C370.77 101.639 371.156 100.608 371.926 99.792C372.697 98.976 373.615 98.568 374.68 98.568C375.916 98.568 376.879 98.959 377.57 99.741C378.262 100.512 378.607 101.549 378.607 102.852C378.607 103.056 378.596 103.226 378.573 103.362H372.419C372.431 104.087 372.669 104.682 373.133 105.147C373.609 105.612 374.193 105.844 374.884 105.844C376.052 105.844 376.817 105.294 377.179 104.195ZM382.245 107H380.647V94.692H382.245V107ZM388.398 100.047C387.706 100.047 387.117 100.296 386.63 100.795C386.154 101.294 385.916 101.996 385.916 102.903C385.916 103.798 386.154 104.501 386.63 105.011C387.117 105.521 387.712 105.776 388.415 105.776C389.095 105.776 389.61 105.606 389.962 105.266C390.324 104.926 390.568 104.535 390.693 104.093L392.104 104.705C391.877 105.385 391.446 105.98 390.812 106.49C390.188 107 389.389 107.255 388.415 107.255C387.225 107.255 386.239 106.841 385.457 106.014C384.675 105.187 384.284 104.15 384.284 102.903C384.284 101.634 384.675 100.597 385.457 99.792C386.239 98.976 387.219 98.568 388.398 98.568C389.395 98.568 390.2 98.823 390.812 99.333C391.435 99.843 391.843 100.455 392.036 101.169L390.591 101.781C390.466 101.305 390.228 100.897 389.877 100.557C389.525 100.217 389.032 100.047 388.398 100.047ZM395.578 105.062C396.077 105.572 396.683 105.827 397.397 105.827C398.111 105.827 398.712 105.572 399.199 105.062C399.698 104.541 399.947 103.821 399.947 102.903C399.947 101.996 399.698 101.288 399.199 100.778C398.712 100.257 398.111 99.996 397.397 99.996C396.683 99.996 396.077 100.257 395.578 100.778C395.091 101.288 394.847 101.996 394.847 102.903C394.847 103.821 395.091 104.541 395.578 105.062ZM394.388 99.809C395.181 98.9817 396.184 98.568 397.397 98.568C398.61 98.568 399.607 98.9817 400.389 99.809C401.182 100.625 401.579 101.656 401.579 102.903C401.579 104.161 401.188 105.204 400.406 106.031C399.624 106.847 398.621 107.255 397.397 107.255C396.173 107.255 395.17 106.847 394.388 106.031C393.606 105.204 393.215 104.161 393.215 102.903C393.215 101.656 393.606 100.625 394.388 99.809ZM405.205 107H403.624V98.823H405.154V99.911C405.403 99.4803 405.754 99.1517 406.208 98.925C406.661 98.6983 407.137 98.585 407.636 98.585C408.168 98.585 408.656 98.7153 409.098 98.976C409.54 99.2367 409.868 99.622 410.084 100.132C410.65 99.1007 411.563 98.585 412.821 98.585C413.603 98.585 414.266 98.8513 414.81 99.384C415.365 99.9167 415.643 100.687 415.643 101.696V107H414.062V101.866C414.062 101.299 413.914 100.846 413.62 100.506C413.336 100.166 412.906 99.996 412.328 99.996C411.772 99.996 411.319 100.194 410.968 100.591C410.616 100.976 410.441 101.464 410.441 102.053V107H408.843V101.866C408.843 101.299 408.695 100.846 408.401 100.506C408.117 100.166 407.687 99.996 407.109 99.996C406.542 99.996 406.083 100.189 405.732 100.574C405.38 100.959 405.205 101.458 405.205 102.07V107ZM419.237 102.07H423.708C423.685 101.458 423.481 100.959 423.096 100.574C422.711 100.177 422.167 99.979 421.464 99.979C420.829 99.979 420.308 100.189 419.9 100.608C419.492 101.016 419.271 101.503 419.237 102.07ZM423.946 104.195L425.323 104.671C425.085 105.43 424.643 106.054 423.997 106.541C423.351 107.017 422.569 107.255 421.651 107.255C420.506 107.255 419.532 106.864 418.727 106.082C417.934 105.289 417.537 104.223 417.537 102.886C417.537 101.639 417.922 100.608 418.693 99.792C419.464 98.976 420.382 98.568 421.447 98.568C422.682 98.568 423.646 98.959 424.337 99.741C425.028 100.512 425.374 101.549 425.374 102.852C425.374 103.056 425.363 103.226 425.34 103.362H419.186C419.197 104.087 419.435 104.682 419.9 105.147C420.376 105.612 420.96 105.844 421.651 105.844C422.818 105.844 423.583 105.294 423.946 104.195Z" fill="#412E46"/>
</svg>
