<svg width="480" height="204" viewBox="0 0 480 204" fill="none" xmlns="http://www.w3.org/2000/svg">
<rect width="480" height="204" rx="20" fill="#F2ECEF"/>
<rect x="35.5" y="72.5" width="409" height="59" rx="11.5" stroke="#979592" stroke-dasharray="2 2"/>
<path d="M170.884 97.7582L172.063 98.9374C172.604 99.4791 173.034 100.122 173.327 100.83C173.621 101.538 173.771 102.296 173.771 103.062C173.771 103.828 173.621 104.587 173.327 105.295C173.034 106.003 172.604 106.646 172.063 107.187L171.768 107.482C170.674 108.576 169.19 109.19 167.643 109.19C166.096 109.19 164.612 108.576 163.518 107.482C162.424 106.388 161.809 104.904 161.809 103.357C161.809 101.809 162.424 100.326 163.518 99.2315L164.697 100.411C164.307 100.797 163.998 101.256 163.786 101.763C163.574 102.269 163.465 102.812 163.464 103.361C163.462 103.909 163.57 104.453 163.779 104.96C163.988 105.467 164.296 105.928 164.684 106.316C165.072 106.704 165.533 107.012 166.04 107.221C166.547 107.431 167.091 107.538 167.639 107.537C168.188 107.535 168.731 107.426 169.237 107.214C169.744 107.002 170.203 106.693 170.589 106.303L170.884 106.008C171.666 105.227 172.104 104.167 172.104 103.062C172.104 101.958 171.666 100.898 170.884 100.117L169.705 98.9374L170.884 97.759L170.884 97.7582ZM176.482 102.767L175.304 101.589C175.693 101.203 176.003 100.743 176.214 100.237C176.426 99.7308 176.536 99.1877 176.537 98.639C176.538 98.0903 176.431 97.5468 176.221 97.0396C176.012 96.5324 175.704 96.0716 175.316 95.6836C174.928 95.2956 174.468 94.9881 173.96 94.7786C173.453 94.5692 172.91 94.462 172.361 94.4632C171.812 94.4644 171.269 94.574 170.763 94.7856C170.257 94.9973 169.797 95.3068 169.411 95.6965L169.116 95.9915C168.335 96.7729 167.896 97.8325 167.896 98.9374C167.896 100.042 168.335 101.102 169.116 101.883L170.295 103.062L169.116 104.241L167.938 103.062C167.396 102.521 166.966 101.878 166.673 101.17C166.38 100.462 166.229 99.7035 166.229 98.9374C166.229 98.1713 166.38 97.4127 166.673 96.7049C166.966 95.9971 167.396 95.3541 167.938 94.8124L168.233 94.5182C169.327 93.4242 170.811 92.8096 172.358 92.8096C173.905 92.8096 175.389 93.4242 176.483 94.5182C177.577 95.6122 178.191 97.096 178.191 98.6432C178.191 100.19 177.577 101.674 176.483 102.768L176.482 102.767Z" fill="#412E46"/>
<path d="M194.364 98.823L191.1 107H189.485L186.17 98.823H187.972L190.301 105.13L192.647 98.823H194.364ZM196.681 102.07H201.152C201.13 101.458 200.926 100.959 200.54 100.574C200.155 100.177 199.611 99.979 198.908 99.979C198.274 99.979 197.752 100.189 197.344 100.608C196.936 101.016 196.715 101.503 196.681 102.07ZM201.39 104.195L202.767 104.671C202.529 105.43 202.087 106.054 201.441 106.541C200.795 107.017 200.013 107.255 199.095 107.255C197.951 107.255 196.976 106.864 196.171 106.082C195.378 105.289 194.981 104.223 194.981 102.886C194.981 101.639 195.367 100.608 196.137 99.792C196.908 98.976 197.826 98.568 198.891 98.568C200.127 98.568 201.09 98.959 201.781 99.741C202.473 100.512 202.818 101.549 202.818 102.852C202.818 103.056 202.807 103.226 202.784 103.362H196.63C196.642 104.087 196.88 104.682 197.344 105.147C197.82 105.612 198.404 105.844 199.095 105.844C200.263 105.844 201.028 105.294 201.39 104.195ZM206.456 107H204.858V94.692H206.456V107ZM216.178 98.823L212.914 107H211.299L207.984 98.823H209.786L212.115 105.13L214.461 98.823H216.178ZM218.496 102.07H222.967C222.944 101.458 222.74 100.959 222.355 100.574C221.969 100.177 221.425 99.979 220.723 99.979C220.088 99.979 219.567 100.189 219.159 100.608C218.751 101.016 218.53 101.503 218.496 102.07ZM223.205 104.195L224.582 104.671C224.344 105.43 223.902 106.054 223.256 106.541C222.61 107.017 221.828 107.255 220.91 107.255C219.765 107.255 218.79 106.864 217.986 106.082C217.192 105.289 216.796 104.223 216.796 102.886C216.796 101.639 217.181 100.608 217.952 99.792C218.722 98.976 219.64 98.568 220.706 98.568C221.941 98.568 222.904 98.959 223.596 99.741C224.287 100.512 224.633 101.549 224.633 102.852C224.633 103.056 224.621 103.226 224.599 103.362H218.445C218.456 104.087 218.694 104.682 219.159 105.147C219.635 105.612 220.218 105.844 220.91 105.844C222.077 105.844 222.842 105.294 223.205 104.195ZM228.815 96.239V98.823H230.583V100.268H228.815V104.518C228.815 104.903 228.9 105.187 229.07 105.368C229.251 105.549 229.546 105.64 229.954 105.64C230.192 105.64 230.401 105.617 230.583 105.572V106.932C230.311 107.034 229.948 107.085 229.495 107.085C228.792 107.085 228.237 106.881 227.829 106.473C227.421 106.065 227.217 105.493 227.217 104.756V100.268H225.653V98.823H226.095C226.514 98.823 226.826 98.7097 227.03 98.483C227.245 98.245 227.353 97.939 227.353 97.565V96.239H228.815ZM232.885 106.745C232.659 106.518 232.545 106.241 232.545 105.912C232.545 105.583 232.659 105.306 232.885 105.079C233.112 104.841 233.39 104.722 233.718 104.722C234.047 104.722 234.325 104.841 234.551 105.079C234.789 105.306 234.908 105.583 234.908 105.912C234.908 106.241 234.789 106.518 234.551 106.745C234.325 106.972 234.047 107.085 233.718 107.085C233.39 107.085 233.112 106.972 232.885 106.745ZM239.062 107H237.464V94.692H239.062V107ZM243.361 107H241.78V98.823H243.361V107ZM241.746 96.545C241.531 96.3183 241.423 96.0463 241.423 95.729C241.423 95.4117 241.531 95.1397 241.746 94.913C241.973 94.6863 242.245 94.573 242.562 94.573C242.879 94.573 243.151 94.6863 243.378 94.913C243.605 95.1283 243.718 95.4003 243.718 95.729C243.718 96.0463 243.605 96.3183 243.378 96.545C243.151 96.7603 242.879 96.868 242.562 96.868C242.245 96.868 241.973 96.7603 241.746 96.545ZM252.098 94.947L246.267 107H244.72L250.551 94.947H252.098ZM257.726 98.823H259.375L261.5 104.977L263.302 98.823H264.985L262.333 107H260.684L258.508 100.778L256.383 107H254.7L252.014 98.823H253.765L255.601 104.977L257.726 98.823ZM267.47 102.07H271.941C271.919 101.458 271.715 100.959 271.329 100.574C270.944 100.177 270.4 99.979 269.697 99.979C269.063 99.979 268.541 100.189 268.133 100.608C267.725 101.016 267.504 101.503 267.47 102.07ZM272.179 104.195L273.556 104.671C273.318 105.43 272.876 106.054 272.23 106.541C271.584 107.017 270.802 107.255 269.884 107.255C268.74 107.255 267.765 106.864 266.96 106.082C266.167 105.289 265.77 104.223 265.77 102.886C265.77 101.639 266.156 100.608 266.926 99.792C267.697 98.976 268.615 98.568 269.68 98.568C270.916 98.568 271.879 98.959 272.57 99.741C273.262 100.512 273.607 101.549 273.607 102.852C273.607 103.056 273.596 103.226 273.573 103.362H267.419C267.431 104.087 267.669 104.682 268.133 105.147C268.609 105.612 269.193 105.844 269.884 105.844C271.052 105.844 271.817 105.294 272.179 104.195ZM277.245 107H275.647V94.692H277.245V107ZM283.398 100.047C282.706 100.047 282.117 100.296 281.63 100.795C281.154 101.294 280.916 101.996 280.916 102.903C280.916 103.798 281.154 104.501 281.63 105.011C282.117 105.521 282.712 105.776 283.415 105.776C284.095 105.776 284.61 105.606 284.962 105.266C285.324 104.926 285.568 104.535 285.693 104.093L287.104 104.705C286.877 105.385 286.446 105.98 285.812 106.49C285.188 107 284.389 107.255 283.415 107.255C282.225 107.255 281.239 106.841 280.457 106.014C279.675 105.187 279.284 104.15 279.284 102.903C279.284 101.634 279.675 100.597 280.457 99.792C281.239 98.976 282.219 98.568 283.398 98.568C284.395 98.568 285.2 98.823 285.812 99.333C286.435 99.843 286.843 100.455 287.036 101.169L285.591 101.781C285.466 101.305 285.228 100.897 284.877 100.557C284.525 100.217 284.032 100.047 283.398 100.047ZM290.578 105.062C291.077 105.572 291.683 105.827 292.397 105.827C293.111 105.827 293.712 105.572 294.199 105.062C294.698 104.541 294.947 103.821 294.947 102.903C294.947 101.996 294.698 101.288 294.199 100.778C293.712 100.257 293.111 99.996 292.397 99.996C291.683 99.996 291.077 100.257 290.578 100.778C290.091 101.288 289.847 101.996 289.847 102.903C289.847 103.821 290.091 104.541 290.578 105.062ZM289.388 99.809C290.181 98.9817 291.184 98.568 292.397 98.568C293.61 98.568 294.607 98.9817 295.389 99.809C296.182 100.625 296.579 101.656 296.579 102.903C296.579 104.161 296.188 105.204 295.406 106.031C294.624 106.847 293.621 107.255 292.397 107.255C291.173 107.255 290.17 106.847 289.388 106.031C288.606 105.204 288.215 104.161 288.215 102.903C288.215 101.656 288.606 100.625 289.388 99.809ZM300.205 107H298.624V98.823H300.154V99.911C300.403 99.4803 300.754 99.1517 301.208 98.925C301.661 98.6983 302.137 98.585 302.636 98.585C303.168 98.585 303.656 98.7153 304.098 98.976C304.54 99.2367 304.868 99.622 305.084 100.132C305.65 99.1007 306.563 98.585 307.821 98.585C308.603 98.585 309.266 98.8513 309.81 99.384C310.365 99.9167 310.643 100.687 310.643 101.696V107H309.062V101.866C309.062 101.299 308.914 100.846 308.62 100.506C308.336 100.166 307.906 99.996 307.328 99.996C306.772 99.996 306.319 100.194 305.968 100.591C305.616 100.976 305.441 101.464 305.441 102.053V107H303.843V101.866C303.843 101.299 303.695 100.846 303.401 100.506C303.117 100.166 302.687 99.996 302.109 99.996C301.542 99.996 301.083 100.189 300.732 100.574C300.38 100.959 300.205 101.458 300.205 102.07V107ZM314.237 102.07H318.708C318.685 101.458 318.481 100.959 318.096 100.574C317.711 100.177 317.167 99.979 316.464 99.979C315.829 99.979 315.308 100.189 314.9 100.608C314.492 101.016 314.271 101.503 314.237 102.07ZM318.946 104.195L320.323 104.671C320.085 105.43 319.643 106.054 318.997 106.541C318.351 107.017 317.569 107.255 316.651 107.255C315.506 107.255 314.532 106.864 313.727 106.082C312.934 105.289 312.537 104.223 312.537 102.886C312.537 101.639 312.922 100.608 313.693 99.792C314.464 98.976 315.382 98.568 316.447 98.568C317.682 98.568 318.646 98.959 319.337 99.741C320.028 100.512 320.374 101.549 320.374 102.852C320.374 103.056 320.363 103.226 320.34 103.362H314.186C314.197 104.087 314.435 104.682 314.9 105.147C315.376 105.612 315.96 105.844 316.651 105.844C317.818 105.844 318.583 105.294 318.946 104.195Z" fill="#412E46"/>
</svg>
