<svg width="320" height="72" viewBox="0 0 320 72" fill="none" xmlns="http://www.w3.org/2000/svg">
<rect opacity="0.5" width="320" height="72" rx="12" fill="#E5DAE0"/>
<circle cx="154" cy="36" r="24" fill="#7B4865"/>
<path d="M148.917 42.4167L144.833 45.625V28.6667C144.833 28.4236 144.93 28.1904 145.101 28.0185C145.273 27.8466 145.507 27.75 145.75 27.75H162.25C162.493 27.75 162.726 27.8466 162.898 28.0185C163.07 28.1904 163.166 28.4236 163.166 28.6667V41.5C163.166 41.7431 163.07 41.9763 162.898 42.1482C162.726 42.3201 162.493 42.4167 162.25 42.4167H148.917ZM148.282 40.5833H161.333V29.5833H146.666V41.8529L148.282 40.5833ZM153.352 36.1109L157.241 32.2224L158.537 33.5186L153.352 38.7042L149.786 35.1383L151.083 33.8422L153.352 36.1109Z" fill="white"/>
</svg>
