<svg width="690" height="244" viewBox="0 0 690 244" fill="none" xmlns="http://www.w3.org/2000/svg">
<rect width="690" height="244" rx="20" fill="#F2ECEF"/>
<circle cx="345" cy="122" r="50" fill="#7B4865"/>
<path d="M334.41 135.368L325.902 142.052V106.722C325.902 106.216 326.104 105.73 326.462 105.372C326.82 105.014 327.306 104.812 327.812 104.812H362.187C362.694 104.812 363.179 105.014 363.537 105.372C363.896 105.73 364.097 106.216 364.097 106.722V133.458C364.097 133.965 363.896 134.451 363.537 134.809C363.179 135.167 362.694 135.368 362.187 135.368H334.41ZM333.089 131.549H360.277V108.632H329.722V134.194L333.089 131.549ZM343.649 122.231L351.752 114.13L354.453 116.83L343.649 127.634L336.221 120.205L338.923 117.505L343.649 122.231V122.231Z" fill="white"/>
</svg>
