<svg width="480" height="244" viewBox="0 0 480 244" fill="none" xmlns="http://www.w3.org/2000/svg">
<rect width="480" height="244" rx="20" fill="#F2ECEF"/>
<circle cx="240" cy="122" r="50" fill="#7B4865"/>
<path d="M229.41 135.368L220.902 142.052V106.722C220.902 106.216 221.104 105.73 221.462 105.372C221.82 105.014 222.306 104.812 222.812 104.812H257.187C257.694 104.812 258.179 105.014 258.537 105.372C258.896 105.73 259.097 106.216 259.097 106.722V133.458C259.097 133.965 258.896 134.451 258.537 134.809C258.179 135.167 257.694 135.368 257.187 135.368H229.41ZM228.089 131.549H255.277V108.632H224.722V134.194L228.089 131.549ZM238.649 122.231L246.752 114.13L249.453 116.83L238.649 127.634L231.221 120.205L233.923 117.505L238.649 122.231Z" fill="white"/>
</svg>
