<svg width="690" height="244" viewBox="0 0 690 244" fill="none" xmlns="http://www.w3.org/2000/svg">
<rect width="690" height="244" rx="20" fill="#F2ECEF"/>
<circle cx="345" cy="122" r="50" fill="#7B4865"/>
<path d="M331.112 130.681V139.361H327.64V106.375H360.865C361.018 106.375 361.167 106.414 361.299 106.49C361.431 106.566 361.541 106.675 361.617 106.807C361.694 106.938 361.734 107.088 361.735 107.24C361.735 107.392 361.696 107.541 361.621 107.674L355.417 118.528L361.621 129.382C361.696 129.514 361.735 129.664 361.735 129.816C361.734 129.968 361.694 130.117 361.617 130.249C361.541 130.38 361.431 130.49 361.299 130.565C361.167 130.641 361.018 130.681 360.865 130.681H331.112ZM331.112 109.847V127.208H356.379L351.417 118.528L356.379 109.847H331.112Z" fill="white"/>
</svg>
