<svg width="480" height="244" viewBox="0 0 480 244" fill="none" xmlns="http://www.w3.org/2000/svg">
<rect width="480" height="244" rx="20" fill="#F2ECEF"/>
<circle cx="240" cy="122" r="50" fill="#7B4865"/>
<path d="M226.111 130.681V139.361H222.639V106.375H255.865C256.017 106.375 256.167 106.414 256.299 106.49C256.43 106.566 256.54 106.675 256.617 106.807C256.693 106.938 256.734 107.088 256.734 107.24C256.735 107.392 256.696 107.541 256.62 107.674L250.417 118.528L256.62 129.382C256.696 129.514 256.735 129.664 256.734 129.816C256.734 129.968 256.693 130.117 256.617 130.249C256.54 130.38 256.43 130.49 256.299 130.565C256.167 130.641 256.017 130.681 255.865 130.681H226.111ZM226.111 109.847V127.208H251.379L246.417 118.528L251.379 109.847H226.111Z" fill="white"/>
</svg>
