<svg width="140" height="30" viewBox="0 0 140 30" fill="none" xmlns="http://www.w3.org/2000/svg">
<g clip-path="url(#clip0)">
<path fill-rule="evenodd" clip-rule="evenodd" d="M24.2529 9.28644C24.2529 7.10303 26.0259 5.33325 28.2132 5.33325C30.4006 5.33325 32.1741 7.10303 32.1741 9.28644C32.1741 11.4704 30.4006 13.2402 28.2132 13.2402C26.0259 13.2402 24.2529 11.4704 24.2529 9.28644ZM8.42115 9.28695C8.42115 7.10354 6.64818 5.33377 4.46084 5.33377C2.27296 5.33377 0.5 7.10354 0.5 9.28695C0.5 11.4704 2.27296 13.2407 4.46084 13.2407C6.64818 13.2407 8.42115 11.4704 8.42115 9.28695ZM16.2414 8.83989C11.014 8.83989 0.242708 19.741 5.04029 24.53C8.02236 27.5067 13.4157 24.6356 17.0696 21.4115C20.173 24.6447 24.6759 27.5895 27.4042 24.8661C31.8842 20.3925 22.1401 8.83989 16.2414 8.83989ZM17.0696 21.4115C15.0791 19.3375 13.6647 17.1445 13.6647 16.2572C13.6647 13.983 20.8709 13.76 20.8709 16.3677C20.8709 17.3548 19.2915 19.4479 17.0696 21.4115Z" fill="#000102"/>
<path fill-rule="evenodd" clip-rule="evenodd" d="M53.3899 13.1325C53.8521 12.7593 54.0822 12.2212 54.0822 11.5193C54.0822 10.8174 53.8521 10.2799 53.3899 9.90671C52.9283 9.53356 52.2799 9.34698 51.4445 9.34698H46.916V13.6916H51.4445C52.2799 13.6916 52.9283 13.5056 53.3899 13.1325ZM55.2361 8.37031C56.0785 9.19721 56.5007 10.2469 56.5007 11.5193C56.5007 12.7923 56.0785 13.842 55.2361 14.6682C54.3938 15.4951 53.1591 15.9083 51.5322 15.9083H46.916V21.701H44.4982V7.1309H51.5322C53.1591 7.1309 54.3938 7.54404 55.2361 8.37031ZM65.3488 18.9909C65.9712 18.428 66.2828 17.6271 66.2828 16.5883C66.2828 15.5494 65.9712 14.7453 65.3488 14.1742C64.7258 13.6043 63.982 13.3187 63.1173 13.3187C62.2234 13.3187 61.491 13.6367 60.9189 14.2732C60.348 14.9097 60.0619 15.6814 60.0619 16.5883C60.0619 17.4805 60.348 18.2446 60.9189 18.8811C61.491 19.5176 62.2234 19.8356 63.1173 19.8356C63.982 19.8356 64.7258 19.5545 65.3488 18.9909ZM66.195 11.4536H68.5251V21.7014H66.195V20.7577C65.4175 21.577 64.3405 21.9863 62.9635 21.9863C61.3658 21.9863 60.0943 21.4564 59.1495 20.3953C58.2042 19.3349 57.7318 18.0663 57.7318 16.5883C57.7318 15.0963 58.2042 13.8201 59.1495 12.7596C60.0943 11.6992 61.3658 11.1686 62.9635 11.1686C64.3405 11.1686 65.4175 11.578 66.195 12.3966V11.4536ZM74.9218 21.4816L70.394 11.4535H72.9879L76.2188 18.6291L79.4287 11.4535H81.9126L77.0326 22.2495C76.3142 23.8151 75.8087 24.7804 75.5156 25.1459C75.0325 25.7456 74.3357 26.082 73.4272 26.1556C73.2371 26.1702 73.0241 26.1772 72.7895 26.1772H71.5371V24.1369H72.4386C72.9364 24.1369 73.3356 24.0119 73.6363 23.7637C73.9364 23.515 74.2333 23.0542 74.5264 22.3815L74.9218 21.4816ZM92.7827 13.1325C93.2449 12.7593 93.4751 12.2212 93.4751 11.5193C93.4751 10.8174 93.2449 10.2799 92.7827 9.90671C92.3212 9.53356 91.6727 9.34698 90.8373 9.34698H86.3088V13.6916H90.8373C91.6727 13.6916 92.3212 13.5056 92.7827 13.1325ZM94.629 8.37031C95.4713 9.19721 95.8935 10.2469 95.8935 11.5193C95.8935 12.7923 95.4713 13.842 94.629 14.6682C93.7866 15.4951 92.5519 15.9083 90.925 15.9083H86.3088V21.701H83.891V7.1309H90.925C92.5519 7.1309 93.7866 7.54404 94.629 8.37031ZM102.641 21.9861C101.293 21.9861 100.213 21.5838 99.3989 20.7797C98.5858 19.975 98.1789 18.9 98.1789 17.554V11.4534H100.509V17.2246C100.509 18.0293 100.721 18.6658 101.147 19.1335C101.571 19.6019 102.194 19.8354 103.015 19.8354C103.792 19.8354 104.458 19.5505 105.015 18.9806C105.572 18.4094 105.851 17.6568 105.851 16.7201V11.4534H108.181V21.7012H105.851V20.7575C105.147 21.5768 104.078 21.9861 102.641 21.9861ZM118.458 18.9804C119.081 18.4099 119.393 17.6052 119.393 16.5663C119.393 15.5281 119.081 14.7272 118.458 14.1636C117.835 13.6001 117.091 13.319 116.227 13.319C115.333 13.319 114.601 13.6369 114.028 14.2734C113.457 14.91 113.171 15.674 113.171 16.5663C113.171 17.4738 113.457 18.2449 114.028 18.8814C114.601 19.5179 115.333 19.8358 116.227 19.8358C117.091 19.8358 117.835 19.5503 118.458 18.9804ZM119.304 11.4538H121.635V21.1742C121.635 22.7982 121.162 24.0852 120.217 25.0365C119.271 25.9872 117.956 26.4625 116.271 26.4625C115.069 26.4625 113.992 26.1477 113.04 25.5195C112.087 24.8906 111.42 24.0268 111.039 22.9302H113.589C114.058 23.8517 114.951 24.3118 116.271 24.3118C117.208 24.3118 117.948 24.0306 118.491 23.4671C119.033 22.9042 119.304 22.1541 119.304 21.218V20.7579C118.528 21.5772 117.451 21.9859 116.073 21.9859C114.475 21.9859 113.204 21.456 112.259 20.3949C111.314 19.3351 110.841 18.0583 110.841 16.5663C110.841 15.0889 111.314 13.8197 112.259 12.7592C113.204 11.6988 114.475 11.1683 116.073 11.1683C117.451 11.1683 118.528 11.5782 119.304 12.3969V11.4538ZM134.275 14.416H131.746C131.321 13.5967 130.391 13.1867 128.955 13.1867C128.281 13.1867 127.749 13.2933 127.361 13.5053C126.973 13.7173 126.778 14.0136 126.778 14.3938C126.778 14.7307 126.932 14.9833 127.241 15.1509C127.548 15.3197 128.024 15.4333 128.669 15.491L130.626 15.6452C132.985 15.835 134.165 16.8516 134.165 18.6945C134.165 19.6458 133.743 20.4315 132.901 21.0534C132.058 21.6753 130.919 21.9863 129.482 21.9863C128.017 21.9863 126.819 21.6791 125.888 21.0648C124.958 20.4505 124.375 19.6243 124.141 18.5848H126.691C127.028 19.5062 128.039 19.9676 129.725 19.9676C130.354 19.9676 130.864 19.8654 131.252 19.6604C131.64 19.4555 131.835 19.1705 131.835 18.8043C131.835 18.4534 131.681 18.19 131.373 18.0149C131.065 17.8391 130.596 17.7223 129.966 17.6633L127.878 17.4659C126.72 17.3492 125.859 17.049 125.295 16.5667C124.73 16.0837 124.448 15.3888 124.448 14.482C124.448 13.5307 124.862 12.7406 125.691 12.1117C126.518 11.4834 127.621 11.1686 128.999 11.1686C130.464 11.1686 131.64 11.465 132.527 12.0571C133.414 12.6498 133.996 13.4361 134.275 14.416ZM136.156 5.69464V4.91534H136.968C137.118 4.91534 137.234 4.94834 137.317 5.01561C137.4 5.08224 137.441 5.1787 137.441 5.30499C137.441 5.43064 137.4 5.5271 137.317 5.59437C137.234 5.66101 137.118 5.69464 136.968 5.69464H136.156ZM137.698 5.8222C137.816 5.67941 137.875 5.5068 137.875 5.30499C137.875 5.07653 137.799 4.88805 137.649 4.74018C137.497 4.59168 137.276 4.51807 136.984 4.51807H135.722V7.13078H136.156V6.09191H136.641L137.434 7.13078H137.974L137.169 6.07985C137.403 6.0513 137.579 5.96562 137.698 5.8222Z" fill="#000102"/>
<path fill-rule="evenodd" clip-rule="evenodd" d="M136.767 8.08771C135.476 8.08771 134.425 7.03869 134.425 5.74852C134.425 4.45962 135.476 3.40996 136.767 3.40996C138.06 3.40996 139.111 4.45962 139.111 5.74852C139.111 7.03869 138.06 8.08771 136.767 8.08771ZM136.767 3C135.249 3 134.014 4.23306 134.014 5.74852C134.014 7.26462 135.249 8.49767 136.767 8.49767C138.286 8.49767 139.522 7.26462 139.522 5.74852C139.522 4.23306 138.286 3 136.767 3Z" fill="#000102"/>
</g>
<defs>
<clipPath id="clip0">
<rect width="139" height="30" fill="white" transform="translate(0.5)"/>
</clipPath>
</defs>
</svg>
