<svg width="54" height="36" viewBox="0 0 54 36" fill="none" xmlns="http://www.w3.org/2000/svg">
<path d="M23.2949 0H20.8965V10.9732L1.73939 1.39464C0.849328 2.25445 0.304268 3.40998 0.206826 4.64368L14.9195 12H9.55549L0.183838 7.31801V8.67433L6.87349 12.0153H0.183838V14.4138H23.3179L23.2949 0Z" fill="white"/>
<path d="M52.1532 34.6437C53.0688 33.8079 53.6467 32.6657 53.7777 31.433L38.8965 24H44.2605L53.8084 28.7739V27.4329L46.9118 24H53.8084V21.6015H30.521V36H32.9195V25.0268L52.1532 34.6437Z" fill="white"/>
<path d="M32.8965 0H30.521V14.3985H53.8313V12H46.9348L53.8313 8.56705V5.06513C53.8313 4.88889 53.8313 4.72031 53.8313 4.55172L38.9425 11.9923H33.5785L53.0191 2.2682C52.802 1.92472 52.5447 1.60832 52.2528 1.32567L32.8965 10.9732V0Z" fill="white"/>
<path d="M0.168457 21.5939V24H6.85811L0.168457 27.341V30.8966C0.168457 31.0498 0.168457 31.1954 0.168457 31.3487L14.8811 23.9923H20.2451L0.950066 33.6398C1.16656 33.9861 1.42383 34.3051 1.71635 34.59L20.8734 25.0192V35.9923H23.2719V21.5939H0.168457Z" fill="white"/>
<path d="M53.8083 21.5939V14.3985H30.498V0H23.2949V14.3985H0.168457V21.5939H23.2949V35.9923H30.498V21.5939H53.8083Z" fill="#EC5565"/>
<path d="M14.8965 12L0.183838 4.64368C0.183838 4.78161 0.183838 4.9272 0.183838 5.06513V7.31034L9.55549 11.9923L14.8965 12Z" fill="#EC5565"/>
<path d="M38.8967 12L53.7856 4.55939C53.7064 3.73834 53.4275 2.94912 52.9733 2.26054L33.5327 11.9847L38.8967 12Z" fill="#EC5565"/>
<path d="M38.8965 24L53.7777 31.4406C53.787 31.262 53.787 31.0829 53.7777 30.9042V28.774L44.2605 24H38.8965Z" fill="#EC5565"/>
<path d="M14.8965 24L0.183838 31.3563C0.249204 32.1734 0.512179 32.9623 0.950121 33.6552L20.2681 24H14.8965Z" fill="#EC5565"/>
<path d="M32.8965 10.9732L52.1762 1.33333C51.3672 0.579629 50.3337 0.111358 49.2336 0H32.8965V10.9732Z" fill="#4658A9"/>
<path d="M53.8083 27.4253V23.9923H46.9424L53.8083 27.4253Z" fill="#4658A9"/>
<path d="M53.8083 12V8.56706L46.9424 12H53.8083Z" fill="#4658A9"/>
<path d="M1.75439 34.59C2.69761 35.4909 3.95199 35.9932 5.25631 35.9923H20.8962V25.0192L1.75439 34.59Z" fill="#4658A9"/>
<path d="M32.8965 25.0192V35.9923H48.7202C49.9924 35.9923 51.2179 35.5136 52.1532 34.6513L32.8965 25.0192Z" fill="#4658A9"/>
<path d="M20.8961 0H4.74285C3.61358 0.11516 2.55573 0.606304 1.73901 1.39464L20.8961 10.9732V0Z" fill="#4658A9"/>
<path d="M0.168457 23.9923V27.3333L6.85045 23.9923H0.168457Z" fill="#4658A9"/>
<path d="M0.168457 8.65135V12H6.85045L0.168457 8.65135Z" fill="#4658A9"/>
</svg>
