<svg width="54" height="36" viewBox="0 0 54 36" fill="none" xmlns="http://www.w3.org/2000/svg">
<path d="M4.86323 36H49.1597C50.925 35.8589 52.4901 34.8106 53.2926 33.2319H0.722656C1.52654 34.8128 3.09513 35.8615 4.86323 36Z" fill="#ED5565"/>
<path d="M0.193848 30.4562V31.4837C0.261051 32.0906 0.437708 32.6804 0.715253 33.2243H53.2775C53.5551 32.6804 53.7318 32.0906 53.799 31.4837V30.4562H0.193848Z" fill="white"/>
<path d="M53.8066 27.6882H0.193848V30.4562H53.8066V27.6882Z" fill="#ED5565"/>
<path d="M53.8066 24.9201H0.193848V27.6882H53.8066V24.9201Z" fill="white"/>
<path d="M53.8066 22.1521H0.193848V24.9201H53.8066V22.1521Z" fill="#ED5565"/>
<path d="M53.8066 19.384H0.193848V22.1521H53.8066V19.384Z" fill="white"/>
<path d="M53.8066 16.616H0.193848V19.384H53.8066V16.616Z" fill="#ED5565"/>
<path d="M53.8066 13.8479H0.193848V16.616H53.8066V13.8479Z" fill="white"/>
<path d="M53.8066 11.0799H0.193848V13.8479H53.8066V11.0799Z" fill="#ED5565"/>
<path d="M53.8066 8.30414H0.193848V11.0722H53.8066V8.30414Z" fill="white"/>
<path d="M53.8066 5.5361H0.193848V8.30415H53.8066V5.5361Z" fill="#ED5565"/>
<path d="M53.8063 5.53611V4.50863C53.74 3.89908 53.5633 3.30668 53.2849 2.76039H0.722578C0.444147 3.30668 0.267466 3.89908 0.201172 4.50863V5.53611H53.8063Z" fill="white"/>
<path d="M49.1527 0H4.86386C3.09858 0.141124 1.53344 1.18939 0.730957 2.76805H53.2933C52.4894 1.18718 50.9208 0.138548 49.1527 0Z" fill="#ED5565"/>
<path d="M25.6352 19.384V0H4.8633C2.42971 0.194825 0.476956 2.08967 0.208984 4.51629V19.384H25.6352Z" fill="#4A89DC"/>
<path d="M3.34517 2.34633L3.13814 2.99042H2.46338L3.00779 3.38147L2.80076 4.02556L3.34517 3.62684L3.88958 4.02556L3.68255 3.38147L4.22696 2.99042H3.5522L3.34517 2.34633Z" fill="white"/>
<path d="M3.34517 5.59743L3.13814 6.24152H2.46338L3.00779 6.64024L2.80076 7.27666L3.34517 6.88561L3.88958 7.27666L3.68255 6.64024L4.22696 6.24152H3.5522L3.34517 5.59743Z" fill="white"/>
<path d="M3.34517 8.84857L3.13814 9.49266H2.46338L3.00779 9.89138L2.80076 10.5355L3.34517 10.1368L3.88958 10.5355L3.68255 9.89138L4.22696 9.49266H3.5522L3.34517 8.84857Z" fill="white"/>
<path d="M3.34517 12.1074L3.13814 12.7438H2.46338L3.00779 13.1425L2.80076 13.7866L3.34517 13.3879L3.88958 13.7866L3.68255 13.1425L4.22696 12.7438H3.5522L3.34517 12.1074Z" fill="white"/>
<path d="M3.5522 15.9949L3.34517 15.3585L3.13814 15.9949H2.46338L3.00779 16.3936L2.80076 17.0377L3.34517 16.639L3.88958 17.0377L3.68255 16.3936L4.22696 15.9949H3.5522Z" fill="white"/>
<path d="M5.25484 3.97188L5.04781 4.61597H4.37305L4.91746 5.01469L4.71043 5.65111L5.25484 5.25239L5.80691 5.65111L5.59988 5.01469L6.14429 4.61597H5.46953L5.25484 3.97188Z" fill="white"/>
<path d="M5.25484 7.22301L5.04781 7.8671H4.37305L4.91746 8.26582L4.71043 8.90224L5.25484 8.51119L5.80691 8.90224L5.59988 8.26582L6.14429 7.8671H5.46953L5.25484 7.22301Z" fill="white"/>
<path d="M5.25484 10.4818L5.04781 11.1182H4.37305L4.91746 11.5169L4.71043 12.161L5.25484 11.7623L5.80691 12.161L5.59988 11.5169L6.14429 11.1182H5.46953L5.25484 10.4818Z" fill="white"/>
<path d="M5.46953 14.3693L5.25484 13.7329L5.04781 14.3693H4.37305L4.91746 14.7681L4.71043 15.4121L5.25484 15.0134L5.80691 15.4121L5.59988 14.7681L6.14429 14.3693H5.46953Z" fill="white"/>
<path d="M7.17183 2.34633L6.9648 2.99042H6.29004L6.83445 3.38147L6.62742 4.02556L7.17183 3.62684L7.71624 4.02556L7.50921 3.38147L8.05362 2.99042H7.37886L7.17183 2.34633Z" fill="white"/>
<path d="M7.17183 5.59743L6.9648 6.24152H6.29004L6.83445 6.64024L6.62742 7.27666L7.17183 6.88561L7.71624 7.27666L7.50921 6.64024L8.05362 6.24152H7.37886L7.17183 5.59743Z" fill="white"/>
<path d="M7.17183 8.84857L6.9648 9.49266H6.29004L6.83445 9.89138L6.62742 10.5355L7.17183 10.1368L7.71624 10.5355L7.50921 9.89138L8.05362 9.49266H7.37886L7.17183 8.84857Z" fill="white"/>
<path d="M7.17183 12.1074L6.9648 12.7438H6.29004L6.83445 13.1425L6.62742 13.7866L7.17183 13.3879L7.71624 13.7866L7.50921 13.1425L8.05362 12.7438H7.37886L7.17183 12.1074Z" fill="white"/>
<path d="M7.37886 15.9949L7.17183 15.3585L6.9648 15.9949H6.29004L6.83445 16.3936L6.62742 17.0377L7.17183 16.639L7.71624 17.0377L7.50921 16.3936L8.05362 15.9949H7.37886Z" fill="white"/>
<path d="M9.08052 3.97188L8.87349 4.61597H8.19873L8.74314 5.01469L8.53611 5.65111L9.08052 5.25239L9.6326 5.65111L9.42557 5.01469L9.96998 4.61597H9.29522L9.08052 3.97188Z" fill="white"/>
<path d="M9.08052 7.22301L8.87349 7.8671H8.19873L8.74314 8.26582L8.53611 8.90224L9.08052 8.51119L9.6326 8.90224L9.42557 8.26582L9.96998 7.8671H9.29522L9.08052 7.22301Z" fill="white"/>
<path d="M9.08052 10.4818L8.87349 11.1182H8.19873L8.74314 11.5169L8.53611 12.161L9.08052 11.7623L9.6326 12.161L9.42557 11.5169L9.96998 11.1182H9.29522L9.08052 10.4818Z" fill="white"/>
<path d="M9.29522 14.3693L9.08052 13.7329L8.87349 14.3693H8.19873L8.74314 14.7681L8.53611 15.4121L9.08052 15.0134L9.6326 15.4121L9.42557 14.7681L9.96998 14.3693H9.29522Z" fill="white"/>
<path d="M10.9975 2.34633L10.7905 2.99042H10.1157L10.6601 3.38147L10.4531 4.02556L10.9975 3.62684L11.5419 4.02556L11.3349 3.38147L11.8793 2.99042H11.2045L10.9975 2.34633Z" fill="white"/>
<path d="M10.9975 5.59743L10.7905 6.24152H10.1157L10.6601 6.64024L10.4531 7.27666L10.9975 6.88561L11.5419 7.27666L11.3349 6.64024L11.8793 6.24152H11.2045L10.9975 5.59743Z" fill="white"/>
<path d="M10.9975 8.84857L10.7905 9.49266H10.1157L10.6601 9.89138L10.4531 10.5355L10.9975 10.1368L11.5419 10.5355L11.3349 9.89138L11.8793 9.49266H11.2045L10.9975 8.84857Z" fill="white"/>
<path d="M10.9975 12.1074L10.7905 12.7438H10.1157L10.6601 13.1425L10.4531 13.7866L10.9975 13.3879L11.5419 13.7866L11.3349 13.1425L11.8793 12.7438H11.2045L10.9975 12.1074Z" fill="white"/>
<path d="M11.2045 15.9949L10.9975 15.3585L10.7905 15.9949H10.1157L10.6601 16.3936L10.4531 17.0377L10.9975 16.639L11.5419 17.0377L11.3349 16.3936L11.8793 15.9949H11.2045Z" fill="white"/>
<path d="M12.9072 3.97188L12.7002 4.61597H12.0254L12.5698 5.01469L12.3628 5.65111L12.9072 5.25239L13.4593 5.65111L13.2446 5.01469L13.7966 4.61597H13.1219L12.9072 3.97188Z" fill="white"/>
<path d="M12.9072 7.22301L12.7002 7.8671H12.0254L12.5698 8.26582L12.3628 8.90224L12.9072 8.51119L13.4593 8.90224L13.2446 8.26582L13.7966 7.8671H13.1219L12.9072 7.22301Z" fill="white"/>
<path d="M12.9072 10.4818L12.7002 11.1182H12.0254L12.5698 11.5169L12.3628 12.161L12.9072 11.7623L13.4593 12.161L13.2446 11.5169L13.7966 11.1182H13.1219L12.9072 10.4818Z" fill="white"/>
<path d="M13.1219 14.3693L12.9072 13.7329L12.7002 14.3693H12.0254L12.5698 14.7681L12.3628 15.4121L12.9072 15.0134L13.4593 15.4121L13.2446 14.7681L13.7966 14.3693H13.1219Z" fill="white"/>
<path d="M14.8242 2.34633L14.6171 2.99042H13.9424L14.4868 3.38147L14.2798 4.02556L14.8242 3.62684L15.3686 4.02556L15.1616 3.38147L15.706 2.99042H15.0312L14.8242 2.34633Z" fill="white"/>
<path d="M14.8242 5.59743L14.6171 6.24152H13.9424L14.4868 6.64024L14.2798 7.27666L14.8242 6.88561L15.3686 7.27666L15.1616 6.64024L15.706 6.24152H15.0312L14.8242 5.59743Z" fill="white"/>
<path d="M14.8242 8.84857L14.6171 9.49266H13.9424L14.4868 9.89138L14.2798 10.5355L14.8242 10.1368L15.3686 10.5355L15.1616 9.89138L15.706 9.49266H15.0312L14.8242 8.84857Z" fill="white"/>
<path d="M14.8242 12.1074L14.6171 12.7438H13.9424L14.4868 13.1425L14.2798 13.7866L14.8242 13.3879L15.3686 13.7866L15.1616 13.1425L15.706 12.7438H15.0312L14.8242 12.1074Z" fill="white"/>
<path d="M15.0312 15.9949L14.8242 15.3585L14.6171 15.9949H13.9424L14.4868 16.3936L14.2798 17.0377L14.8242 16.639L15.3686 17.0377L15.1616 16.3936L15.706 15.9949H15.0312Z" fill="white"/>
<path d="M16.7329 3.97188L16.5258 4.61597H15.8511L16.3955 5.01469L16.1885 5.65111L16.7329 5.25239L17.2849 5.65111L17.0702 5.01469L17.6223 4.61597H16.9476L16.7329 3.97188Z" fill="white"/>
<path d="M16.7329 7.22301L16.5258 7.8671H15.8511L16.3955 8.26582L16.1885 8.90224L16.7329 8.51119L17.2849 8.90224L17.0702 8.26582L17.6223 7.8671H16.9476L16.7329 7.22301Z" fill="white"/>
<path d="M16.7329 10.4818L16.5258 11.1182H15.8511L16.3955 11.5169L16.1885 12.161L16.7329 11.7623L17.2849 12.161L17.0702 11.5169L17.6223 11.1182H16.9476L16.7329 10.4818Z" fill="white"/>
<path d="M16.9476 14.3693L16.7329 13.7329L16.5258 14.3693H15.8511L16.3955 14.7681L16.1885 15.4121L16.7329 15.0134L17.2849 15.4121L17.0702 14.7681L17.6223 14.3693H16.9476Z" fill="white"/>
<path d="M18.6499 2.34633L18.4428 2.99042H17.7681L18.3125 3.38147L18.1054 4.02556L18.6499 3.62684L19.1943 4.02556L18.9872 3.38147L19.5316 2.99042H18.8569L18.6499 2.34633Z" fill="white"/>
<path d="M18.6499 5.59743L18.4428 6.24152H17.7681L18.3125 6.64024L18.1054 7.27666L18.6499 6.88561L19.1943 7.27666L18.9872 6.64024L19.5316 6.24152H18.8569L18.6499 5.59743Z" fill="white"/>
<path d="M18.6499 8.84857L18.4428 9.49266H17.7681L18.3125 9.89138L18.1054 10.5355L18.6499 10.1368L19.1943 10.5355L18.9872 9.89138L19.5316 9.49266H18.8569L18.6499 8.84857Z" fill="white"/>
<path d="M18.6499 12.1074L18.4428 12.7438H17.7681L18.3125 13.1425L18.1054 13.7866L18.6499 13.3879L19.1943 13.7866L18.9872 13.1425L19.5316 12.7438H18.8569L18.6499 12.1074Z" fill="white"/>
<path d="M18.8569 15.9949L18.6499 15.3585L18.4428 15.9949H17.7681L18.3125 16.3936L18.1054 17.0377L18.6499 16.639L19.1943 17.0377L18.9872 16.3936L19.5316 15.9949H18.8569Z" fill="white"/>
<path d="M20.5595 3.97188L20.3525 4.61597H19.6777L20.2221 5.01469L20.0151 5.65111L20.5595 5.25239L21.1116 5.65111L20.8969 5.01469L21.449 4.61597H20.7742L20.5595 3.97188Z" fill="white"/>
<path d="M20.5595 7.22301L20.3525 7.8671H19.6777L20.2221 8.26582L20.0151 8.90224L20.5595 8.51119L21.1116 8.90224L20.8969 8.26582L21.449 7.8671H20.7742L20.5595 7.22301Z" fill="white"/>
<path d="M20.5595 10.4818L20.3525 11.1182H19.6777L20.2221 11.5169L20.0151 12.161L20.5595 11.7623L21.1116 12.161L20.8969 11.5169L21.449 11.1182H20.7742L20.5595 10.4818Z" fill="white"/>
<path d="M20.7742 14.3693L20.5595 13.7329L20.3525 14.3693H19.6777L20.2221 14.7681L20.0151 15.4121L20.5595 15.0134L21.1116 15.4121L20.8969 14.7681L21.449 14.3693H20.7742Z" fill="white"/>
<path d="M22.1391 3.38147L21.9321 4.02556L22.4765 3.62684L23.0209 4.02556L22.8139 3.38147L23.3583 2.99042H22.6835L22.4765 2.34633L22.2695 2.99042H21.5947L22.1391 3.38147Z" fill="white"/>
<path d="M22.4765 5.59743L22.2695 6.24152H21.5947L22.1391 6.64024L21.9321 7.27666L22.4765 6.88561L23.0209 7.27666L22.8139 6.64024L23.3583 6.24152H22.6835L22.4765 5.59743Z" fill="white"/>
<path d="M22.4765 8.84857L22.2695 9.49266H21.5947L22.1391 9.89138L21.9321 10.5355L22.4765 10.1368L23.0209 10.5355L22.8139 9.89138L23.3583 9.49266H22.6835L22.4765 8.84857Z" fill="white"/>
<path d="M22.4765 12.1074L22.2695 12.7438H21.5947L22.1391 13.1425L21.9321 13.7866L22.4765 13.3879L23.0209 13.7866L22.8139 13.1425L23.3583 12.7438H22.6835L22.4765 12.1074Z" fill="white"/>
<path d="M22.6835 15.9949L22.4765 15.3585L22.2695 15.9949H21.5947L22.1391 16.3936L21.9321 17.0377L22.4765 16.639L23.0209 17.0377L22.8139 16.3936L23.3583 15.9949H22.6835Z" fill="white"/>
</svg>
