<svg width="119" height="48" viewBox="0 0 119 48" fill="none" xmlns="http://www.w3.org/2000/svg">
<g clip-path="url(#clip0)">
<path d="M119.08 8.89015C119.08 8.13054 118.478 7.53076 117.719 7.53076H101.942C101.181 7.53076 100.611 8.13219 100.611 8.89015C100.611 9.64976 101.182 10.2182 101.942 10.2182H108.404V28.3418C108.404 29.1327 109.038 29.7654 109.83 29.7654C110.622 29.7654 111.287 29.1327 111.287 28.3418V10.2182H117.719C118.478 10.2182 119.08 9.64976 119.08 8.89015Z" fill="#34234D"/>
<path d="M85.9137 26.9181V19.8971H96.0186C96.7794 19.8971 97.3801 19.3269 97.3801 18.569C97.3801 17.811 96.7777 17.2096 96.0186 17.2096H85.9137V10.2182H97.159C97.9198 10.2182 98.5205 9.64806 98.5205 8.8901C98.5205 8.13048 97.9181 7.52905 97.159 7.52905H84.4564C83.6643 7.52905 83.0305 8.1931 83.0305 8.98402V28.182C83.0305 28.9729 83.6643 29.6056 84.4564 29.6056H97.159C97.9198 29.6056 98.5205 29.0371 98.5205 28.2775C98.5205 27.5179 97.9181 26.9181 97.159 26.9181H85.9137Z" fill="#34234D"/>
<path d="M59.2559 28.1836C59.2559 27.3927 58.5908 26.7286 57.7987 26.7286H47.4396V8.82752C47.4396 8.0366 46.7745 7.37256 45.9823 7.37256C45.1902 7.37256 44.5565 8.0366 44.5565 8.82752V27.6151C44.5565 28.7224 45.4443 29.6073 46.5517 29.6073H57.797C58.5908 29.6073 59.2559 28.9745 59.2559 28.1836Z" fill="#34234D"/>
<path d="M27.2297 26.9181V19.8971H37.3346C38.0954 19.8971 38.6961 19.3269 38.6961 18.569C38.6961 17.811 38.0938 17.2096 37.3346 17.2096H27.2297V10.2182H38.475C39.2358 10.2182 39.8365 9.64806 39.8365 8.8901C39.8365 8.13048 39.2341 7.52905 38.475 7.52905H25.7724C24.9803 7.52905 24.3466 8.1931 24.3466 8.98402V28.182C24.3466 28.9729 24.9803 29.6056 25.7724 29.6056H38.475C39.2358 29.6056 39.8365 29.0371 39.8365 28.2775C39.8365 27.5179 39.2341 26.9181 38.475 26.9181H27.2297Z" fill="#34234D"/>
<path d="M20.4204 9.36469C20.4831 9.2065 20.5161 8.9857 20.5161 8.82752C20.5161 7.97399 19.9781 7.37256 19.0902 7.37256C18.5192 7.37256 17.9812 7.75154 17.7287 8.35297L10.2824 26.8868L2.83781 8.35297C2.58366 7.75154 2.04566 7.37256 1.47629 7.37256C0.588421 7.37256 0.050415 7.97399 0.050415 8.82752C0.050415 8.9857 0.0817709 9.2065 0.146134 9.36469L7.97032 28.3105C8.3829 29.2283 9.04798 29.7654 9.93421 29.7654H10.6306C11.5185 29.7654 12.1836 29.2283 12.5945 28.3105L20.4204 9.36469Z" fill="#34234D"/>
<path d="M60.0613 12.3506L66.6527 28.3106C67.0653 29.2284 67.7303 29.7656 68.6166 29.7656H69.313C70.2009 29.7656 70.866 29.2284 71.2769 28.3106L77.7825 12.5599C76.5992 13.3508 75.3202 13.9802 73.9702 14.4251L68.9648 26.8853L63.928 14.3444C62.55 13.8649 61.2512 13.1909 60.0613 12.3506Z" fill="#34234D"/>
<path d="M70.0011 -0.062009C71.8908 0.442202 73.0113 2.37995 72.5047 4.26662C71.998 6.15165 70.0573 7.27047 68.1693 6.76461C66.2813 6.2604 65.1591 4.321 65.6674 2.43598C66.1724 0.550954 68.1132 -0.567867 70.0011 -0.062009ZM59.1387 5.16629L58.6899 5.42499C58.0347 5.80232 57.632 6.40869 57.5396 7.15842C57.4488 7.90814 57.6914 8.59196 58.236 9.11759C60.7957 11.581 64.1376 13.1167 67.7369 13.4297C72.2703 13.8269 76.7146 12.2088 79.9295 9.11924C80.4757 8.59526 80.7183 7.90979 80.6259 7.16007C80.5351 6.41034 80.1341 5.80232 79.4789 5.42499L79.0284 5.16465C78.1224 4.64396 77.0249 4.77083 76.2641 5.48596C73.9949 7.61649 70.8956 8.66281 67.7369 8.25088C67.7221 8.24923 67.7072 8.24758 67.694 8.24593C65.4842 7.94769 63.4906 6.98541 61.903 5.48925C61.1455 4.77248 60.0464 4.6456 59.1387 5.16629Z" fill="#FC8B01"/>
<path d="M113.438 41.0294L109.558 35.3957C109.373 35.1173 109.131 34.969 108.815 34.969C108.333 34.969 107.98 35.3579 107.998 35.8209C107.998 36.0054 108.054 36.1735 108.147 36.3218L112.583 42.5305V47.2562C112.583 47.7192 112.972 48.09 113.436 48.09C113.9 48.09 114.271 47.7192 114.271 47.2562V42.5305L118.726 36.3218C118.818 36.1735 118.874 36.0071 118.874 35.8209C118.892 35.3579 118.541 34.969 118.057 34.969C117.742 34.969 117.501 35.1173 117.314 35.3957L113.438 41.0294ZM105.772 35.0629H96.5286C96.083 35.0629 95.7497 35.4155 95.7497 35.8604C95.7497 36.3053 96.083 36.6381 96.5286 36.6381H100.316V47.2579C100.316 47.7209 100.687 48.0916 101.151 48.0916C101.615 48.0916 102.004 47.7209 102.004 47.2579V36.6381H105.772C106.218 36.6381 106.571 36.3053 106.571 35.8604C106.571 35.4139 106.218 35.0629 105.772 35.0629ZM93.02 34.969C92.5563 34.969 92.185 35.3579 92.185 35.8209V47.2562C92.185 47.7192 92.5563 48.09 93.02 48.09C93.4838 48.09 93.8732 47.7192 93.8732 47.2562V35.8209C93.8749 35.3595 93.4854 34.969 93.02 34.969ZM87.9172 34.969C87.4535 34.969 87.0822 35.3579 87.0822 35.8209V45.8293L79.9362 35.5243C79.6755 35.1914 79.324 34.969 78.9147 34.969H78.6737C78.0054 34.969 77.4674 35.5243 77.4674 36.1916V47.2562C77.4674 47.7192 77.8387 48.09 78.3024 48.09C78.7662 48.09 79.1556 47.7192 79.1556 47.2562V37.2297L86.3395 47.5891C86.5623 47.8856 86.9155 48.09 87.3231 48.09H87.5459C88.2143 48.09 88.7704 47.5528 88.7704 46.8855V35.8209C88.7704 35.3595 88.381 34.969 87.9172 34.969ZM73.2904 34.969C72.8266 34.969 72.4553 35.3579 72.4553 35.8209V43.1978C72.4553 45.5145 70.6367 46.6449 68.818 46.6449C66.9993 46.6449 65.179 45.5145 65.179 43.1978V35.8209C65.179 35.3579 64.7896 34.969 64.3258 34.969C63.8621 34.969 63.4907 35.3579 63.4907 35.8209V43.1418C63.4907 46.6268 66.331 48.1822 68.818 48.1822C71.305 48.1822 74.1452 46.6251 74.1452 43.1418V35.8209C74.1436 35.3595 73.7541 34.969 73.2904 34.969ZM58.9606 34.969H58.3483C57.8466 34.969 57.401 35.3035 57.2162 35.7467L53.0029 46.2363L48.7896 35.7467C48.6048 35.3018 48.1592 34.969 47.6575 34.969H47.0452C46.3769 34.969 45.8389 35.5243 45.8389 36.1916V47.2562C45.8389 47.7192 46.2102 48.09 46.6739 48.09C47.1377 48.09 47.5271 47.7192 47.5271 47.2562V36.7304L51.8147 47.3122C52.0193 47.7753 52.4649 48.09 53.0029 48.09C53.5409 48.09 53.9865 47.7753 54.1912 47.3122L58.4787 36.7304V47.2579C58.4787 47.7209 58.8682 48.0916 59.3319 48.0916C59.7957 48.0916 60.167 47.7209 60.167 47.2579V36.1933C60.167 35.5259 59.629 34.969 58.9606 34.969ZM41.2146 34.969H40.6024C40.1007 34.969 39.6551 35.3035 39.4703 35.7467L35.257 46.2363L31.0437 35.7467C30.8588 35.3018 30.4133 34.969 29.9116 34.969H29.2993C28.6309 34.969 28.0929 35.5243 28.0929 36.1916V47.2562C28.0929 47.7192 28.4642 48.09 28.928 48.09C29.3917 48.09 29.7812 47.7192 29.7812 47.2562V36.7304L34.0687 47.3122C34.2734 47.7753 34.719 48.09 35.257 48.09C35.795 48.09 36.2406 47.7753 36.4452 47.3122L40.7327 36.7304V47.2579C40.7327 47.7209 41.1222 48.0916 41.586 48.0916C42.0497 48.0916 42.421 47.7209 42.421 47.2579V36.1933C42.421 35.5259 41.883 34.969 41.2146 34.969ZM18.96 46.6087C15.8788 46.6087 14.1344 44.3842 14.1344 41.5303C14.1344 38.6764 15.8788 36.452 18.96 36.452C22.023 36.452 23.7856 38.6764 23.7856 41.5303C23.7856 44.3842 22.0214 46.6087 18.96 46.6087ZM18.96 34.8767C14.9877 34.8767 12.5188 37.6565 12.4445 41.5303C12.5188 45.4041 14.9877 48.1839 18.96 48.1839C22.9142 48.1839 25.4012 45.4041 25.4755 41.5303C25.4012 37.6565 22.9125 34.8767 18.96 34.8767ZM10.2529 45.6266C10.1605 45.6266 10.0301 45.6447 9.91787 45.7007C8.93427 46.2198 7.96883 46.5724 6.5215 46.5724C3.2357 46.5724 1.54741 44.3858 1.54741 41.532C1.54741 38.6781 3.23735 36.4915 6.5215 36.4915C7.96883 36.4915 8.93427 36.8441 9.91787 37.3632C10.0284 37.4192 10.1588 37.4373 10.2529 37.4373C10.7166 37.4373 11.0137 37.0847 10.9955 36.6958C10.9774 36.3432 10.8288 36.1587 10.5879 36.0285C9.43762 35.3793 8.17512 34.88 6.35646 34.88C2.66303 34.88 -0.140869 37.4011 -0.140869 41.5336C-0.140869 45.6661 2.66138 48.1872 6.35646 48.1872C8.17512 48.1872 9.43762 47.6863 10.5879 47.0387C10.8288 46.9085 10.9774 46.724 10.9955 46.3714C11.0153 45.9776 10.7183 45.6266 10.2529 45.6266Z" fill="#34234D"/>
</g>
<defs>
<clipPath id="clip0">
<rect width="119" height="48" fill="white"/>
</clipPath>
</defs>
</svg>
